<?xml version="1.0" standalone="no"?>
<!DOCTYPE svg PUBLIC "-//W3C//DTD SVG 1.1//EN" "http://www.w3.org/Graphics/SVG/1.1/DTD/svg11.dtd" >
<svg xmlns="http://www.w3.org/2000/svg">
<metadata>
This is a custom SVG webfont generated by Font Squirrel.
Copyright   :  Copyright 2005 Chanel All rights reserved
Designer    : Steidl Design  Karsten Luecke revision 2005
</metadata>
<defs>
<font id="ABChanelCoutureRegular" horiz-adv-x="1884" >
<font-face units-per-em="2048" ascent="1536" descent="-512" />
<missing-glyph horiz-adv-x="737" />
<glyph unicode=" "  horiz-adv-x="737" />
<glyph unicode="&#x09;" horiz-adv-x="737" />
<glyph unicode="&#xa0;" horiz-adv-x="737" />
<glyph unicode="!" horiz-adv-x="806" d="M287 0v231h233v-231h-233zM287 793v641h233v-641l-43 -334h-149z" />
<glyph unicode="&#x22;" horiz-adv-x="991" d="M205 1290v144h233v-144l-43 -323h-149zM553 1290v144h233v-144l-43 -323h-149z" />
<glyph unicode="#" horiz-adv-x="1531" d="M225 276v191h205v500h-205v190h205v277h174v-277h328v277h170v-277h205v-190h-205v-500h205v-191h-205v-276h-170v276h-328v-276h-174v276h-205zM604 467h328v500h-328v-500z" />
<glyph unicode="$" horiz-adv-x="1546" d="M102 272l195 117q145 -193 471 -192q203 0 291 55q98 59 98 158q0 76 -54 123t-141.5 68.5t-191.5 34.5t-208.5 33.5t-191.5 56.5t-141.5 110.5t-54.5 187.5q0 213 205 330q117 68 287 80v163h168v-163q324 -25 518 -240l-195 -111q-137 154 -409 154q-154 0 -246 -49 q-102 -53 -103 -144q0 -68 54.5 -108.5t141.5 -58t191.5 -29.5t209 -33.5t191.5 -60.5t141 -121t54 -203q0 -106 -58 -197.5t-163 -150.5q-123 -70 -327 -82v-164h-168v164q-361 30 -564 272z" />
<glyph unicode="%" horiz-adv-x="1617" d="M102 1138.5q0 137.5 95.5 231.5t232.5 94t232.5 -94t95.5 -231.5t-95.5 -231.5t-232.5 -94t-232.5 94t-95.5 231.5zM143 0l1096 1434h236l-1096 -1434h-236zM281 1138.5q0 -65.5 43 -108.5t106.5 -43t106.5 43t43 108.5t-43 108.5t-106.5 43t-106.5 -43t-43 -108.5z M860 295q0 137 95.5 231.5t232.5 94.5t232.5 -94.5t95.5 -231.5t-95.5 -231.5t-232.5 -94.5t-232.5 94.5t-95.5 231.5zM1038 294.5q0 -65.5 43 -108.5t106.5 -43t106.5 43t43 108.5t-43 108.5t-106.5 43t-106.5 -43t-43 -108.5z" />
<glyph unicode="&#x26;" horiz-adv-x="1841" d="M184 406q0 258 267 372q-205 92 -205 287q0 180 147.5 289.5t374.5 109.5q340 0 512 -266l-178 -102q-100 164 -334 164q-137 0 -221 -51.5t-84 -153.5q0 -199 325 -199h1012v-205h-305v-211q0 -229 -174 -350t-461 -121q-291 0 -483.5 110t-192.5 327zM406 418 q0 -248 454 -248q430 0 430 270v211h-502q-382 0 -382 -233z" />
<glyph unicode="'" horiz-adv-x="643" d="M205 1290v144h233v-144l-43 -323h-149z" />
<glyph unicode="(" horiz-adv-x="778" d="M184 716.5q0 276.5 71 481.5t216 399h205q-143 -215 -211 -421.5t-68 -458.5t67.5 -459t211.5 -422h-205q-145 195 -216 399.5t-71 481z" />
<glyph unicode=")" horiz-adv-x="778" d="M102 -164q143 215 211 422t68 459t-67.5 458.5t-211.5 421.5h205q145 -195 216 -399.5t71 -481t-70.5 -481t-216.5 -399.5h-205z" />
<glyph unicode="*" horiz-adv-x="1167" d="M164 1063l55 172l285 -105l-10 304h180l-10 -304l284 105l56 -172l-291 -84l186 -240l-145 -106l-170 252l-170 -252l-146 106l187 240z" />
<glyph unicode="," horiz-adv-x="768" d="M246 0v287h276v-246q0 -188 -82 -369h-112q61 178 61 328h-143z" />
<glyph unicode="-" horiz-adv-x="1105" d="M205 635v221h696v-221h-696z" />
<glyph unicode="." horiz-adv-x="768" d="M246 0v287h276v-287h-276z" />
<glyph unicode="/" horiz-adv-x="1392" d="M41 -164l983 1761h246l-983 -1761h-246z" />
<glyph unicode="0" horiz-adv-x="1536" d="M174 717q0 336 166 541.5t428 205.5t428 -205.5t166 -541.5t-166 -542t-428 -206t-428 206t-166 542zM399 717q0 -250 98.5 -386t270.5 -136t270.5 136t98.5 386t-98.5 386t-270.5 136t-270.5 -136t-98.5 -386z" />
<glyph unicode="1" horiz-adv-x="890" d="M82 973v194q266 27 358 267h185v-1434h-226v1126q-47 -59 -134 -102t-183 -51z" />
<glyph unicode="2" horiz-adv-x="1351" d="M133 0v193q129 258 529 487q160 90 225 170t65 174q0 111 -82 173.5t-208 62.5q-137 0 -221.5 -89.5t-61.5 -242.5h-219q-25 203 109 369.5t393 166.5q231 0 373.5 -127t142.5 -313q0 -166 -102.5 -283.5t-313.5 -238.5q-305 -174 -363 -289h779v-213h-1045z" />
<glyph unicode="3" horiz-adv-x="1361" d="M41 256l184 104q123 -182 389 -182q147 0 244.5 61.5t97.5 178.5q0 229 -362 229h-205v209h205q141 0 223 50t82 149q0 102 -80 151t-205 49q-236 0 -333 -159l-179 102q172 266 512 266q213 0 357.5 -109.5t144.5 -289.5q0 -195 -205 -287q266 -117 267 -372 q0 -195 -163 -316t-401 -121q-376 0 -573 287z" />
<glyph unicode="4" horiz-adv-x="1443" d="M82 299v168l831 967h193v-947h205v-188h-205v-299h-213v299h-811zM344 487h549v639z" />
<glyph unicode="5" horiz-adv-x="1413" d="M143 276l185 105q131 -207 368 -207q141 0 236.5 81t95.5 216t-95 216t-237 81q-180 0 -338 -137l-163 45l131 758h862v-213h-713l-65 -381q129 125 327 125q213 0 362.5 -138.5t149.5 -355.5q0 -213 -160.5 -357.5t-392.5 -144.5q-186 0 -327.5 86t-225.5 221z" />
<glyph unicode="6" horiz-adv-x="1474" d="M184 676q0 356 159 572t425 216q297 0 502 -245l-185 -105q-135 145 -317 146q-166 0 -259 -133.5t-110 -374.5q158 207 410 206q203 0 347 -138t144 -349q0 -213 -160.5 -357.5t-391.5 -144.5q-233 0 -377 144q-187 184 -187 563zM412 492q0 -123 94 -220.5t242 -97.5 q141 0 236 81t95 216q0 133 -91 215t-220 82q-145 0 -250.5 -75.5t-105.5 -200.5z" />
<glyph unicode="7" horiz-adv-x="1146" d="M51 1221v213h1045v-197q-264 -264 -417 -553t-228 -684h-246q145 752 647 1221h-801z" />
<glyph unicode="8" horiz-adv-x="1536" d="M184 406q0 258 267 372q-205 92 -205 287q0 170 149.5 284.5t372.5 114.5t372.5 -114.5t149.5 -284.5q0 -195 -205 -287q266 -117 267 -372q0 -190 -168 -313.5t-416 -123.5t-416 123.5t-168 313.5zM406 418q0 -119 101 -185.5t261 -66.5t261 66.5t101 185.5t-97 178 t-265 59t-265 -59t-97 -178zM463 1055q0 -98 82 -152.5t223 -54.5t223 54t82 153q0 104 -84 158.5t-221 54.5t-221 -54.5t-84 -158.5z" />
<glyph unicode="9" horiz-adv-x="1474" d="M174 963q0 213 161 357t392 144q233 0 377 -143q186 -184 186 -563q0 -356 -158.5 -572.5t-424.5 -216.5q-297 0 -502 246l184 104q135 -145 318 -145q166 0 259 133t109 375q-158 -207 -409 -207q-203 0 -347.5 138.5t-144.5 349.5zM395 963q0 -133 91.5 -215t220.5 -82 q145 0 250.5 75.5t105.5 200.5q0 123 -94.5 220.5t-241.5 97.5q-141 0 -236.5 -81t-95.5 -216z" />
<glyph unicode=":" horiz-adv-x="849" d="M287 221v287h276v-287h-276zM287 932v287h276v-287h-276z" />
<glyph unicode=";" horiz-adv-x="849" d="M287 221v287h276v-246q0 -205 -82 -385h-112q61 178 61 344h-143zM287 932v287h276v-287h-276z" />
<glyph unicode="=" horiz-adv-x="1536" d="M287 446v189h962v-189h-962zM287 860v189h962v-189h-962z" />
<glyph unicode="?" horiz-adv-x="1259" d="M20 1198q201 266 533 266q238 0 391 -98q193 -125 193 -342q0 -166 -123 -274.5t-340 -139.5l-33 -192h-190l-48 350h140q174 0 273 69.5t99 186.5q0 102 -88 166q-92 66 -274 65q-240 0 -348 -161zM430 0v231h234v-231h-234z" />
<glyph unicode="@" horiz-adv-x="2682" d="M379 717q0 403 273.5 672.5t709.5 269.5q197 0 369 -66.5t286.5 -175t180 -245t65.5 -277.5q0 -188 -111.5 -303t-314.5 -146l84 -176h-205l-82 176h-544l-82 -176h-205l430 918h258l270 -578q166 0 247 77t81 194q0 242 -200.5 418t-526.5 176q-356 0 -577.5 -207 t-221.5 -551t227.5 -551t600.5 -207q379 0 598 244l174 -99q-299 -330 -772 -329q-446 0 -729 270.5t-283 671.5zM1163 610h398l-199 422z" />
<glyph unicode="A" horiz-adv-x="1720" d="M41 0l672 1434h295l671 -1434h-245l-152 326h-844l-151 -326h-246zM532 530h656l-328 703z" />
<glyph unicode="B" horiz-adv-x="1742" d="M287 0v1434h671q225 0 340 -70q174 -106 175 -311q0 -84 -47.5 -156t-118.5 -117q119 -51 180 -145t61 -213q0 -231 -192 -344q-129 -78 -367 -78h-702zM504 209h485q158 0 223 31q111 49 111 182q0 135 -111 182q-68 31 -223 31h-485v-426zM504 844h459q117 0 176 22 q117 41 116 168q0 121 -116 168q-51 23 -176 23h-459v-381z" />
<glyph unicode="C" horiz-adv-x="1720" d="M164 717q0 311 222 529t556 218q236 0 418 -111.5t268 -267.5l-194 -112q-70 125 -198 195.5t-294 70.5q-238 0 -390.5 -146.5t-152.5 -376t153 -375.5t390 -146q166 0 294 70.5t198 195.5l194 -113q-86 -156 -268 -267.5t-418 -111.5q-334 0 -556 218.5t-222 529.5z" />
<glyph unicode="D" horiz-adv-x="1832" d="M287 0v1434h604q342 0 560 -204t218 -513t-218 -513t-560 -204h-604zM512 221h379q248 0 395.5 133t147.5 362.5t-147.5 362.5t-395.5 133h-379v-991z" />
<glyph unicode="E" horiz-adv-x="1617" d="M287 0v1434h1106v-213h-885v-373h762v-213h-762v-422h905v-213h-1126z" />
<glyph unicode="F" horiz-adv-x="1495" d="M287 0v1434h1106v-217h-881v-406h758v-217h-758v-594h-225z" />
<glyph unicode="G" horiz-adv-x="1830" d="M164 717q0 311 222 529t556 218q215 0 386 -95t269 -232l-194 -113q-78 102 -198 160.5t-263 58.5q-238 0 -392.5 -148.5t-154.5 -378t155 -378t392 -148.5q297 0 461 113v221h-522v205h735v-530q-268 -229 -674 -230q-334 0 -556 218.5t-222 529.5z" />
<glyph unicode="H" d="M287 0v1434h225v-574h860v574h225v-1434h-225v635h-860v-635h-225z" />
<glyph unicode="I" horiz-adv-x="806" d="M287 0v1434h233v-1434h-233z" />
<glyph unicode="J" horiz-adv-x="1533" d="M61 369l195 112q104 -295 414 -295q170 0 257 92.5t87 266.5v889h233v-889q0 -268 -147 -412q-170 -164 -430 -164q-215 0 -377 108t-232 292z" />
<glyph unicode="K" horiz-adv-x="1630" d="M287 0v1434h225v-623l713 623h331l-673 -582l686 -852h-305l-566 715l-186 -160v-555h-225z" />
<glyph unicode="L" horiz-adv-x="1351" d="M287 0v1434h233v-1213h729v-221h-962z" />
<glyph unicode="M" horiz-adv-x="2260" d="M287 0v1434h331l512 -1145l512 1145h332v-1434h-209v1217l-544 -1217h-181l-544 1217v-1217h-209z" />
<glyph unicode="N" horiz-adv-x="1904" d="M287 0v1434h276l846 -1065v1065h209v-1434h-188l-934 1176v-1176h-209z" />
<glyph unicode="O" d="M164 717q0 311 222 529t556 218t556 -218t222 -529t-222 -529.5t-556 -218.5t-556 218.5t-222 529.5zM399 716.5q0 -229.5 153 -375.5t390.5 -146t390 146t152.5 375.5t-152.5 376t-390 146.5t-390.5 -146.5t-153 -376z" />
<glyph unicode="P" horiz-adv-x="1720" d="M287 0v1434h717q240 0 380 -93q193 -129 193 -366.5t-193 -366.5q-141 -92 -380 -92h-492v-516h-225zM512 733h492q150 0 231 45q106 57 106 196.5t-106 196.5q-82 45 -231 46h-492v-484z" />
<glyph unicode="Q" d="M164 717q0 311 222 529t556 218t556 -218t222 -529q0 -297 -217 -514l217 -203h-282l-90 84q-182 -109 -406 -109q-287 0 -496 162q-133 102 -207.5 254t-74.5 326zM395 717q0 -231 155 -381t392 -150q141 0 246 45l-174 162l178 101l160 -150q137 143 137 372.5 t-154.5 378t-392 148.5t-392.5 -148.5t-155 -377.5z" />
<glyph unicode="R" horiz-adv-x="1771" d="M287 0v1434h696q240 0 381 -93q193 -129 192 -366q0 -88 -36.5 -169t-133 -153.5t-239.5 -99.5l440 -553h-278l-406 516h-391v-516h-225zM512 733h471q150 0 231 45q106 57 106.5 196.5t-106.5 196.5q-82 45 -231 46h-471v-484z" />
<glyph unicode="S" horiz-adv-x="1484" d="M72 266l204 123q154 -205 472 -205q205 0 301 66q88 59 88 160q0 74 -54.5 118.5t-141.5 64t-191.5 32t-209 34t-191.5 57.5t-141 113.5t-54 194.5q0 223 192 346q154 94 381 94q369 0 614 -264l-204 -117q-150 166 -410 166q-166 0 -256 -51q-92 -55 -92 -154 q0 -66 54 -104.5t141.5 -54t191.5 -26.5t208.5 -33.5t191.5 -61.5t141.5 -124t54.5 -210q0 -236 -213 -362q-166 -98 -401 -99q-434 0 -676 297z" />
<glyph unicode="T" horiz-adv-x="1495" d="M102 1217v217h1291v-217h-529v-1217h-233v1217h-529z" />
<glyph unicode="U" d="M287 584v850h233v-850q0 -172 98 -273q115 -117 324 -116.5t324 116.5q98 100 98 273v850h233v-850q0 -254 -149 -418q-184 -197 -505.5 -197t-506.5 197q-149 164 -149 418z" />
<glyph unicode="V" horiz-adv-x="1679" d="M41 1434h256l543 -1229l542 1229h256l-641 -1434h-315z" />
<glyph unicode="W" horiz-adv-x="2379" d="M61 1434h236l393 -1213l402 1213h196l402 -1213l393 1213h235l-481 -1434h-287l-360 1090l-361 -1090h-286z" />
<glyph unicode="X" horiz-adv-x="1511" d="M20 0l578 754l-522 680h282l398 -521l397 521h283l-523 -680l578 -754h-287l-448 588l-449 -588h-287z" />
<glyph unicode="Y" horiz-adv-x="1515" d="M0 1434h307l451 -564l450 564h308l-642 -775v-659h-233v659z" />
<glyph unicode="Z" horiz-adv-x="1484" d="M102 0v193l920 1028h-858v213h1157v-193l-920 -1028h930v-213h-1229z" />
<glyph unicode="[" horiz-adv-x="778" d="M225 -164v1761h430v-133l-235 -20v-1454l235 -21v-133h-430z" />
<glyph unicode="\" horiz-adv-x="1392" d="M123 1597h246l983 -1761h-246z" />
<glyph unicode="]" horiz-adv-x="778" d="M123 -31l235 21v1454l-235 20v133h430v-1761h-430v133z" />
<glyph unicode="`" horiz-adv-x="819" d="M94 1815h277l141 -248h-205z" />
<glyph unicode="a" horiz-adv-x="1720" d="M41 0l672 1434h295l671 -1434h-245l-152 326h-844l-151 -326h-246zM532 530h656l-328 703z" />
<glyph unicode="b" horiz-adv-x="1742" d="M287 0v1434h671q225 0 340 -70q174 -106 175 -311q0 -84 -47.5 -156t-118.5 -117q119 -51 180 -145t61 -213q0 -231 -192 -344q-129 -78 -367 -78h-702zM504 209h485q158 0 223 31q111 49 111 182q0 135 -111 182q-68 31 -223 31h-485v-426zM504 844h459q117 0 176 22 q117 41 116 168q0 121 -116 168q-51 23 -176 23h-459v-381z" />
<glyph unicode="c" horiz-adv-x="1720" d="M164 717q0 311 222 529t556 218q236 0 418 -111.5t268 -267.5l-194 -112q-70 125 -198 195.5t-294 70.5q-238 0 -390.5 -146.5t-152.5 -376t153 -375.5t390 -146q166 0 294 70.5t198 195.5l194 -113q-86 -156 -268 -267.5t-418 -111.5q-334 0 -556 218.5t-222 529.5z" />
<glyph unicode="d" horiz-adv-x="1832" d="M287 0v1434h604q342 0 560 -204t218 -513t-218 -513t-560 -204h-604zM512 221h379q248 0 395.5 133t147.5 362.5t-147.5 362.5t-395.5 133h-379v-991z" />
<glyph unicode="e" horiz-adv-x="1617" d="M287 0v1434h1106v-213h-885v-373h762v-213h-762v-422h905v-213h-1126z" />
<glyph unicode="f" horiz-adv-x="1495" d="M287 0v1434h1106v-217h-881v-406h758v-217h-758v-594h-225z" />
<glyph unicode="g" horiz-adv-x="1830" d="M164 717q0 311 222 529t556 218q215 0 386 -95t269 -232l-194 -113q-78 102 -198 160.5t-263 58.5q-238 0 -392.5 -148.5t-154.5 -378t155 -378t392 -148.5q297 0 461 113v221h-522v205h735v-530q-268 -229 -674 -230q-334 0 -556 218.5t-222 529.5z" />
<glyph unicode="h" d="M287 0v1434h225v-574h860v574h225v-1434h-225v635h-860v-635h-225z" />
<glyph unicode="i" horiz-adv-x="806" d="M287 0v1434h233v-1434h-233z" />
<glyph unicode="j" horiz-adv-x="1533" d="M61 369l195 112q104 -295 414 -295q170 0 257 92.5t87 266.5v889h233v-889q0 -268 -147 -412q-170 -164 -430 -164q-215 0 -377 108t-232 292z" />
<glyph unicode="k" horiz-adv-x="1630" d="M287 0v1434h225v-623l713 623h331l-673 -582l686 -852h-305l-566 715l-186 -160v-555h-225z" />
<glyph unicode="l" horiz-adv-x="1351" d="M287 0v1434h233v-1213h729v-221h-962z" />
<glyph unicode="m" horiz-adv-x="2260" d="M287 0v1434h331l512 -1145l512 1145h332v-1434h-209v1217l-544 -1217h-181l-544 1217v-1217h-209z" />
<glyph unicode="n" horiz-adv-x="1904" d="M287 0v1434h276l846 -1065v1065h209v-1434h-188l-934 1176v-1176h-209z" />
<glyph unicode="o" d="M164 717q0 311 222 529t556 218t556 -218t222 -529t-222 -529.5t-556 -218.5t-556 218.5t-222 529.5zM399 716.5q0 -229.5 153 -375.5t390.5 -146t390 146t152.5 375.5t-152.5 376t-390 146.5t-390.5 -146.5t-153 -376z" />
<glyph unicode="p" horiz-adv-x="1720" d="M287 0v1434h717q240 0 380 -93q193 -129 193 -366.5t-193 -366.5q-141 -92 -380 -92h-492v-516h-225zM512 733h492q150 0 231 45q106 57 106 196.5t-106 196.5q-82 45 -231 46h-492v-484z" />
<glyph unicode="q" d="M164 717q0 311 222 529t556 218t556 -218t222 -529q0 -297 -217 -514l217 -203h-282l-90 84q-182 -109 -406 -109q-287 0 -496 162q-133 102 -207.5 254t-74.5 326zM395 717q0 -231 155 -381t392 -150q141 0 246 45l-174 162l178 101l160 -150q137 143 137 372.5 t-154.5 378t-392 148.5t-392.5 -148.5t-155 -377.5z" />
<glyph unicode="r" horiz-adv-x="1771" d="M287 0v1434h696q240 0 381 -93q193 -129 192 -366q0 -88 -36.5 -169t-133 -153.5t-239.5 -99.5l440 -553h-278l-406 516h-391v-516h-225zM512 733h471q150 0 231 45q106 57 106.5 196.5t-106.5 196.5q-82 45 -231 46h-471v-484z" />
<glyph unicode="s" horiz-adv-x="1484" d="M72 266l204 123q154 -205 472 -205q205 0 301 66q88 59 88 160q0 74 -54.5 118.5t-141.5 64t-191.5 32t-209 34t-191.5 57.5t-141 113.5t-54 194.5q0 223 192 346q154 94 381 94q369 0 614 -264l-204 -117q-150 166 -410 166q-166 0 -256 -51q-92 -55 -92 -154 q0 -66 54 -104.5t141.5 -54t191.5 -26.5t208.5 -33.5t191.5 -61.5t141.5 -124t54.5 -210q0 -236 -213 -362q-166 -98 -401 -99q-434 0 -676 297z" />
<glyph unicode="t" horiz-adv-x="1495" d="M102 1217v217h1291v-217h-529v-1217h-233v1217h-529z" />
<glyph unicode="u" d="M287 584v850h233v-850q0 -172 98 -273q115 -117 324 -116.5t324 116.5q98 100 98 273v850h233v-850q0 -254 -149 -418q-184 -197 -505.5 -197t-506.5 197q-149 164 -149 418z" />
<glyph unicode="v" horiz-adv-x="1679" d="M41 1434h256l543 -1229l542 1229h256l-641 -1434h-315z" />
<glyph unicode="w" horiz-adv-x="2379" d="M61 1434h236l393 -1213l402 1213h196l402 -1213l393 1213h235l-481 -1434h-287l-360 1090l-361 -1090h-286z" />
<glyph unicode="x" horiz-adv-x="1511" d="M20 0l578 754l-522 680h282l398 -521l397 521h283l-523 -680l578 -754h-287l-448 588l-449 -588h-287z" />
<glyph unicode="y" horiz-adv-x="1515" d="M0 1434h307l451 -564l450 564h308l-642 -775v-659h-233v659z" />
<glyph unicode="z" horiz-adv-x="1484" d="M102 0v193l920 1028h-858v213h1157v-193l-920 -1028h930v-213h-1229z" />
<glyph unicode="{" horiz-adv-x="778" d="M123 614v205q98 12 130 86t23 211q-16 279 154 481h205q-160 -217 -148 -471q8 -178 -46 -274t-195 -135q141 -39 195.5 -135.5t45.5 -274.5q-12 -254 148 -471h-205q-170 203 -154 481q8 137 -23.5 211t-129.5 86z" />
<glyph unicode="|" horiz-adv-x="1044" d="M82 266l543 901h256l-543 -901h-256z" />
<glyph unicode="}" horiz-adv-x="778" d="M143 -164q160 217 148 471q-8 178 46 274.5t195 135.5q-141 39 -195 135t-46 274q12 254 -148 471h205q170 -203 154 -481q-8 -137 23.5 -211t129.5 -86v-205q-98 -12 -129.5 -85.5t-23.5 -211.5q16 -279 -154 -481h-205z" />
<glyph unicode="&#xa1;" horiz-adv-x="806" d="M287 0v641l43 334h149l41 -334v-641h-233zM287 1202v232h233v-232h-233z" />
<glyph unicode="&#xa2;" horiz-adv-x="1720" d="M164 717q0 289 195.5 496.5t498.5 236.5v147h168v-147q209 -20 366.5 -123.5t235.5 -241.5l-194 -112q-70 125 -198 195.5t-294 70.5q-238 0 -390.5 -146.5t-152.5 -376t153 -375.5t390 -146q166 0 294 70.5t198 195.5l194 -113q-78 -139 -235.5 -242.5t-366.5 -121.5 v-148h-168v148q-303 27 -498.5 234.5t-195.5 498.5z" />
<glyph unicode="&#xa3;" horiz-adv-x="1361" d="M102 471v168h230q-25 295 -25 344q0 203 127 342t348 139q242 0 365 -140t123 -361h-205q0 154 -77 228.5t-206 74.5q-121 0 -187.5 -76t-66.5 -207q0 -49 25 -344h348v-168h-334q2 -31 2 -86q0 -59 -48 -111.5t-120 -76.5h869v-197h-1065v176q49 0 96 61.5t47 147.5 q0 55 -2 86h-244z" />
<glyph unicode="&#xa4;" horiz-adv-x="1351" d="M119 260l147 148q-102 139 -102 309q0 168 102 307l-147 150l100 100l148 -150q137 104 309 105q170 0 307 -105l150 150l100 -100l-150 -150q104 -137 105 -307q0 -172 -105 -309l150 -148l-100 -100l-150 147q-139 -102 -307 -102q-170 0 -309 102l-148 -147zM367 717 q0 -137 90 -226.5t219 -89.5t219 89.5t90 226.5t-90 226t-219 89t-219 -89t-90 -226z" />
<glyph unicode="&#xa5;" horiz-adv-x="1576" d="M51 1434h277l460 -584l461 584h277l-527 -635h312v-168h-414v-164h414v-168h-414v-299h-217v299h-414v168h414v164h-414v168h312z" />
<glyph unicode="&#xa8;" horiz-adv-x="819" d="M113 1567v215h217v-215h-217zM492 1567v215h215v-215h-215z" />
<glyph unicode="&#xa9;" horiz-adv-x="1843" d="M164 716.5q0 319.5 215 539t542.5 219.5t542.5 -219.5t215 -539t-215 -538.5t-542.5 -219t-542.5 219t-215 538.5zM334 717q0 -254 164 -419t424 -165t423.5 165t163.5 419t-163.5 418.5t-423.5 164.5t-424 -164.5t-164 -418.5zM492 717q0 178 124.5 299t315.5 121 q246 0 381 -211l-146 -86q-78 123 -235 123q-115 0 -190.5 -70t-75.5 -176.5t75.5 -176t190.5 -69.5q158 0 235 123l146 -86q-135 -211 -381 -211q-190 0 -315 121t-125 299z" />
<glyph unicode="&#xaa;" horiz-adv-x="1720" d="M41 0l672 1434h295l671 -1434h-245l-152 326h-844l-151 -326h-246zM532 530h656l-328 703z" />
<glyph unicode="&#xab;" horiz-adv-x="1353" d="M225 618v238l371 483v-323l-213 -279l213 -278v-324zM696 618v238l371 483v-323l-213 -279l213 -278v-324z" />
<glyph unicode="&#xad;" horiz-adv-x="1105" d="M205 635v221h696v-221h-696z" />
<glyph unicode="&#xae;" horiz-adv-x="1208" d="M123 1034.5q0 194.5 135 327.5t346 133t346 -133t135 -327.5t-135 -328t-346 -133.5t-346 133.5t-135 328zM246 1034.5q0 -149.5 96 -246t262 -96.5t262.5 96.5t96.5 246t-96.5 245.5t-262.5 96t-262 -96t-96 -245.5zM420 819v430h215q78 0 119 -24q59 -37 59 -115 q0 -104 -121 -129l135 -162h-110l-125 152h-82v-152h-90zM510 1053h125q41 0 61 12q25 16 25 45q0 33 -25 47q-20 10 -61 10h-125v-114z" />
<glyph unicode="&#xb0;" horiz-adv-x="839" d="M143 1177.5q0 114.5 81 195.5t196 81t195.5 -81t80.5 -195.5t-80.5 -195.5t-195.5 -81t-196 81t-81 195.5zM276 1177.5q0 -61.5 41 -102.5t102.5 -41t102.5 41t41 102.5t-41 102.5t-102 41q-59 0 -101.5 -41t-42.5 -102.5z" />
<glyph unicode="&#xb2;" horiz-adv-x="1351" d="M133 0v193q129 258 529 487q160 90 225 170t65 174q0 111 -82 173.5t-208 62.5q-137 0 -221.5 -89.5t-61.5 -242.5h-219q-25 203 109 369.5t393 166.5q231 0 373.5 -127t142.5 -313q0 -166 -102.5 -283.5t-313.5 -238.5q-305 -174 -363 -289h779v-213h-1045z" />
<glyph unicode="&#xb3;" horiz-adv-x="1361" d="M41 256l184 104q123 -182 389 -182q147 0 244.5 61.5t97.5 178.5q0 229 -362 229h-205v209h205q141 0 223 50t82 149q0 102 -80 151t-205 49q-236 0 -333 -159l-179 102q172 266 512 266q213 0 357.5 -109.5t144.5 -289.5q0 -195 -205 -287q266 -117 267 -372 q0 -195 -163 -316t-401 -121q-376 0 -573 287z" />
<glyph unicode="&#xb4;" horiz-adv-x="819" d="M307 1567l142 248h276l-213 -248h-205z" />
<glyph unicode="&#xb6;" horiz-adv-x="1751" d="M164 716.5q0 319.5 219 520.5q219 197 580 197h583v-201h-164v-1032h164v-201h-583q-360 0 -580 197q-219 200 -219 519.5zM625 717q0 -516 338 -516h202v1032h-202q-338 0 -338 -516z" />
<glyph unicode="&#xb7;" horiz-adv-x="909" d="M287 578v331h336v-331h-336z" />
<glyph unicode="&#x2219;" horiz-adv-x="909" d="M287 578v331h336v-331h-336z" />
<glyph unicode="&#xb8;" horiz-adv-x="819" d="M266 -184l56 102q137 -14 207.5 -77.5t70.5 -147.5q0 -88 -57.5 -146.5t-153.5 -58.5q-33 0 -63.5 5t-44.5 11l-15 4v162q51 -37 123 -37q31 0 49.5 19.5t18.5 50.5q-1 101 -191 113z" />
<glyph unicode="&#xb9;" horiz-adv-x="890" d="M82 973v194q266 27 358 267h185v-1434h-226v1126q-47 -59 -134 -102t-183 -51z" />
<glyph unicode="&#xba;" d="M164 717q0 311 222 529t556 218t556 -218t222 -529t-222 -529.5t-556 -218.5t-556 218.5t-222 529.5zM399 716.5q0 -229.5 153 -375.5t390.5 -146t390 146t152.5 375.5t-152.5 376t-390 146.5t-390.5 -146.5t-153 -376z" />
<glyph unicode="&#xbb;" horiz-adv-x="1353" d="M287 135v324l213 278l-213 279v323l370 -483v-238zM758 135v324l213 278l-213 279v323l370 -483v-238z" />
<glyph unicode="&#xbf;" horiz-adv-x="1259" d="M123 410q0 166 123 274.5t340 138.5l32 193h191l47 -350h-139q-174 0 -273.5 -70t-99.5 -186q0 -102 88 -166q92 -66 275 -66q240 0 348 162l184 -104q-199 -266 -532 -267q-238 0 -392 99q-192 125 -192 342zM596 1202v232h233v-232h-233z" />
<glyph unicode="&#xc0;" horiz-adv-x="1720" d="M41 0l672 1434h295l671 -1434h-245l-152 326h-844l-151 -326h-246zM532 530h656l-328 703zM545 1815h276l142 -248h-205z" />
<glyph unicode="&#xc1;" horiz-adv-x="1720" d="M41 0l672 1434h295l671 -1434h-245l-152 326h-844l-151 -326h-246zM532 530h656l-328 703zM758 1567l141 248h277l-213 -248h-205z" />
<glyph unicode="&#xc2;" horiz-adv-x="1720" d="M41 0l672 1434h295l671 -1434h-245l-152 326h-844l-151 -326h-246zM463 1567l274 248h246l274 -248h-253l-144 145l-143 -145h-254zM532 530h656l-328 703z" />
<glyph unicode="&#xc3;" horiz-adv-x="1720" d="M41 0l672 1434h295l671 -1434h-245l-152 326h-844l-151 -326h-246zM522 1567q8 131 60.5 194.5t134.5 63.5q63 0 162.5 -58.5t124.5 -58.5q51 0 51 107h143q-8 -131 -60.5 -195t-133.5 -64q-63 0 -163 58.5t-124 58.5q-51 0 -51 -106h-144zM532 530h656l-328 703z" />
<glyph unicode="&#xc4;" horiz-adv-x="1720" d="M41 0l672 1434h295l671 -1434h-245l-152 326h-844l-151 -326h-246zM532 530h656l-328 703zM563 1567v215h217v-215h-217zM942 1567v215h215v-215h-215z" />
<glyph unicode="&#xc5;" horiz-adv-x="1720" d="M41 0l631 1348q-88 78 -88 180q0 121 79.5 198.5t196.5 77.5t197 -77.5t80 -198.5q0 -102 -88 -180l630 -1348h-245l-152 326h-844l-151 -326h-246zM532 530h656l-328 703zM717 1527.5q0 -61.5 41 -102.5t102.5 -41t102.5 41t41 102.5t-41 102.5t-102.5 41t-102.5 -41 t-41 -102.5z" />
<glyph unicode="&#xc6;" horiz-adv-x="2396" d="M41 0l672 1434h1458v-213h-1075l176 -373h776v-213h-678l199 -422h622v-213h-757l-152 326h-844l-151 -326h-246zM532 530h656l-328 703z" />
<glyph unicode="&#xc7;" horiz-adv-x="1720" d="M164 717q0 311 222 529t556 218q236 0 418 -111.5t268 -267.5l-194 -112q-70 125 -198 195.5t-294 70.5q-238 0 -390.5 -146.5t-152.5 -376t153 -375.5t390 -146q166 0 294 70.5t198 195.5l194 -113q-86 -156 -268 -267.5t-418 -111.5q-334 0 -556 218.5t-222 529.5z M809 -184l55 102q137 -14 208 -77.5t71 -147.5q0 -88 -57.5 -146.5t-153.5 -58.5q-33 0 -63.5 5t-45.5 11l-14 4v162q51 -37 123 -37q31 0 49 19.5t18 50.5q0 101 -190 113z" />
<glyph unicode="&#xc8;" horiz-adv-x="1617" d="M287 0v1434h1106v-213h-885v-373h762v-213h-762v-422h905v-213h-1126zM524 1815h277l141 -248h-205z" />
<glyph unicode="&#xc9;" horiz-adv-x="1617" d="M287 0v1434h1106v-213h-885v-373h762v-213h-762v-422h905v-213h-1126zM737 1567l142 248h276l-213 -248h-205z" />
<glyph unicode="&#xca;" horiz-adv-x="1617" d="M287 0v1434h1106v-213h-885v-373h762v-213h-762v-422h905v-213h-1126zM442 1567l275 248h246l274 -248h-254l-143 145l-144 -145h-254z" />
<glyph unicode="&#xcb;" horiz-adv-x="1617" d="M287 0v1434h1106v-213h-885v-373h762v-213h-762v-422h905v-213h-1126zM543 1567v215h217v-215h-217zM922 1567v215h215v-215h-215z" />
<glyph unicode="&#xcc;" horiz-adv-x="806" d="M88 1815h277l141 -248h-205zM287 0v1434h233v-1434h-233z" />
<glyph unicode="&#xcd;" horiz-adv-x="806" d="M287 0v1434h233v-1434h-233zM301 1567l141 248h277l-213 -248h-205z" />
<glyph unicode="&#xce;" horiz-adv-x="806" d="M6 1567l275 248h245l275 -248h-254l-144 145l-143 -145h-254zM287 0v1434h233v-1434h-233z" />
<glyph unicode="&#xcf;" horiz-adv-x="806" d="M106 1567v215h218v-215h-218zM287 0v1434h233v-1434h-233zM485 1567v215h215v-215h-215z" />
<glyph unicode="&#xd0;" horiz-adv-x="1832" d="M82 631v168h205v635h604q342 0 560 -204t218 -513t-218 -513t-560 -204h-604v631h-205zM512 221h379q248 0 395.5 133t147.5 362.5t-147.5 362.5t-395.5 133h-379v-413h348v-168h-348v-410z" />
<glyph unicode="&#xd1;" horiz-adv-x="1904" d="M287 0v1434h276l846 -1065v1065h209v-1434h-188l-934 1176v-1176h-209zM614 1567q8 131 60.5 194.5t134.5 63.5q63 0 162.5 -58.5t124.5 -58.5q51 0 51 107h143q-8 -131 -60 -195t-134 -64q-63 0 -162.5 58.5t-124.5 58.5q-51 0 -51 -106h-144z" />
<glyph unicode="&#xd2;" d="M164 717q0 311 222 529t556 218t556 -218t222 -529t-222 -529.5t-556 -218.5t-556 218.5t-222 529.5zM399 716.5q0 -229.5 153 -375.5t390.5 -146t390 146t152.5 375.5t-152.5 376t-390 146.5t-390.5 -146.5t-153 -376zM627 1815h276l141 -248h-204z" />
<glyph unicode="&#xd3;" d="M164 717q0 311 222 529t556 218t556 -218t222 -529t-222 -529.5t-556 -218.5t-556 218.5t-222 529.5zM399 716.5q0 -229.5 153 -375.5t390.5 -146t390 146t152.5 375.5t-152.5 376t-390 146.5t-390.5 -146.5t-153 -376zM840 1567l141 248h276l-213 -248h-204z" />
<glyph unicode="&#xd4;" d="M164 717q0 311 222 529t556 218t556 -218t222 -529t-222 -529.5t-556 -218.5t-556 218.5t-222 529.5zM399 716.5q0 -229.5 153 -375.5t390.5 -146t390 146t152.5 375.5t-152.5 376t-390 146.5t-390.5 -146.5t-153 -376zM545 1567l274 248h246l274 -248h-254l-143 145 l-143 -145h-254z" />
<glyph unicode="&#xd5;" d="M164 717q0 311 222 529t556 218t556 -218t222 -529t-222 -529.5t-556 -218.5t-556 218.5t-222 529.5zM399 716.5q0 -229.5 153 -375.5t390.5 -146t390 146t152.5 375.5t-152.5 376t-390 146.5t-390.5 -146.5t-153 -376zM604 1567q8 131 60.5 194.5t134.5 63.5 q63 0 162.5 -58.5t123.5 -58.5q51 0 52 107h143q-8 -131 -60.5 -195t-134.5 -64q-63 0 -162.5 58.5t-123.5 58.5q-51 0 -51 -106h-144z" />
<glyph unicode="&#xd6;" d="M164 717q0 311 222 529t556 218t556 -218t222 -529t-222 -529.5t-556 -218.5t-556 218.5t-222 529.5zM399 716.5q0 -229.5 153 -375.5t390.5 -146t390 146t152.5 375.5t-152.5 376t-390 146.5t-390.5 -146.5t-153 -376zM645 1567v215h217v-215h-217zM1024 1567v215h215 v-215h-215z" />
<glyph unicode="&#xd8;" d="M164 717q0 311 222 529t556 218q203 0 379 -98l143 190h215l-217 -288q121 -106 189.5 -251t68.5 -300q0 -311 -222 -529.5t-556 -218.5q-203 0 -379 99l-143 -191h-215l217 289q-121 106 -189.5 250.5t-68.5 300.5zM391 717q0 -244 154 -387l651 868q-111 49 -254 49 q-244 0 -397.5 -149.5t-153.5 -380.5zM688 236q111 -49 254 -50q244 0 397.5 149.5t153.5 381.5q0 244 -154 387z" />
<glyph unicode="&#xd9;" d="M287 584v850h233v-850q0 -172 98 -273q115 -117 324 -116.5t324 116.5q98 100 98 273v850h233v-850q0 -254 -149 -418q-184 -197 -505.5 -197t-506.5 197q-149 164 -149 418zM627 1815h276l141 -248h-204z" />
<glyph unicode="&#xda;" d="M287 584v850h233v-850q0 -172 98 -273q115 -117 324 -116.5t324 116.5q98 100 98 273v850h233v-850q0 -254 -149 -418q-184 -197 -505.5 -197t-506.5 197q-149 164 -149 418zM840 1567l141 248h276l-213 -248h-204z" />
<glyph unicode="&#xdb;" d="M287 584v850h233v-850q0 -172 98 -273q115 -117 324 -116.5t324 116.5q98 100 98 273v850h233v-850q0 -254 -149 -418q-184 -197 -505.5 -197t-506.5 197q-149 164 -149 418zM545 1567l274 248h246l274 -248h-254l-143 145l-143 -145h-254z" />
<glyph unicode="&#xdc;" d="M287 584v850h233v-850q0 -172 98 -273q115 -117 324 -116.5t324 116.5q98 100 98 273v850h233v-850q0 -254 -149 -418q-184 -197 -505.5 -197t-506.5 197q-149 164 -149 418zM645 1567v215h217v-215h-217zM1024 1567v215h215v-215h-215z" />
<glyph unicode="&#xdd;" horiz-adv-x="1515" d="M0 1434h307l451 -564l450 564h308l-642 -775v-659h-233v659zM655 1567l142 248h276l-213 -248h-205z" />
<glyph unicode="&#xde;" horiz-adv-x="1720" d="M287 0v1434h225v-226h492q240 0 380 -92q193 -129 193 -366.5t-193 -366.5q-141 -92 -380 -92h-492v-291h-225zM512 508h492q150 0 231 45q106 57 106 196.5t-106 196.5q-82 45 -231 45h-492v-483z" />
<glyph unicode="&#xdf;" horiz-adv-x="2969" d="M72 266l204 123q154 -205 472 -205q205 0 301 66q88 59 88 160q0 74 -54.5 118.5t-141.5 64t-191.5 32t-209 34t-191.5 57.5t-141 113.5t-54 194.5q0 223 192 346q154 94 381 94q369 0 614 -264l-204 -117q-150 166 -410 166q-166 0 -256 -51q-92 -55 -92 -154 q0 -66 54 -104.5t141.5 -54t191.5 -26.5t208.5 -33.5t191.5 -61.5t141.5 -124t54.5 -210q0 -236 -213 -362q-166 -98 -401 -99q-434 0 -676 297zM1556 266l205 123q154 -205 471 -205q205 0 301 66q88 59 88 160q0 74 -54 118.5t-141 64t-191.5 32t-209 34t-191.5 57.5 t-141.5 113.5t-54.5 194.5q0 223 193 346q154 94 381 94q369 0 614 -264l-205 -117q-150 166 -409 166q-166 0 -256 -51q-92 -55 -92 -154q0 -66 54 -104.5t141 -54t191.5 -26.5t209 -33.5t191.5 -61.5t141.5 -124t54.5 -210q0 -236 -213 -362q-166 -98 -402 -99 q-434 0 -676 297z" />
<glyph unicode="&#xe0;" horiz-adv-x="1720" d="M41 0l672 1434h295l671 -1434h-245l-152 326h-844l-151 -326h-246zM532 530h656l-328 703zM545 1815h276l142 -248h-205z" />
<glyph unicode="&#xe1;" horiz-adv-x="1720" d="M41 0l672 1434h295l671 -1434h-245l-152 326h-844l-151 -326h-246zM532 530h656l-328 703zM758 1567l141 248h277l-213 -248h-205z" />
<glyph unicode="&#xe2;" horiz-adv-x="1720" d="M41 0l672 1434h295l671 -1434h-245l-152 326h-844l-151 -326h-246zM463 1567l274 248h246l274 -248h-253l-144 145l-143 -145h-254zM532 530h656l-328 703z" />
<glyph unicode="&#xe3;" horiz-adv-x="1720" d="M41 0l672 1434h295l671 -1434h-245l-152 326h-844l-151 -326h-246zM522 1567q8 131 60.5 194.5t134.5 63.5q63 0 162.5 -58.5t124.5 -58.5q51 0 51 107h143q-8 -131 -60.5 -195t-133.5 -64q-63 0 -163 58.5t-124 58.5q-51 0 -51 -106h-144zM532 530h656l-328 703z" />
<glyph unicode="&#xe4;" horiz-adv-x="1720" d="M41 0l672 1434h295l671 -1434h-245l-152 326h-844l-151 -326h-246zM532 530h656l-328 703zM563 1567v215h217v-215h-217zM942 1567v215h215v-215h-215z" />
<glyph unicode="&#xe5;" horiz-adv-x="1720" d="M41 0l631 1348q-88 78 -88 180q0 121 79.5 198.5t196.5 77.5t197 -77.5t80 -198.5q0 -102 -88 -180l630 -1348h-245l-152 326h-844l-151 -326h-246zM532 530h656l-328 703zM717 1527.5q0 -61.5 41 -102.5t102.5 -41t102.5 41t41 102.5t-41 102.5t-102.5 41t-102.5 -41 t-41 -102.5z" />
<glyph unicode="&#xe6;" horiz-adv-x="2396" d="M41 0l672 1434h1458v-213h-1075l176 -373h776v-213h-678l199 -422h622v-213h-757l-152 326h-844l-151 -326h-246zM532 530h656l-328 703z" />
<glyph unicode="&#xe7;" horiz-adv-x="1720" d="M164 717q0 311 222 529t556 218q236 0 418 -111.5t268 -267.5l-194 -112q-70 125 -198 195.5t-294 70.5q-238 0 -390.5 -146.5t-152.5 -376t153 -375.5t390 -146q166 0 294 70.5t198 195.5l194 -113q-86 -156 -268 -267.5t-418 -111.5q-334 0 -556 218.5t-222 529.5z M809 -184l55 102q137 -14 208 -77.5t71 -147.5q0 -88 -57.5 -146.5t-153.5 -58.5q-33 0 -63.5 5t-45.5 11l-14 4v162q51 -37 123 -37q31 0 49 19.5t18 50.5q0 101 -190 113z" />
<glyph unicode="&#xe8;" horiz-adv-x="1617" d="M287 0v1434h1106v-213h-885v-373h762v-213h-762v-422h905v-213h-1126zM524 1815h277l141 -248h-205z" />
<glyph unicode="&#xe9;" horiz-adv-x="1617" d="M287 0v1434h1106v-213h-885v-373h762v-213h-762v-422h905v-213h-1126zM737 1567l142 248h276l-213 -248h-205z" />
<glyph unicode="&#xea;" horiz-adv-x="1617" d="M287 0v1434h1106v-213h-885v-373h762v-213h-762v-422h905v-213h-1126zM442 1567l275 248h246l274 -248h-254l-143 145l-144 -145h-254z" />
<glyph unicode="&#xeb;" horiz-adv-x="1617" d="M287 0v1434h1106v-213h-885v-373h762v-213h-762v-422h905v-213h-1126zM543 1567v215h217v-215h-217zM922 1567v215h215v-215h-215z" />
<glyph unicode="&#xec;" horiz-adv-x="806" d="M88 1815h277l141 -248h-205zM287 0v1434h233v-1434h-233z" />
<glyph unicode="&#xed;" horiz-adv-x="806" d="M287 0v1434h233v-1434h-233zM301 1567l141 248h277l-213 -248h-205z" />
<glyph unicode="&#xee;" horiz-adv-x="806" d="M6 1567l275 248h245l275 -248h-254l-144 145l-143 -145h-254zM287 0v1434h233v-1434h-233z" />
<glyph unicode="&#xef;" horiz-adv-x="806" d="M106 1567v215h218v-215h-218zM287 0v1434h233v-1434h-233zM485 1567v215h215v-215h-215z" />
<glyph unicode="&#xf0;" horiz-adv-x="1832" d="M82 631v168h205v635h604q342 0 560 -204t218 -513t-218 -513t-560 -204h-604v631h-205zM512 221h379q248 0 395.5 133t147.5 362.5t-147.5 362.5t-395.5 133h-379v-413h348v-168h-348v-410z" />
<glyph unicode="&#xf1;" horiz-adv-x="1904" d="M287 0v1434h276l846 -1065v1065h209v-1434h-188l-934 1176v-1176h-209zM614 1567q8 131 60.5 194.5t134.5 63.5q63 0 162.5 -58.5t124.5 -58.5q51 0 51 107h143q-8 -131 -60 -195t-134 -64q-63 0 -162.5 58.5t-124.5 58.5q-51 0 -51 -106h-144z" />
<glyph unicode="&#xf2;" d="M164 717q0 311 222 529t556 218t556 -218t222 -529t-222 -529.5t-556 -218.5t-556 218.5t-222 529.5zM399 716.5q0 -229.5 153 -375.5t390.5 -146t390 146t152.5 375.5t-152.5 376t-390 146.5t-390.5 -146.5t-153 -376zM627 1815h276l141 -248h-204z" />
<glyph unicode="&#xf3;" d="M164 717q0 311 222 529t556 218t556 -218t222 -529t-222 -529.5t-556 -218.5t-556 218.5t-222 529.5zM399 716.5q0 -229.5 153 -375.5t390.5 -146t390 146t152.5 375.5t-152.5 376t-390 146.5t-390.5 -146.5t-153 -376zM840 1567l141 248h276l-213 -248h-204z" />
<glyph unicode="&#xf4;" d="M164 717q0 311 222 529t556 218t556 -218t222 -529t-222 -529.5t-556 -218.5t-556 218.5t-222 529.5zM399 716.5q0 -229.5 153 -375.5t390.5 -146t390 146t152.5 375.5t-152.5 376t-390 146.5t-390.5 -146.5t-153 -376zM545 1567l274 248h246l274 -248h-254l-143 145 l-143 -145h-254z" />
<glyph unicode="&#xf5;" d="M164 717q0 311 222 529t556 218t556 -218t222 -529t-222 -529.5t-556 -218.5t-556 218.5t-222 529.5zM399 716.5q0 -229.5 153 -375.5t390.5 -146t390 146t152.5 375.5t-152.5 376t-390 146.5t-390.5 -146.5t-153 -376zM604 1567q8 131 60.5 194.5t134.5 63.5 q63 0 162.5 -58.5t123.5 -58.5q51 0 52 107h143q-8 -131 -60.5 -195t-134.5 -64q-63 0 -162.5 58.5t-123.5 58.5q-51 0 -51 -106h-144z" />
<glyph unicode="&#xf6;" d="M164 717q0 311 222 529t556 218t556 -218t222 -529t-222 -529.5t-556 -218.5t-556 218.5t-222 529.5zM399 716.5q0 -229.5 153 -375.5t390.5 -146t390 146t152.5 375.5t-152.5 376t-390 146.5t-390.5 -146.5t-153 -376zM645 1567v215h217v-215h-217zM1024 1567v215h215 v-215h-215z" />
<glyph unicode="&#xf8;" d="M164 717q0 311 222 529t556 218q203 0 379 -98l143 190h215l-217 -288q121 -106 189.5 -251t68.5 -300q0 -311 -222 -529.5t-556 -218.5q-203 0 -379 99l-143 -191h-215l217 289q-121 106 -189.5 250.5t-68.5 300.5zM391 717q0 -244 154 -387l651 868q-111 49 -254 49 q-244 0 -397.5 -149.5t-153.5 -380.5zM688 236q111 -49 254 -50q244 0 397.5 149.5t153.5 381.5q0 244 -154 387z" />
<glyph unicode="&#xf9;" d="M287 584v850h233v-850q0 -172 98 -273q115 -117 324 -116.5t324 116.5q98 100 98 273v850h233v-850q0 -254 -149 -418q-184 -197 -505.5 -197t-506.5 197q-149 164 -149 418zM627 1815h276l141 -248h-204z" />
<glyph unicode="&#xfa;" d="M287 584v850h233v-850q0 -172 98 -273q115 -117 324 -116.5t324 116.5q98 100 98 273v850h233v-850q0 -254 -149 -418q-184 -197 -505.5 -197t-506.5 197q-149 164 -149 418zM840 1567l141 248h276l-213 -248h-204z" />
<glyph unicode="&#xfb;" d="M287 584v850h233v-850q0 -172 98 -273q115 -117 324 -116.5t324 116.5q98 100 98 273v850h233v-850q0 -254 -149 -418q-184 -197 -505.5 -197t-506.5 197q-149 164 -149 418zM545 1567l274 248h246l274 -248h-254l-143 145l-143 -145h-254z" />
<glyph unicode="&#xfc;" d="M287 584v850h233v-850q0 -172 98 -273q115 -117 324 -116.5t324 116.5q98 100 98 273v850h233v-850q0 -254 -149 -418q-184 -197 -505.5 -197t-506.5 197q-149 164 -149 418zM645 1567v215h217v-215h-217zM1024 1567v215h215v-215h-215z" />
<glyph unicode="&#xfd;" horiz-adv-x="1515" d="M0 1434h307l451 -564l450 564h308l-642 -775v-659h-233v659zM655 1567l142 248h276l-213 -248h-205z" />
<glyph unicode="&#xfe;" horiz-adv-x="1720" d="M287 0v1434h225v-226h492q240 0 380 -92q193 -129 193 -366.5t-193 -366.5q-141 -92 -380 -92h-492v-291h-225zM512 508h492q150 0 231 45q106 57 106 196.5t-106 196.5q-82 45 -231 45h-492v-483z" />
<glyph unicode="&#xff;" horiz-adv-x="1515" d="M0 1434h307l451 -564l450 564h308l-642 -775v-659h-233v659zM440 1567v215h217v-215h-217zM819 1567v215h215v-215h-215z" />
<glyph unicode="&#x152;" horiz-adv-x="2478" d="M164 717q0 311 222 529t556 218l287 -30h1024v-213h-811v-373h688v-213h-688v-422h831v-213h-1044q-154 -31 -287 -31q-334 0 -556 218.5t-222 529.5zM399 716.5q0 -231.5 153 -379t390 -147.5q74 0 145.5 9.5t106.5 19.5l35 10v975q-119 39 -287 39 q-238 0 -390.5 -147.5t-152.5 -379z" />
<glyph unicode="&#x153;" horiz-adv-x="2478" d="M164 717q0 311 222 529t556 218l287 -30h1024v-213h-811v-373h688v-213h-688v-422h831v-213h-1044q-154 -31 -287 -31q-334 0 -556 218.5t-222 529.5zM399 716.5q0 -231.5 153 -379t390 -147.5q74 0 145.5 9.5t106.5 19.5l35 10v975q-119 39 -287 39 q-238 0 -390.5 -147.5t-152.5 -379z" />
<glyph unicode="&#x178;" horiz-adv-x="1515" d="M0 1434h307l451 -564l450 564h308l-642 -775v-659h-233v659zM440 1567v215h217v-215h-217zM819 1567v215h215v-215h-215z" />
<glyph unicode="&#x2c6;" horiz-adv-x="819" d="M12 1567l275 248h245l275 -248h-254l-143 145l-144 -145h-254z" />
<glyph unicode="&#x2dc;" horiz-adv-x="819" d="M72 1567q8 131 60 194.5t134 63.5q63 0 162.5 -58.5t124.5 -58.5q51 0 51 107h144q-8 -131 -60.5 -195t-134.5 -64q-63 0 -162.5 58.5t-124.5 58.5q-51 0 -51 -106h-143z" />
<glyph unicode="&#x2013;" horiz-adv-x="1597" d="M287 635v217h1024v-217h-1024z" />
<glyph unicode="&#x2014;" horiz-adv-x="2109" d="M287 635v217h1536v-217h-1536z" />
<glyph unicode="&#x2018;" horiz-adv-x="686" d="M205 819v246q0 188 82 369h112q-61 -178 -61 -328h143v-287h-276z" />
<glyph unicode="&#x2019;" horiz-adv-x="686" d="M205 1147v287h276v-246q0 -188 -82 -369h-112q61 178 61 328h-143z" />
<glyph unicode="&#x201a;" horiz-adv-x="686" d="M205 0v287h276v-246q0 -188 -82 -369h-112q61 178 61 328h-143z" />
<glyph unicode="&#x201c;" horiz-adv-x="1116" d="M205 819v246q0 188 82 369h112q-61 -178 -61 -328h143v-287h-276zM635 819v246q0 188 82 369h112q-61 -178 -61 -328h143v-287h-276z" />
<glyph unicode="&#x201d;" horiz-adv-x="1116" d="M205 1147v287h276v-246q0 -188 -82 -369h-112q61 178 61 328h-143zM635 1147v287h276v-246q0 -188 -82 -369h-112q61 178 61 328h-143z" />
<glyph unicode="&#x201e;" horiz-adv-x="1116" d="M205 0v287h276v-246q0 -188 -82 -369h-112q61 178 61 328h-143zM635 0v287h276v-246q0 -188 -82 -369h-112q61 178 61 328h-143z" />
<glyph unicode="&#x2022;" horiz-adv-x="1032" d="M287 516v455h458v-455h-458z" />
<glyph unicode="&#x2026;" horiz-adv-x="2304" d="M246 0v287h276v-287h-276zM1014 0v287h276v-287h-276zM1782 0v287h276v-287h-276z" />
<glyph unicode="&#x2039;" horiz-adv-x="882" d="M225 618v238l371 483v-323l-213 -279l213 -278v-324z" />
<glyph unicode="&#x203a;" horiz-adv-x="882" d="M287 135v324l213 278l-213 279v323l370 -483v-238z" />
<glyph unicode="&#x20ac;" horiz-adv-x="1894" d="M143 467v168h199q-4 27 -4 82t4 82h-199v168h226q74 223 265 360t451 137q236 0 418.5 -111.5t268.5 -267.5l-187 -108q-72 125 -203 199.5t-297 74.5q-176 0 -303 -74.5t-188 -209.5h532v-168h-569q-4 -53 -4 -82t4 -82h569v-168h-532q61 -135 188 -210t303 -75 q166 0 297 75t203 200l187 -109q-86 -156 -268.5 -267.5t-418.5 -111.5q-260 0 -451.5 137.5t-264.5 360.5h-226z" />
<glyph unicode="&#x2122;" horiz-adv-x="2101" d="M82 1290v144h684v-144h-266v-655h-152v655h-266zM946 635v799h234l241 -613l242 613h233v-799h-139v684l-270 -684h-131l-271 684v-684h-139z" />
<glyph unicode="&#xe000;" horiz-adv-x="1435" d="M0 1435h1435v-1435h-1435v1435z" />
<glyph unicode="&#xfb01;" horiz-adv-x="2301" d="M1782 0v1434h233v-1434h-233zM287 0v1434h1106v-217h-881v-406h758v-217h-758v-594h-225z" />
<glyph unicode="&#xfb02;" horiz-adv-x="2846" d="M1782 0v1434h233v-1213h729v-221h-962zM287 0v1434h1106v-217h-881v-406h758v-217h-758v-594h-225z" />
<glyph unicode="&#xfb03;" horiz-adv-x="3796" d="M3277 0v1434h233v-1434h-233zM1782 0v1434h1106v-217h-881v-406h758v-217h-758v-594h-225zM287 0v1434h1106v-217h-881v-406h758v-217h-758v-594h-225z" />
<glyph unicode="&#xfb04;" horiz-adv-x="4341" d="M3277 0v1434h233v-1213h729v-221h-962zM1782 0v1434h1106v-217h-881v-406h758v-217h-758v-594h-225zM287 0v1434h1106v-217h-881v-406h758v-217h-758v-594h-225z" />
</font>
</defs>
</svg>
