<?xml version="1.0" standalone="no"?>
<!DOCTYPE svg PUBLIC "-//W3C//DTD SVG 1.1//EN" "http://www.w3.org/Graphics/SVG/1.1/DTD/svg11.dtd" >
<svg xmlns="http://www.w3.org/2000/svg">
<metadata>
Created by FontPrep 20130207 at Tue Sep 16 23:22:57 2014
 By Herbert Akinyele
Copyright (c) 2004-2009, Joshua Darden &#38; Phil's Fonts, Inc. All rights reserved. Published by Garagefonts USA 301-879-9222 www.garagefonts.com
</metadata>
<defs>
<font id="0981c7e4aac694eacf79da99cdbcab05" horiz-adv-x='1024' >
  <font-face 
    font-family="FreightTextProBold-Italic"
    font-weight="700"
    font-style="italic"
    font-stretch="normal"
    units-per-em="2048"
    panose-1="2 0 8 3 7 0 0 9 0 4"
    ascent="1638"
    descent="-410"
    x-height="961"
    cap-height="1280"
    bbox="-473 -590 3025 2025"
    underline-thickness="40"
    underline-position="-231"
    slope="-12"
    unicode-range="U+0020-FB04"
  />
<missing-glyph 
 />
    <glyph glyph-name="ff" unicode="ff" horiz-adv-x="1142" 
d="M834 1081q-60 3 -100 59t-52 140l-137 -27q-14 -41 -74 -335h315q28 106 48 163zM1268 1421q96 0 156 -51q60 -50 60 -118t-35 -109q-36 -41 -95 -41t-101 56q-41 56 -49 142l-106 -18q-20 -51 -84 -364h250l8 -117h-283l-108 -549q-88 -440 -230 -588
q-104 -106 -248 -106q-84 0 -142 45t-58 108t34 99t91 36t97 -49t46 -121l100 35q45 117 80 344l111 746h-316l-118 -611q-88 -440 -230 -587q-106 -106 -256 -107q-86 0 -144 46t-58 110t33 98q34 35 91 35q56 0 98 -48t48 -120l106 33q45 113 80 346l123 790l-178 15l6 69
l197 64q42 211 168 337t313 126q80 0 138 -35t81 -90q149 149 324 149z" />
    <glyph glyph-name="fi" unicode="fi" horiz-adv-x="1101" 
d="M-360 -348q0 64 33 98q34 35 91 35q56 0 98 -48t48 -120l106 33q45 113 80 346l123 790l-178 15l6 69l197 64q37 221 170 350q141 145 377 146q117 0 185 -56t68 -139q0 -55 -36 -95t-96 -40q-58 0 -100 56t-58 142l-191 -26q-57 -137 -92 -354h242q63 43 107 43
q44 1 116 -51t65 -76l-186 -689l37 -18l168 119l35 -45q-51 -88 -135 -160t-158 -72q-37 0 -107 51t-63 74l184 694l-16 13h-314l-118 -611q-88 -440 -230 -587q-106 -106 -256 -107q-86 0 -144 46t-58 110z" />
    <glyph glyph-name="fl" unicode="fl" horiz-adv-x="1114" 
d="M831 1128q-55 45 -77 170l-191 -26q-57 -137 -92 -354h315zM-360 -348q0 64 33 98q34 35 91 35q56 0 98 -48t48 -120l110 33q49 113 80 346l115 790l-174 15l6 69l197 64q37 221 170 350q141 145 377 146q96 0 163 -41l158 38l-276 -1282l38 -18l166 119l37 -45
q-53 -90 -136 -161t-157 -71q-36 0 -104 51t-64 74l146 707h-316l-118 -611q-88 -440 -230 -587q-106 -106 -256 -107q-86 0 -144 46t-58 110z" />
    <glyph glyph-name="ffi" unicode="ffi" horiz-adv-x="1644" 
d="M834 1098q-51 10 -88 65q-36 55 -48 129l-149 -24q-47 -152 -78 -350h315q21 112 48 180zM1455 1100q-58 0 -100 56t-59 142l-194 -26q-51 -123 -88 -354h241q63 43 107 43q44 1 117 -51q72 -52 65 -76l-186 -689l37 -18l168 119l34 -45q-51 -88 -135 -160t-157 -72
q-37 0 -107 51t-63 74l184 694l-16 13h-314l-108 -549q-88 -440 -230 -588q-104 -106 -248 -106q-84 0 -142 45t-58 108t34 99t91 36t97 -49t46 -121l100 35q45 117 80 344l111 746h-316l-118 -611q-88 -440 -230 -587q-106 -106 -256 -107q-86 0 -144 46t-58 110t33 98
q34 35 91 35q56 0 98 -48t48 -120l106 33q45 113 80 346l123 790l-178 15l6 69l197 64q37 221 164 344q72 70 146 104t171 33q180 0 242 -121q141 135 366 136q117 0 186 -56t68 -139q0 -55 -37 -95t-95 -40z" />
    <glyph glyph-name="ffl" unicode="ffl" horiz-adv-x="1656" 
d="M834 1098q-51 10 -88 65q-36 55 -48 129l-149 -24q-47 -152 -78 -350h315q21 112 48 180zM1374 1128q-51 43 -78 170l-194 -26q-51 -123 -88 -354h315zM1327 -31q-37 0 -105 51t-63 74l146 707h-316l-108 -549q-88 -440 -230 -588q-104 -106 -248 -106q-84 0 -142 45
t-58 108t34 99t91 36t97 -49t46 -121l100 35q45 117 80 344l111 746h-316l-118 -611q-88 -440 -230 -587q-106 -106 -256 -107q-86 0 -144 46t-58 110t33 98q34 35 91 35q56 0 98 -48t48 -120l106 33q45 113 80 346l123 790l-178 15l6 69l197 64q37 221 164 344
q72 70 146 104t171 33q180 0 242 -121q141 135 366 136q96 0 164 -41l158 38l-277 -1282l39 -18l166 119l37 -45q-53 -90 -136 -161t-157 -71z" />
    <glyph glyph-name=".notdef" 
 />
    <glyph glyph-name=".null" horiz-adv-x="0" 
 />
    <glyph glyph-name="nonmarkingreturn" horiz-adv-x="681" 
 />
    <glyph glyph-name="space" unicode=" " horiz-adv-x="466" 
 />
    <glyph glyph-name="exclam" unicode="!" horiz-adv-x="602" 
d="M393 111q0 -57 -41 -101t-101 -43q-60 0 -101 42q-41 41 -41 101t41 101t101 41t101 -42t41 -99zM401 1309h9q76 0 112 -32t19 -85l-224 -778q-3 -14 -27 -14t-24 16l8 792q0 47 35 74t92 27z" />
    <glyph glyph-name="quotedbl" unicode="&#x22;" horiz-adv-x="778" 
d="M477 1257l-323 -432h-93l228 496h2zM827 1257l-323 -432h-90l227 496h2z" />
    <glyph glyph-name="numbersign" unicode="#" horiz-adv-x="1189" 
d="M748 461l90 354h-322l-92 -354h324zM1219 815h-281l-92 -354h256l-2 -99h-283l-100 -374h-99l99 374h-322l-100 -374h-100l100 374h-254l2 99h281l92 354h-256l4 96h280l103 381h100l-100 -381h319l103 381h98l-100 -381h256z" />
    <glyph glyph-name="dollar" unicode="$" horiz-adv-x="1103" 
d="M504 74q113 0 176 55t64 136t-43 131t-132 106l-114 -426q16 -2 49 -2zM610 1200q-88 0 -149 -47t-62 -113q0 -129 162 -227l103 385q-16 2 -54 2zM160 946q0 150 138 255t335 106q41 0 57 -2l58 206h94l-58 -215q74 -10 172 -36l113 34l-55 -420l-129 5l-43 274
q-27 12 -88 29l-111 -410q172 -92 256 -175t84 -222q0 -184 -143 -295t-363 -111q-33 0 -49 2l-84 -311h-94l84 315q-125 14 -287 62l35 393l131 -2l63 -307q35 -18 89 -31l122 453q-171 84 -249 169q-78 84 -78 234z" />
    <glyph glyph-name="percent" unicode="%" horiz-adv-x="1527" 
d="M1384 314q0 106 -66 169t-170 63t-182 -85q-78 -87 -77 -193q0 -106 64 -168q65 -61 169 -61t184 85q78 84 78 190zM696 998q0 108 -64 172t-170 65q-106 0 -184 -86q-78 -87 -77 -193q0 -106 65 -168q66 -61 172 -61t182 81q76 82 76 190zM791 266q-1 148 107 260
t254 111q146 0 238 -82q92 -81 93 -229q0 -148 -111 -260t-258 -113q-147 0 -235 82q-88 83 -88 231zM1493 1309l-1290 -1340h-121l1290 1340h121zM467 1325q145 0 239 -82q94 -83 93 -231q0 -148 -110 -260t-256 -111q-146 0 -238 84q-93 85 -93 231t110 258t255 111z" />
    <glyph glyph-name="ampersand" unicode="&#x26;" horiz-adv-x="1357" 
d="M238 352q0 -86 52 -137t134 -51q117 0 287 123l-301 336q-172 -123 -172 -271zM784 1032q0 80 -41 135t-115 55t-123 -54q-48 -56 -48 -140q1 -84 29 -139t98 -127q200 116 200 270zM4 299q0 146 106 242t248 127v4q-141 130 -141 286t133 253t300 97q168 0 270 -74
q102 -75 102 -196q0 -240 -381 -325v-4l260 -277h4l217 195v4q-82 43 -82 109t42 105q42 38 107 38t109 -45t43 -121q0 -154 -305 -291l-86 -45l312 -332l-250 -96l-246 287h-4q-229 -270 -469 -271q-123 0 -206 92t-83 238z" />
    <glyph glyph-name="quotesingle" unicode="'" horiz-adv-x="428" 
d="M477 1257l-323 -432h-93l228 496h2z" />
    <glyph glyph-name="parenleft" unicode="(" horiz-adv-x="808" 
d="M299 430q0 -300 155 -536t337 -332l-56 -80q-191 95 -359 325q-85 117 -138 281q-54 164 -54 341t54 340q92 282 315 481q92 83 182 128l56 -80q-175 -96 -323 -311q-75 -109 -122 -255t-47 -302z" />
    <glyph glyph-name="parenright" unicode=")" horiz-adv-x="808" 
d="M510 406q0 336 -160 567q-160 232 -332 325l60 80q183 -92 355 -328q85 -118 138 -281t53 -340t-52 -341q-91 -279 -314 -479q-90 -82 -180 -127l-60 78q113 61 221 176t189 302q82 188 82 368z" />
    <glyph glyph-name="asterisk" unicode="*" horiz-adv-x="724" 
d="M793 948l-99 -76l-209 84l-20 -26l147 -172l-39 -117l-43 -14l-102 69l10 228l-30 8l-111 -191l-125 -4l-31 35l33 123l215 57v41l-215 60l-33 121l29 36l127 -4l111 -192l32 10l-10 225l102 68l43 -14l39 -117l-149 -172l20 -27l209 84l99 -78v-45z" />
    <glyph glyph-name="plus" unicode="+" horiz-adv-x="983" 
d="M551 422v-373h-117v373h-375l7 117h368v374h117v-374h367l6 -117h-373z" />
    <glyph glyph-name="comma" unicode="," horiz-adv-x="475" 
d="M358 78q0 -227 -385 -428l-51 49q98 57 162 130q63 73 63 144q0 99 -124 170q-14 8 -15 11q0 49 48 89t121 40q73 -1 127 -61t54 -144z" />
    <glyph glyph-name="hyphen" unicode="-" horiz-adv-x="681" 
d="M618 440h-550l6 123h538z" />
    <glyph glyph-name="period" unicode="." horiz-adv-x="475" 
d="M197 285q69 0 113 -46q44 -47 44 -111t-46 -112t-112 -49q-66 0 -113 47q-46 47 -46 113t46 112t114 46z" />
    <glyph glyph-name="slash" unicode="/" horiz-adv-x="571" 
d="M8 -434l443 1796h108l-442 -1796h-109z" />
    <glyph glyph-name="zero" unicode="0" horiz-adv-x="1052" 
d="M795 574q0 110 -71 192t-173 82t-174 -75q-131 -137 -129 -359q0 -127 70 -208t172 -81t175 75q130 134 130 374zM965 543q-1 -219 -135 -397t-345 -177q-175 0 -291 120q-116 121 -116 341t135 396t344 178q176 0 292 -121t116 -340z" />
    <glyph glyph-name="one" unicode="1" horiz-adv-x="780" 
d="M657 0h-614l12 86l133 23q49 6 54 47l88 663l-217 27l16 69l465 91l-113 -850q-4 -41 41 -47l135 -23v-86z" />
    <glyph glyph-name="two" unicode="2" horiz-adv-x="964" 
d="M281 176q266 0 342 14t110 70l58 86h88l-115 -346h-750l6 150q38 24 100 66q309 205 367 276q58 70 68 100q39 117 -34 193q-50 52 -142 55q-117 6 -266 -109l-17 57q86 92 212 154t250 57q124 -3 205 -77t73 -191q-5 -143 -202 -288q-97 -69 -233 -149
q-136 -79 -184 -108l-2 -10h66z" />
    <glyph glyph-name="three" unicode="3" horiz-adv-x="892" 
d="M485 352q123 0 208 -76t85 -203q0 -126 -91 -240t-222 -175t-240 -61t-180 28q-135 53 -135 150q0 51 37 88t99 37t100 -62q40 -62 40 -139q23 -6 47 -6q125 0 208 92q83 91 83 207t-64 184q-65 68 -171 68q-55 0 -150 -29l-26 64q225 121 299 182q114 97 114 191
t-55 141t-151 47t-257 -111l-18 59q213 213 451 213q121 1 212 -65t91 -182q0 -149 -154 -255q-120 -84 -268 -151v-10q49 14 108 14z" />
    <glyph glyph-name="four" unicode="4" horiz-adv-x="1071" 
d="M559 172l80 535h-10l-500 -535h430zM1001 59h-231l-55 -436h-228l56 436h-553l-4 93l805 864l102 -23l-107 -821h246z" />
    <glyph glyph-name="five" unicode="5" horiz-adv-x="948" 
d="M762 47q0 -201 -161 -329t-365 -128q-162 0 -261 70q-61 42 -61 102t36 98t100 38t98 -58q36 -58 34 -137q51 -20 99 -20q111 1 187 75t75 168q0 175 -167 290q-122 83 -292 155l240 604h577l-35 -213h-514l-88 -217q498 -195 498 -498z" />
    <glyph glyph-name="six" unicode="6" horiz-adv-x="1107" 
d="M776 446q0 146 -53 218t-127 71q-141 0 -244 -178q-33 -98 -33 -215q-1 -117 53 -201t153 -84t175 122q76 121 76 267zM1024 498q0 -219 -161 -374t-349 -155t-310 134q-122 135 -122 355t145 423t385 333t508 154l37 -76q-309 -70 -520 -230t-301 -398l16 -5
q78 91 173 147t190 56q129 0 219 -100t90 -264z" />
    <glyph glyph-name="seven" unicode="7" horiz-adv-x="974" 
d="M590 780q-218 0 -272 -9t-80 -50l-78 -123h-78l98 377h791v-86l-799 -1266h-149l749 1151l2 6h-184z" />
    <glyph glyph-name="eight" unicode="8" horiz-adv-x="1083" 
d="M301 301q0 -111 65 -179t168 -67q104 1 162 51t58 154t-97 183q-66 55 -124 91q-58 37 -61 38q-3 0 -7 4t-8 6q-156 -102 -156 -281zM795 991q1 98 -51 166t-143 68q-91 1 -143 -53t-52 -152t80 -165t176 -124q133 86 133 260zM979 357q0 -183 -140 -284
q-141 -101 -321 -101t-314 86t-134 228t88 225t223 114v6q-199 121 -200 294t130 277t303 104t292 -82q118 -83 118 -233q-2 -225 -287 -301v-6q242 -144 242 -327z" />
    <glyph glyph-name="nine" unicode="9" horiz-adv-x="1107" 
d="M324 526q0 -146 54 -222q54 -77 128 -77q139 0 242 179q32 111 32 226t-53 199t-151 84t-176 -121q-76 -122 -76 -268zM76 475q0 219 161 374t350 155t310 -134t121 -353q0 -220 -146 -424t-385 -334q-240 -130 -507 -154l-37 78q307 67 519 227t302 389l-16 4
q-78 -92 -174 -147t-189 -56q-127 0 -218 104t-91 271z" />
    <glyph glyph-name="colon" unicode=":" horiz-adv-x="475" 
d="M197 285q69 0 113 -46q44 -47 44 -111t-46 -112t-112 -49q-66 0 -113 47q-46 47 -46 113t46 112t114 46zM121 747q0 67 47 113t114 45q66 0 112 -47q46 -48 46 -112t-45 -111t-113 -47t-115 46q-46 46 -46 113z" />
    <glyph glyph-name="semicolon" unicode=";" horiz-adv-x="475" 
d="M358 68q0 -227 -385 -428l-51 49q98 57 162 130q63 73 63 144q0 99 -124 170q-14 8 -15 10q0 49 48 89t121 40t127 -60t54 -144zM123 748q0 66 46 112t113 45q66 0 112 -47q46 -48 46 -112t-45 -111t-113 -47t-113 47q-46 47 -46 113z" />
    <glyph glyph-name="less" unicode="&#x3c;" horiz-adv-x="983" 
d="M885 68l-832 383v59l832 385l28 -107l-667 -305v-2l667 -307z" />
    <glyph glyph-name="equal" unicode="=" horiz-adv-x="983" 
d="M903 248h-823l6 117h811zM897 596h-811l-6 117h823z" />
    <glyph glyph-name="greater" unicode="&#x3e;" horiz-adv-x="983" 
d="M930 451l-832 -383l-28 106l667 307v2l-667 305l28 107l832 -385v-59z" />
    <glyph glyph-name="question" unicode="?" horiz-adv-x="794" 
d="M403 111q0 -57 -41 -101t-101 -43q-60 0 -101 42q-41 41 -41 101t41 101t101 41t101 -42t41 -99zM797 944q0 -192 -183 -272q-41 -18 -97 -35t-65 -22q-8 -5 -28 -11t-28 -11t-21 -12t-19 -15t-16 -18q-10 -11 -10 -38q0 -66 69 -129l-100 2q-47 33 -83 88t-36 113
q0 113 98 175q71 44 203 82q131 38 155 58t23 41q0 59 -88 104q-138 71 -340 33q-31 33 -31 89t54 100q53 43 147 43q160 1 278 -107t118 -258z" />
    <glyph glyph-name="at" unicode="@" horiz-adv-x="1785" 
d="M874 860q-46 0 -80 -34t-83 -186t-49 -230t30 -115t69 -37q40 0 98 78q57 78 109 160t60 94q6 12 26 72l21 63q-27 49 -91 92q-65 43 -110 43zM662 102q-82 0 -148 68q-133 137 3 442q69 154 175 260t242 107q135 0 182 -160h21l55 146h178l-123 -344l-71 -355
q-8 -36 28 -64t103 -28q129 0 219 127t96 311q10 289 -182 467q-193 179 -499 183t-527 -214t-232 -520q-8 -326 194 -532t509 -207q121 0 260 41l22 -76q-147 -51 -293 -51q-338 1 -567 235t-219 581t259 589t594 237t565 -206t210 -523q-8 -236 -148 -392t-335 -156
q-131 0 -193 53q-61 53 -53 119q0 47 70 256h-27q-145 -244 -215 -319q-71 -75 -153 -75z" />
    <glyph glyph-name="A" unicode="A" horiz-adv-x="1269" 
d="M717 526l-84 527h-17l-227 -527h328zM1227 0h-604l6 84l80 12q53 8 62 42t-9 116l-29 172h-385l-35 -94q-88 -209 23 -232l74 -16l6 -84h-486l7 84l57 18q66 18 102 62t119 221l356 786v78l273 62l221 -1125q7 -39 23 -57t55 -27l78 -18z" />
    <glyph glyph-name="B" unicode="B" horiz-adv-x="1247" 
d="M639 702q119 0 199 64t80 180t-78 180t-203 64h-47l-68 -488h117zM872 352q0 114 -75 186q-76 73 -189 72h-98l-68 -499l113 -23h43q121 0 198 75q76 75 76 189zM1167 350q0 -121 -94 -219q-135 -131 -411 -131h-648l9 82l100 22q47 10 53 50l131 972q6 39 -41 50l-92 22
l-6 82h598q219 0 328 -77q108 -77 108 -208t-98 -215t-250 -118q6 -6 6 -11q135 -29 221 -105t86 -196z" />
    <glyph glyph-name="C" unicode="C" horiz-adv-x="1331" 
d="M100 545q0 147 62 291t172 254q219 219 518 219q178 0 309 -52l176 48l-61 -457h-141l-48 295q-92 66 -215 65q-196 0 -334 -200t-138 -470q0 -268 126 -391q80 -79 196 -79t212 49l143 305h156l-96 -422l-123 25q-154 -57 -316 -58q-294 0 -446 156t-152 422z" />
    <glyph glyph-name="D" unicode="D" horiz-adv-x="1404" 
d="M1065 717q0 219 -96 344t-299 125h-82l-144 -1063l138 -31q211 10 347 174t136 451zM1360 698q0 -272 -209 -481q-98 -97 -259 -157t-351 -60h-527l9 82l100 22q47 10 53 50l131 972q6 39 -41 50l-92 22l-6 82l545 2q305 0 476 -156t171 -428z" />
    <glyph glyph-name="E" unicode="E" horiz-adv-x="1284" 
d="M559 692q92 0 133 12t62 54l69 139h105l-113 -496h-104l2 131q2 40 -32 54t-142 14h-31l-68 -508h88q178 0 256 11t120 42t77 107l70 151h147l-94 -403h-1090l9 82l100 22q47 10 53 50l133 972q6 39 -41 50l-94 22l-4 82h1108l-55 -422h-142l-22 170q-10 80 -50 120
t-339 40h-80l-70 -496h39z" />
    <glyph glyph-name="F" unicode="F" horiz-adv-x="1232" 
d="M637 1188h-47l-70 -520h45q94 0 134 12t63 55l69 139h103l-113 -495h-102l8 129q2 41 -35 54t-147 13h-41l-55 -421q-6 -41 40 -50l107 -22l6 -82h-588l9 82l100 22q47 10 53 50l133 972q6 39 -41 50l-94 22l-4 82h1077l-55 -422h-141l-23 170q-16 112 -80 136t-311 24z
" />
    <glyph glyph-name="G" unicode="G" horiz-adv-x="1435" 
d="M706 -33q-290 0 -448 154t-158 424q0 147 62 291q127 294 416 413q144 59 308 59t296 -51l176 48l-62 -451h-141l-45 289q-96 66 -238 65q-196 0 -334 -200t-138 -470q0 -268 126 -391q80 -80 217 -79q88 0 162 26l51 332q4 23 -5 33t-40 16l-96 23l-6 82h571l-8 -82
l-96 -23q-49 -12 -55 -49l-50 -291l119 -18l6 -68q-300 -82 -590 -82z" />
    <glyph glyph-name="H" unicode="H" horiz-adv-x="1517" 
d="M1386 0h-573l6 82l101 22q30 6 40 16t13 34l61 450h-524l-61 -450q-6 -39 40 -50l97 -22l6 -82h-574l7 82l100 22q47 10 53 50l131 972q6 39 -41 50l-92 22l-6 82h573l-6 -82l-102 -22q-47 -12 -53 -50l-58 -421h525l57 421q4 25 -4 34t-37 16l-94 22l-6 82h575l-8 -82
l-100 -22q-47 -12 -54 -50l-133 -972q-6 -39 41 -50l94 -22z" />
    <glyph glyph-name="I" unicode="I" horiz-adv-x="763" 
d="M635 0h-617l7 82l120 22q47 10 54 50l133 972q6 41 -41 50l-115 22l-6 82h614l-6 -82l-123 -22q-47 -10 -53 -50l-131 -972q-6 -37 41 -50l115 -22z" />
    <glyph glyph-name="J" unicode="J" horiz-adv-x="903" 
d="M217 -33q-113 0 -187 47t-73 127q2 49 39 82t86 33q160 0 172 -209h2q61 31 98 119t62 270l92 690q6 41 -41 50l-133 22l-6 82h622l-8 -82l-108 -22q-47 -8 -54 -50l-82 -610q-74 -549 -481 -549z" />
    <glyph glyph-name="K" unicode="K" horiz-adv-x="1374" 
d="M1296 0h-522l6 82l54 18q43 12 12 72l-215 432l-142 -119l-43 -331q-6 -39 41 -50l95 -22l4 -82h-574l8 82l101 22q47 10 53 50l133 972q6 39 -41 50l-94 22l-4 82h573l-8 -82l-102 -22q-47 -12 -53 -50l-66 -505l358 337q142 140 142 176t-47 52l-54 14l-4 80h535
l-8 -78l-54 -14q-102 -27 -274 -168l-283 -246l314 -575q44 -78 72 -91q13 -7 46 -18l37 -8z" />
    <glyph glyph-name="L" unicode="L" horiz-adv-x="1185" 
d="M500 92q202 0 274 31t119 129l76 170h145l-100 -422h-1002l8 82l101 22q47 10 53 50l131 972q6 39 -41 50l-94 22l-4 82h582l-9 -82l-108 -22q-47 -12 -53 -50l-140 -1034h62z" />
    <glyph glyph-name="M" unicode="M" horiz-adv-x="1767" 
d="M1675 0h-600l6 82l111 24q33 6 49 74t41 301l68 641h-21l-487 -1081h-246l-131 1100h-21l-108 -652q-56 -351 -39 -371q6 -7 22 -12l113 -24l6 -82h-454l6 82l108 24q27 6 40 24q37 50 87 359l107 635q8 47 -35 54l-119 20l-4 82h539l114 -971h21l438 971h514l-6 -82
l-121 -22q-49 -8 -53 -52l-70 -643q-35 -292 -16 -346q8 -23 35 -29l102 -24z" />
    <glyph glyph-name="N" unicode="N" horiz-adv-x="1464" 
d="M1518 1280l-7 -82l-98 -20q-51 -10 -79 -87t-60 -321l-109 -786h-198l-537 1042h-14l-70 -516q-35 -252 -31 -325t54 -83l106 -20l6 -82h-489l6 82l98 20q51 10 78 87t59 321l76 549q6 53 -3 80t-46 37l-88 22l-4 82h428l487 -952h17l59 442q35 256 32 327t-50 81
l-111 20l-6 82h494z" />
    <glyph glyph-name="O" unicode="O" horiz-adv-x="1464" 
d="M1112 774q0 242 -106 354q-84 78 -200 78t-199 -76q-135 -124 -193 -419q-23 -113 -23 -211q0 -242 109 -348q80 -80 197 -80t199 76q137 126 195 417q21 113 21 209zM1405 713q0 -317 -227 -549q-188 -195 -464 -195t-446 167t-170 427q0 305 203 524t504 220
q262 0 431 -167t169 -427z" />
    <glyph glyph-name="P" unicode="P" horiz-adv-x="1204" 
d="M915 898q0 136 -76 215q-77 79 -190 79h-59l-82 -588q66 -12 98 -12q139 0 224 85t85 221zM1196 909q0 -179 -161 -291t-400 -112q-29 0 -137 10l-49 -362q-6 -43 40 -50l127 -22l5 -82h-607l9 82l100 22q47 10 53 50l133 972q6 39 -41 50l-94 22l-4 82h543
q221 0 352 -96t131 -275z" />
    <glyph glyph-name="Q" unicode="Q" horiz-adv-x="1468" 
d="M1112 776q0 244 -108 354q-82 78 -198 78t-199 -76q-136 -126 -192 -423q-22 -113 -22 -211q0 -244 107 -348q80 -80 198 -80q296 0 393 495q21 113 21 211zM1405 713q0 -158 -59 -301t-164 -246q-164 -164 -398 -191q90 -147 211 -204t336 -62l6 -65q-137 -39 -333 -40
t-320 86q-123 87 -229 324q-164 68 -260 213t-97 336q0 299 199 521t506 223q262 0 432 -167t170 -427z" />
    <glyph glyph-name="R" unicode="R" horiz-adv-x="1296" 
d="M922 925q0 125 -72 195t-191 70h-71l-72 -531l127 -26q125 18 202 93t77 199zM770 1280q213 0 332 -86t119 -222q1 -136 -93 -234t-266 -146l223 -404q30 -61 72 -84q12 -6 39 -14l35 -8l4 -82h-369l-69 164l-185 385l-106 6l-57 -401q-6 -33 40 -50l91 -22l6 -82h-570
l7 82l100 22q47 10 53 50l129 972q6 39 -41 50l-94 22l-4 82h604z" />
    <glyph glyph-name="S" unicode="S" horiz-adv-x="1095" 
d="M983 375q0 -184 -143 -295q-144 -111 -360 -111t-433 68l35 393l131 -2l63 -307q100 -45 220 -45t182 54q61 54 62 145t-66 145q-67 55 -217 137t-224 162q-73 81 -73 229t138 253t335 106q127 0 323 -47l113 34l-55 -420l-129 5l-43 274q-110 45 -214 45t-164 -46
t-60 -104t16 -96q18 -39 71 -83t196 -119q143 -76 219 -159t77 -216z" />
    <glyph glyph-name="T" unicode="T" horiz-adv-x="1312" 
d="M602 1188q-139 0 -195 -29t-104 -133l-72 -176h-147l92 430h1184l-55 -430h-134l-22 170q-15 104 -65 135t-191 33h-12l-138 -1034q-6 -39 41 -50l123 -22l6 -82h-626l6 82l127 22q49 8 53 50l137 1034h-8z" />
    <glyph glyph-name="U" unicode="U" horiz-adv-x="1449" 
d="M682 -43q-219 0 -352 106t-133 310q0 61 6 112l88 641q6 39 -41 50l-92 22l-6 82h573l-6 -82l-103 -22q-47 -12 -53 -50l-88 -641q-10 -88 -10 -123q0 -128 81 -200t222 -72t229 85t117 282l45 313q35 254 31 326t-53 82l-107 20l-6 82h492l-7 -82l-98 -20
q-51 -10 -78 -86t-61 -322l-49 -348q-35 -231 -179 -348t-362 -117z" />
    <glyph glyph-name="V" unicode="V" horiz-adv-x="1253" 
d="M1384 1280l-6 -84l-61 -18q-63 -18 -99 -62t-120 -221l-422 -895h-225l-226 1094q-12 70 -78 84l-75 18l-6 84h604l-6 -84l-82 -12q-52 -8 -62 -42t8 -116l138 -790h14l326 737q84 184 -29 207l-70 16l-6 84h483z" />
    <glyph glyph-name="W" unicode="W" horiz-adv-x="1908" 
d="M2060 1280l-6 -84l-61 -18q-72 -20 -117 -72t-119 -211l-381 -895h-233l-115 788h-14l-359 -788h-235l-193 1094q-8 39 -24 57t-53 27l-84 18l-7 84h617l-6 -84l-86 -12q-78 -10 -54 -158l107 -795h14l324 730l-21 133q-4 37 -21 56t-56 28l-84 18l-7 84h615l-6 -84
l-86 -12q-45 -6 -57 -42t3 -116l105 -793h16l266 676q58 135 56 195t-62 76l-61 16l-6 84h491z" />
    <glyph glyph-name="X" unicode="X" horiz-adv-x="1310" 
d="M1257 0h-598l7 82l69 12q102 20 19 166l-138 272h-14l-215 -260q-127 -143 4 -176l62 -14l6 -82h-508l6 82l72 18q86 20 211 160l317 354l-225 398q-51 86 -76 120t-55 44l-76 22l-4 82h598l-8 -82l-68 -12q-100 -20 -18 -166l112 -227h15l198 239q111 123 -6 152l-63 14
l-7 82h490l-6 -82l-72 -18q-92 -25 -235 -189l-250 -278l252 -459q43 -78 67 -109t58 -41l73 -22z" />
    <glyph glyph-name="Y" unicode="Y" horiz-adv-x="1222" 
d="M1348 1280l-7 -84l-49 -14q-61 -16 -108 -56t-131 -159l-295 -428l-49 -385q-6 -41 41 -50l120 -22l-2 -82h-628l12 82l131 22q45 6 53 50l49 372l-249 543q-27 51 -50 74t-59 33l-61 20l-7 84h588l-6 -84l-82 -12q-53 -8 -54 -56t42 -145l145 -356h17l235 354
q66 96 68 142t-62 59l-73 14l-7 84h478z" />
    <glyph glyph-name="Z" unicode="Z" horiz-adv-x="1232" 
d="M930 1186h-211q-183 0 -245 -32t-112 -142l-63 -158h-137l55 426h1049l-13 -94l-917 -1077l-2 -17h215q258 0 322 71q28 30 63 99l65 148h146l-98 -410h-1039l15 92l907 1077v17z" />
    <glyph glyph-name="bracketleft" unicode="[" horiz-adv-x="753" 
d="M717 -455h-529v1788h529v-98h-416v-1591h416v-99z" />
    <glyph glyph-name="backslash" unicode="\" horiz-adv-x="571" 
d="M561 -434h-108l-443 1796h109z" />
    <glyph glyph-name="bracketright" unicode="]" horiz-adv-x="753" 
d="M37 -455v99h416v1591h-416v98h528v-1788h-528z" />
    <glyph glyph-name="asciicircum" unicode="^" horiz-adv-x="819" 
d="M764 1055h-94l-176 245h-5l-241 -245h-94l235 372h242z" />
    <glyph glyph-name="underscore" unicode="_" horiz-adv-x="962" 
d="M950 -109h-999l6 109h987z" />
    <glyph glyph-name="grave" unicode="`" horiz-adv-x="817" 
d="M596 1055h-94l-309 372h260z" />
    <glyph glyph-name="a" unicode="a" horiz-adv-x="1081" 
d="M511 831q-44 0 -77 -32q-61 -61 -111 -213q-51 -152 -51 -252q-1 -184 105 -184q61 0 151 129q35 49 150 233l47 162q-37 61 -103 109q-67 48 -111 48zM274 -31q-98 0 -164 73q-66 74 -65 214q0 140 70 298t176 263q141 141 281 141t182 -157h16l55 157h211l-123 -370
l-108 -459l55 -18l152 104l35 -43q-49 -82 -131 -143t-140 -61q-59 0 -130 28q-71 29 -71 57q1 28 53 176t62 181h-20q-158 -264 -207 -324q-91 -117 -189 -117z" />
    <glyph glyph-name="b" unicode="b" horiz-adv-x="1040" 
d="M754 574q0 206 -103 206q-49 0 -102 -68t-113 -168t-65 -108q-3 -8 -11 -19t-14 -22l-51 -190q45 -57 115 -99t108 -40q38 0 72 32q68 68 116 220q48 154 48 256zM981 654q0 -142 -62 -289t-167 -252q-145 -145 -334 -146q-82 0 -167 36t-132 76t-43 58l203 1004
q12 53 -25 69l-117 56l13 57l417 104l-227 -909h20q119 236 206 339q86 103 186 103t164 -81q64 -83 65 -225z" />
    <glyph glyph-name="c" unicode="c" horiz-adv-x="872" 
d="M289 358q0 -116 50 -176q51 -60 121 -61q70 0 269 135l33 -43q-186 -244 -385 -244q-147 -1 -233 97t-87 247q0 236 166 442t389 206q109 -1 183 -59q73 -58 73 -134t-39 -118q-39 -44 -93 -44t-82 32t-28 77t25 86q-23 16 -73 29t-89 14q-14 0 -38 -25
q-53 -51 -107 -198t-55 -263z" />
    <glyph glyph-name="d" unicode="d" horiz-adv-x="1081" 
d="M511 831q-44 0 -77 -32q-61 -61 -111 -213q-51 -152 -51 -252q-1 -184 105 -184q61 0 151 129q35 49 150 233l47 162q-37 61 -103 109q-67 48 -111 48zM274 -31q-98 0 -164 73q-66 74 -65 214q0 140 70 298t176 263q141 141 284 141q72 0 107 -40t57 -117h17l71 340
q12 53 -24 69l-117 56l12 57l420 104l-225 -905l-88 -393l55 -18l152 104l35 -43q-49 -82 -131 -143t-139 -61q-58 0 -127 38q-68 40 -68 66t48 164t60 174h-20q-158 -264 -207 -324q-91 -117 -189 -117z" />
    <glyph glyph-name="e" unicode="e" horiz-adv-x="864" 
d="M649 745q0 37 -55 67t-96 30t-73 -32t-77 -146t-61 -244h6q205 114 281 180t75 145zM289 322q0 -88 51 -144q50 -56 120 -57q70 0 269 135l33 -43q-186 -244 -385 -244q-150 -1 -235 97t-85 247q0 238 163 443t378 205q120 1 186 -57t66 -148q0 -54 -22 -80t-36 -42
q-50 -55 -275 -168q-92 -46 -228 -118v-26z" />
    <glyph glyph-name="f" unicode="f" horiz-adv-x="620" 
d="M963 1246q0 -66 -36 -106t-94 -40t-99 55q-40 55 -52 141l-129 -22q-49 -137 -82 -356h246l8 -117h-274l-123 -611q-84 -440 -230 -587q-100 -106 -256 -107q-86 0 -144 46t-58 110t33 98q34 35 91 35q58 0 98 -48t48 -120l108 33q35 88 80 344l123 792l-178 15l6 69
l199 64q47 229 175 357t312 128q100 0 164 -53q64 -54 64 -120z" />
    <glyph glyph-name="g" unicode="g" horiz-adv-x="954" 
d="M356 -436q128 0 202 38t75 89q0 51 -52 87t-179 77t-199 71q-150 -72 -150 -182q0 -78 88 -129q87 -51 215 -51zM639 729q0 43 -49 81q-50 38 -98 38t-70 -23q-49 -49 -81 -150t-29 -189t37 -121q34 -34 71 -33q63 0 112 53q53 51 80 151t27 193zM453 252q-68 0 -144 20
q-31 -8 -51 -34t-20 -55t38 -51t130 -52l94 -27q158 -47 238 -109t79 -178q0 -116 -147 -209t-404 -94q-184 0 -296 65t-111 177q0 87 82 149t200 93v16q-88 51 -88 135q0 137 187 195v16q-66 41 -106 110t-40 146q0 170 127 283t307 113q109 0 244 -41l258 4l-51 -185
l-242 60l-2 -21q105 -82 105 -213t-117 -222t-270 -91z" />
    <glyph glyph-name="h" unicode="h" horiz-adv-x="1089" 
d="M971 797q0 -137 -187 -668l56 -18l151 104l35 -43q-49 -82 -129 -143q-79 -61 -139 -61t-130 29q-70 30 -69 56q0 43 115 387q68 217 68 253t-29 57q-29 20 -72 20t-112 -108t-187 -357l-68 -309l-247 -2l75 307l177 840q12 53 -25 69l-117 56l13 57l417 104l-243 -1003
h22q166 364 252 450t178 86t144 -46q51 -46 51 -117z" />
    <glyph glyph-name="i" unicode="i" horiz-adv-x="573" 
d="M295 961q27 -1 77 -15t90 -36t36 -36l-205 -745l55 -18l152 104l35 -43q-49 -82 -129 -143t-138 -61t-133 32q-74 33 -67 53l196 742l-61 12l-133 -148l-41 46q45 98 118 177q74 79 148 79zM612 1266q0 -66 -42 -118t-100 -52t-95 40t-37 106t42 118q42 53 100 53t95 -41
q37 -40 37 -106z" />
    <glyph glyph-name="j" unicode="j" horiz-adv-x="546" 
d="M-350 -385q0 61 36 95t90 34t95 -43t55 -111l51 13q37 86 111 417l176 773l-69 16l-129 -150l-43 46q45 98 119 177q75 79 149 79q45 0 127 -31t76 -56l-166 -712q-98 -438 -250 -590q-111 -106 -236 -107q-82 1 -137 45t-55 105zM486 1413q58 0 95 -41q37 -40 37 -106
t-42 -118t-100 -52t-95 40t-37 106t42 118q42 53 100 53z" />
    <glyph glyph-name="k" unicode="k" horiz-adv-x="964" 
d="M657 -27q-23 -1 -63 17t-43 33l-143 428l-76 -33l-60 -422l-245 -2l75 307l177 840q12 53 -25 69l-117 56l13 57l413 104l-114 -469l-119 -464h14l395 208v25q-90 27 -90 119q0 57 43 97t107 40q63 0 109 -45t46 -107q0 -94 -68 -153t-204 -113l-94 -37l153 -383h41
l117 107l43 -43q-35 -88 -120 -162t-165 -74z" />
    <glyph glyph-name="l" unicode="l" horiz-adv-x="559" 
d="M520 172q-49 -82 -130 -143q-82 -61 -140 -61t-130 32q-72 33 -67 53l226 1088q12 53 -25 69l-117 56l13 57l409 104l-283 -1298l58 -18l149 104z" />
    <glyph glyph-name="m" unicode="m" horiz-adv-x="1669" 
d="M1159 53q-1 37 91 317t92 319q0 40 -29 61q-29 20 -72 20t-113 -108t-190 -357l-80 -309l-250 -2l103 364q86 299 86 335q0 37 -29 57t-72 20q-44 0 -112 -108t-187 -357l-67 -309l-248 -2l76 307l100 494l-59 12l-131 -148l-43 46q47 100 120 178q74 78 148 78
q47 0 123 -24t76 -50q0 -74 -113 -463h22q166 364 252 450q87 86 179 86t137 -46t45 -112t-45 -218t-49 -160h22q164 360 252 448t182 88t144 -46q51 -46 51 -117q0 -109 -94 -387q-53 -170 -95 -281l58 -18l149 104l37 -43q-49 -82 -130 -143q-80 -61 -140 -61t-128 29
q-68 30 -69 56z" />
    <glyph glyph-name="n" unicode="n" horiz-adv-x="1126" 
d="M614 53q0 43 115 387q68 217 68 253q0 37 -29 57t-72 20q-44 0 -112 -108t-187 -357l-67 -309l-248 -2l76 307l100 487l-57 15l-135 -144l-41 46q47 98 119 177q73 79 147 79q47 0 124 -24t77 -50q0 -74 -113 -463h22q166 364 252 450q87 86 179 86t143 -46t51 -130
t-94 -374l-92 -281l55 -18l152 104l34 -43q-49 -82 -129 -143t-139 -61t-129 29q-70 30 -70 56z" />
    <glyph glyph-name="o" unicode="o" horiz-adv-x="985" 
d="M696 645q0 93 -36 155t-110 62t-140 -112q-68 -112 -96 -238q-28 -125 -28 -218t38 -161q37 -68 100 -67q86 0 152 114t92 244q28 129 28 221zM920 526q0 -206 -144 -382t-350 -175q-172 0 -267 115q-95 116 -95 320t144 380q146 176 351 177q173 0 267 -115
q94 -114 94 -320z" />
    <glyph glyph-name="p" unicode="p" horiz-adv-x="1085" 
d="M555 66q37 0 70 32q70 70 123 224t53 254t-27 152t-75 52q-49 0 -113 -85t-191 -300l-45 -159q48 -66 108 -118t97 -52zM293 961q43 0 120 -34t76 -61q0 -46 -39 -160t-55 -167h21q115 229 199 325q85 96 185 96t164 -81t64 -223t-63 -292t-168 -255q-139 -139 -283 -140
q-120 1 -188 107h-13l-86 -428q-6 -37 43 -49l133 -23l9 -80h-562l7 80l96 23q41 10 51 49l256 1145l-61 14l-131 -148l-43 46q47 100 120 178q74 78 148 78z" />
    <glyph glyph-name="q" unicode="q" horiz-adv-x="1030" 
d="M511 831q-44 0 -77 -32q-61 -61 -111 -213q-51 -152 -51 -252q-1 -184 105 -184q61 0 151 129q35 49 150 233l47 162q-37 61 -103 109q-67 48 -111 48zM274 -31q-98 0 -164 73q-66 74 -65 214q0 140 70 298t176 263q141 141 280 141t183 -157h16l55 157h211l-123 -370
l-198 -940q-6 -39 43 -49l104 -23l6 -80h-555l6 80l119 23q41 10 51 49l109 461l92 301h-20q-158 -264 -207 -324q-91 -117 -189 -117z" />
    <glyph glyph-name="r" unicode="r" horiz-adv-x="923" 
d="M293 961q47 0 123 -24t76 -50q0 -45 -50 -225t-84 -279h29q33 88 107 242t108 186q49 88 90 121t110 33q68 0 114 -45t46 -117t-38 -117q-40 -45 -98 -45t-92 45q-33 45 -15 111l-37 10q-30 -25 -144 -236t-159 -309l-49 -266l-248 -2l76 307l100 494l-59 12l-131 -148
l-43 46q47 100 120 178q74 78 148 78z" />
    <glyph glyph-name="s" unicode="s" horiz-adv-x="784" 
d="M778 786q0 -59 -33 -94t-85 -35t-82 32t-29 69q0 37 12 59q-82 45 -168 51q-29 -18 -55 -56t-30 -67q-3 -29 28 -65q30 -35 46 -52t47 -45q30 -28 39 -37t34 -33t32 -31q6 -7 28 -27q22 -19 29 -29t35 -44q46 -57 46 -136q-4 -121 -119 -199t-251 -78t-224 43t-88 138
q0 57 34 92q34 34 86 34t80 -32t29 -68q0 -37 -12 -59q100 -49 194 -54q27 19 53 59t26 60q1 51 -37 92q-38 40 -106 99t-113 107q-110 117 -105 208q6 129 115 201q110 72 249 72q295 -1 295 -175z" />
    <glyph glyph-name="t" unicode="t" horiz-adv-x="677" 
d="M266 946l51 266h222l-62 -294h258l6 -117h-284l-152 -672l57 -18l150 104l37 -43q-49 -82 -130 -143t-139 -61t-133 29q-74 30 -67 50l158 737l-168 17l6 69z" />
    <glyph glyph-name="u" unicode="u" horiz-adv-x="1126" 
d="M319 961q41 0 116 -39t75 -66q0 -45 -109 -367q-65 -215 -65 -247t29 -58q29 -27 63 -26q49 0 118 106t193 359l72 313h248l-86 -307q-94 -473 -105 -504l56 -21l145 105l37 -41q-49 -84 -128 -142q-78 -58 -138 -58t-130 29q-70 30 -69 56q0 80 117 453h-23
q-172 -365 -258 -451t-178 -86t-143 50q-52 50 -52 135q0 84 77 318t104 323l-60 12l-131 -148l-43 46q45 98 120 177t148 79z" />
    <glyph glyph-name="v" unicode="v" horiz-adv-x="970" 
d="M262 961q45 0 122 -30t77 -54v-762h22l228 383q69 121 69 176t-43 93t-106 50q16 63 64 105t117 41t119 -47t50 -126t-49 -170q-49 -89 -166 -245l-264 -367l-256 -39l-19 826l-59 12l-131 -148l-41 46q45 98 119 177t147 79z" />
    <glyph glyph-name="w" unicode="w" horiz-adv-x="1499" 
d="M262 961q45 0 122 -30t77 -54l6 -762h18l289 651l-10 195l223 -41l33 -805h20l195 383q70 135 70 183t-39 86t-101 50q15 63 63 105t114 41t112 -47q47 -46 46 -113q-2 -111 -92 -257q-32 -50 -114 -171l-241 -367l-246 -39l-12 627h-17l-268 -588l-262 -39l-21 826
l-59 12l-131 -148l-41 46q45 98 119 177t147 79z" />
    <glyph glyph-name="x" unicode="x" horiz-adv-x="1044" 
d="M971 672q-117 0 -105 135l-57 10l-188 -319l137 -363h43l114 127l37 -43q-117 -248 -245 -248q-29 0 -99 30t-71 44l-74 309h-17q-156 -329 -219 -366q-31 -18 -97 -18t-116 40q-51 41 -49 105q2 65 35 105t87 40t82 -36t21 -99l56 -12q12 20 64 114t96 170l26 47
l-139 353h-45l-113 -127l-37 43q115 248 244 248q34 0 100 -25t72 -49l74 -309h12q102 238 168 312t144 73t128 -41q52 -40 50 -103t-36 -105t-83 -42z" />
    <glyph glyph-name="y" unicode="y" horiz-adv-x="974" 
d="M983 797q0 -145 -260 -482l-186 -252l-115 -229q-174 -348 -372 -348q-98 0 -156 47q-60 47 -60 111t36 99q36 36 91 36t96 -46t39 -118l37 -2l258 342l-139 41l-23 799l-59 12l-131 -148l-41 46q45 98 119 177t147 79q45 0 121 -29t78 -55l-14 -777h26l320 553v25
q-115 45 -115 133q0 63 40 107t106 45q66 0 111 -45q46 -45 46 -121z" />
    <glyph glyph-name="z" unicode="z" horiz-adv-x="874" 
d="M301 727q0 -47 -29 -76q-30 -29 -80 -32t-81 29t-31 79q0 84 78 154t198 77q152 0 215 -75q49 -58 84 -144l25 2l55 220q63 4 109 -33q46 -38 45 -102q0 -64 -53 -116t-152 -73l-414 -358q66 -25 174 -99t170 -123l33 31q-49 54 -49 104t30 78t80 31q50 2 80 -30t29 -81
q0 -88 -72 -158t-194 -79q-133 1 -208 65t-118 183l-26 -2l-58 -228q-63 -2 -109 35t-46 92q0 147 198 193l424 368q-109 39 -319 203l-33 -31q45 -57 45 -104z" />
    <glyph glyph-name="braceleft" unicode="{" horiz-adv-x="714" 
d="M219 -147q0 81 55 205q56 124 56 191t-60 103t-194 49l-23 66l23 61q129 14 191 50q63 36 63 103q0 66 -56 192q-55 126 -55 204q0 137 111 219t329 93v-78q-225 -20 -225 -178q0 -59 55 -187t55 -219q0 -92 -88 -164q-89 -72 -227 -86v-24q139 -16 227 -88t89 -163
t-55 -217t-56 -188q0 -160 225 -180v-74q-217 8 -329 90t-111 220z" />
    <glyph glyph-name="bar" unicode="|" horiz-adv-x="563" 
d="M231 -322v1797h101v-1797h-101z" />
    <glyph glyph-name="braceright" unicode="}" horiz-adv-x="714" 
d="M381 249q0 -65 55 -191t56 -205q0 -137 -111 -219t-328 -91v74q225 20 226 180q1 61 -55 187t-56 218q0 91 88 164t227 87v24q-139 14 -227 86t-88 164t55 219t56 187q0 158 -226 178v78q217 -11 328 -93t111 -219q0 -78 -56 -204q-56 -127 -55 -193q0 -66 63 -102
t193 -50l22 -61l-22 -66q-133 -12 -195 -49t-61 -103z" />
    <glyph glyph-name="asciitilde" unicode="~" horiz-adv-x="786" 
d="M548 494q32 0 58 28t60 96h84q-61 -266 -232 -268q-80 0 -180 73t-132 73t-52 -27t-58 -100h-88q62 265 232 267q80 0 178 -70q98 -72 130 -72z" />
    <glyph glyph-name="nbspace" unicode="&#xa0;" horiz-adv-x="466" 
 />
    <glyph glyph-name="exclamdown" unicode="&#xa1;" horiz-adv-x="602" 
d="M244 1166q0 58 41 100t101 43q60 0 102 -42q42 -43 42 -101t-42 -100t-102 -42t-101 42t-41 100zM238 -33h-9q-77 0 -113 33t-20 86l226 778q4 14 28 12t23 -16l-8 -790q-2 -47 -36 -75t-91 -28z" />
    <glyph glyph-name="cent" unicode="&#xa2;" horiz-adv-x="839" 
d="M289 324q0 -144 88 -189l178 686q-39 16 -88 17q-14 0 -39 -21q-49 -49 -94 -199t-45 -294zM57 319q0 238 150 438t373 204h4l88 342h96l-92 -357q76 -23 122 -72t46 -111t-38 -101t-102 -39t-96 55l-141 -553q57 10 250 131l35 -43q-160 -202 -326 -233l-80 -318h-94
l78 309q-123 11 -198 109t-75 239z" />
    <glyph glyph-name="sterling" unicode="&#xa3;" horiz-adv-x="1079" 
d="M709 -49q-61 -1 -123 25t-100 55q-39 29 -121 110q-139 -158 -363 -190l-14 96q154 33 220 112q85 103 93 365h-225l6 94h227q6 125 19 205q29 205 160 335q132 130 331 130q125 0 197 -48t72 -118t-34 -105q-34 -36 -98 -36t-97 57q-34 57 -7 133q-37 33 -90 33
q-145 0 -184 -305q-12 -110 -31 -281h293l6 -94h-314q-21 -193 -108 -307v-10q346 -115 440 -21q39 43 82 133l51 -18q1 -162 -73 -256t-215 -94z" />
    <glyph glyph-name="currency" unicode="&#xa4;" horiz-adv-x="890" 
d="M645 735q0 85 -54 145q-55 60 -145 60t-145 -60t-55 -144t55 -145t144 -61t145 60t55 145zM754 737q0 -94 -49 -178l126 -127l-81 -82l-125 125q-77 -51 -175 -51t-182 49l-114 -115l-80 80l114 115q-51 80 -51 182t49 178l-118 119l82 82l118 -119q78 51 178 51t183 -53
l112 113l80 -80l-114 -115q47 -80 47 -174z" />
    <glyph glyph-name="yen" unicode="&#xa5;" horiz-adv-x="1253" 
d="M1339 1280l-6 -82l-39 -12q-61 -16 -109 -56t-126 -149l-252 -356h303l8 -95h-354l-21 -161h367l8 -95h-383l-16 -122q-6 -41 41 -50l129 -22l6 -80h-623l7 80l133 22q47 8 53 50l16 122h-327l4 95h340l20 161h-366l6 95h331l-237 489q-27 49 -80 64l-70 20l-6 82h570
l-7 -82l-71 -12q-92 -16 0 -215l125 -307h12l215 315q74 106 80 151t-55 58l-45 10l-7 82h426z" />
    <glyph glyph-name="brokenbar" unicode="&#xa6;" horiz-adv-x="563" 
d="M231 -285v686h101v-686h-101zM231 629v686h101v-686h-101z" />
    <glyph glyph-name="section" unicode="&#xa7;" horiz-adv-x="935" 
d="M735 465q0 57 -44 104t-128 103q-186 121 -239 174q-80 -43 -80 -125q0 -57 46 -105t136 -102q20 -14 101 -68t132 -104q76 39 76 123zM895 575q0 -89 -56 -163t-143 -115q51 -57 52 -129q0 -115 -109 -206t-272 -91q-119 0 -201 45t-82 125q0 53 37 90t95 37t105 -53
q46 -53 44 -133q39 -20 91 -20t87 36q35 37 35 82t-39 87q-39 43 -75 67t-109 70q-215 136 -255 215q-20 41 -19 111t58 144t144 115q-49 59 -50 129q1 117 105 202t242 85t214 -45q77 -45 76 -121q0 -55 -38 -93t-92 -38q-56 0 -94 52t-36 134q-36 20 -92 20t-86 -34
t-29 -75q0 -42 33 -82t98 -86t97 -60q200 -124 243 -212q21 -43 21 -90z" />
    <glyph glyph-name="dieresis" unicode="&#xa8;" horiz-adv-x="819" 
d="M422 1241q0 -59 -36 -100t-97 -41t-99 41q-37 41 -36 100q0 59 36 101t98 42t98 -42t36 -101zM860 1241q0 -59 -36 -100t-97 -41t-97 41t-36 100t36 101t97 42t97 -42t36 -101z" />
    <glyph glyph-name="copyright" unicode="&#xa9;" horiz-adv-x="1572" 
d="M1090 750h-86l-56 174q-51 39 -153 39t-167 -79t-65 -228q0 -150 70 -248t190 -99q72 0 113 29l72 182h92l-25 -260l-78 16q-84 -37 -190 -36q-203 0 -307 112t-104 284q0 173 118 286q119 113 291 112q94 0 178 -30l107 28v-282zM1417 638q0 264 -185 452
q-186 188 -446 188t-445 -188t-185 -452t185 -450q185 -188 445 -188t446 187q185 188 185 451zM1501 638q0 -298 -209 -507t-506 -209q-298 0 -506 209t-208 507t209 508t505 210t506 -210q209 -210 209 -508z" />
    <glyph glyph-name="ordfeminine" unicode="&#xaa;" horiz-adv-x="788" 
d="M365 725q43 0 204 266l31 103q-104 109 -170 108q-26 0 -54 -28t-60 -132t-32 -180q0 -138 81 -137zM638 584q-40 0 -83 34t-43 54t13 58t39 109t46 132h-14q-114 -209 -184 -298t-141 -89t-113 54t-41 156q0 102 47 220q47 117 121 190q100 102 215 103q87 0 118 -115
h13l31 115l149 -9l-78 -303l-63 -288l41 -11l118 107l23 -31q-43 -72 -109 -130q-65 -58 -105 -58z" />
    <glyph glyph-name="guillemotleft" unicode="&#xab;" 
d="M496 147l-29 -43l-430 295v115l518 303l16 -43l-333 -321zM924 127l-29 -43l-436 315v115l530 324l19 -43l-373 -342z" />
    <glyph glyph-name="logicalnot" unicode="&#xac;" horiz-adv-x="983" 
d="M911 637v-438h-116v321h-723l6 117h833z" />
    <glyph glyph-name="uni00AD" unicode="&#xad;" horiz-adv-x="681" 
d="M618 440h-550l6 123h538z" />
    <glyph glyph-name="registered" unicode="&#xae;" horiz-adv-x="1572" 
d="M926 801q0 77 -48 115t-133 36l-49 -2v-291l72 -8q158 7 158 150zM696 375q0 -20 29 -29l55 -12l4 -70h-342l7 70l57 12q29 8 29 29v534q0 23 -29 29l-57 14l-7 70h365q143 0 216 -55t73 -138q0 -160 -183 -211l154 -231q23 -29 59 -43l43 -10l7 -70h-230l-45 84
l-141 236l-64 4v-213zM1417 640q0 264 -184 452q-183 188 -445 188t-447 -188t-185 -450t185 -450t446 -188t446 186q184 187 184 450zM1501 641q0 -297 -208 -506t-506 -209q-299 0 -507 209t-208 506t209 507t505 210t506 -210q209 -210 209 -507z" />
    <glyph glyph-name="macron" unicode="&#xaf;" horiz-adv-x="819" 
d="M778 1118h-608l25 119h581z" />
    <glyph glyph-name="degree" unicode="&#xb0;" horiz-adv-x="839" 
d="M318 1151q-78 -85 -78 -191t66 -168t170 -64q106 -2 182 81q76 81 78 189q0 108 -64 172t-170 66q-106 1 -184 -85zM508 1327q144 0 238 -82q94 -83 94 -231t-110 -260t-256 -111q-146 0 -238 84q-92 85 -92 231t109 258q110 112 255 111z" />
    <glyph glyph-name="plusminus" unicode="&#xb1;" horiz-adv-x="983" 
d="M551 483v-333h-117v333h-371l7 117h364v330h117v-330h362l7 -117h-369zM918 4h-852l6 117h839z" />
    <glyph glyph-name="twosuperior" unicode="&#xb2;" horiz-adv-x="675" 
d="M-18 559v82q44 37 124 96t122 93q127 103 162 177q22 46 22 98t-39 82t-86 30q-98 0 -219 -84l-15 34q49 66 143 123q94 58 196 58q104 0 170 -56t67 -147q0 -114 -151 -229q-120 -90 -322 -209v-9h86q162 0 206 4t62 23l41 57h57l-78 -223h-548z" />
    <glyph glyph-name="threesuperior" unicode="&#xb3;" horiz-adv-x="675" 
d="M233 590q70 0 111 58t41 140q0 104 -98 105q-20 0 -86 -19l-25 54q182 88 218 122t36 76t-36 65q-36 24 -85 23q-106 0 -219 -94l-14 37q72 90 166 140q94 51 186 51t158 -42t66 -104t-20 -86q-18 -24 -30 -38t-38 -29t-39 -23t-45 -20t-43 -16t-47 -16q-36 -11 -42 -13
v-13q55 18 103 19q158 0 157 -160q0 -119 -117 -199t-260 -80q-77 0 -157 35t-80 105q0 36 26 62t64 26q63 0 90 -50t23 -112q24 -4 36 -4z" />
    <glyph glyph-name="acute" unicode="&#xb4;" horiz-adv-x="817" 
d="M838 1427l-412 -372h-92l244 372h260z" />
    <glyph glyph-name="mu" unicode="&#xb5;" horiz-adv-x="1146" 
d="M748 96h-11q-49 -66 -94 -96t-113 -31q-100 0 -168 115h-10l31 -569l-260 -19l27 780l2 529q0 18 -14 24t-72 15l-41 4l-7 80h383l-12 -617q0 -88 44 -125q44 -36 138 -36t177 63v594q0 16 -16 24t-62 13l-60 4l-8 80h385v-752q0 -61 35 -74l104 -32l-6 -60l-372 -41v127
z" />
    <glyph glyph-name="mu" unicode="&#x3bc;" horiz-adv-x="1146" 
d="M748 96h-11q-49 -66 -94 -96t-113 -31q-100 0 -168 115h-10l31 -569l-260 -19l27 780l2 529q0 18 -14 24t-72 15l-41 4l-7 80h383l-12 -617q0 -88 44 -125q44 -36 138 -36t177 63v594q0 16 -16 24t-62 13l-60 4l-8 80h385v-752q0 -61 35 -74l104 -32l-6 -60l-372 -41v127
z" />
    <glyph glyph-name="paragraph" unicode="&#xb6;" horiz-adv-x="1001" 
d="M610 498q-217 0 -352 102t-135 266q0 414 557 414h287l-176 -1346h-132l78 574q-78 -10 -127 -10z" />
    <glyph glyph-name="periodcentered" unicode="&#xb7;" horiz-adv-x="475" 
d="M379 488q0 -64 -46 -112t-113 -48q-66 0 -112 47t-46 113t46 111q46 46 114 46t112 -46q45 -47 45 -111z" />
    <glyph glyph-name="cedilla" unicode="&#xb8;" horiz-adv-x="819" 
d="M379 -334q0 98 -158 98q-74 0 -143 -14l6 49l266 244h103l-174 -154q121 -4 191 -50t69 -126q-1 -115 -137 -191t-355 -85l-12 55q166 20 255 66t89 108z" />
    <glyph glyph-name="onesuperior" unicode="&#xb9;" horiz-adv-x="675" 
d="M53 559l4 70l123 14q33 2 37 29l76 522l-148 25l11 49l372 88l-98 -684q-4 -25 25 -29l88 -14l4 -70h-494z" />
    <glyph glyph-name="ordmasculine" unicode="&#xba;" horiz-adv-x="718" 
d="M588 1074q0 71 -26 115t-80 44t-103 -83t-69 -170t-19 -158q-1 -70 25 -116t81 -46t104 83q48 84 68 185q19 75 19 146zM752 990q0 -150 -104 -278t-257 -128q-125 0 -195 83t-71 233q0 150 104 279q105 128 245 128t209 -83q69 -84 69 -234z" />
    <glyph glyph-name="guillemotright" unicode="&#xbb;" 
d="M537 399l-531 -323l-18 43l370 342l-286 325l26 43l439 -315v-115zM956 399l-516 -303l-18 43l336 322l-258 305l30 43l426 -295v-115z" />
    <glyph glyph-name="onequarter" unicode="&#xbc;" horiz-adv-x="1464" 
d="M94 559l4 70l123 14q33 2 37 29l76 522l-148 25l11 49l372 88l-98 -684q-4 -25 25 -29l88 -14l4 -70h-494zM35 -238l1294 1518h123l-1294 -1518h-123zM850 -2h252l51 311h-14zM1059 -293l35 209h-334l-6 70l485 522l127 -37l-74 -473h133l-18 -82h-123l-35 -209h-190z
" />
    <glyph glyph-name="onehalf" unicode="&#xbd;" horiz-adv-x="1464" 
d="M729 -293v82q45 37 125 96t122 93q127 103 162 177q22 46 22 98t-40 82q-39 30 -86 30q-98 0 -219 -84l-14 34q49 66 142 123q93 58 197 58t170 -56t66 -147q0 -115 -137 -217q-137 -103 -336 -221v-9h86q162 0 206 4t62 23l41 57h58l-78 -223h-549zM94 559l4 70l123 14
q33 2 37 29l76 522l-148 25l11 49l372 88l-98 -684q-4 -25 25 -29l88 -14l4 -70h-494zM35 -238l1294 1518h123l-1294 -1518h-123z" />
    <glyph glyph-name="threequarters" unicode="&#xbe;" horiz-adv-x="1464" 
d="M274 590q70 0 111 58t41 140q0 104 -98 105q-20 0 -86 -19l-25 54q182 88 218 122t36 76t-36 65q-36 24 -85 23q-106 0 -219 -94l-14 37q72 90 166 140q94 51 186 51t158 -42q65 -42 65 -104t-19 -86t-31 -38t-37 -29q-26 -15 -39 -23t-45 -20t-43 -16t-47 -16
q-36 -11 -42 -13v-13q55 18 103 19q158 0 157 -160q0 -119 -117 -199t-260 -80q-78 0 -158 35t-79 105q1 36 27 62t63 26q63 0 90 -50t23 -112q24 -4 36 -4zM35 -238l1294 1518h123l-1294 -1518h-123zM850 -2h252l51 311h-14zM1059 -293l35 209h-334l-6 70l485 522l127 -37
l-74 -473h133l-18 -82h-123l-35 -209h-190z" />
    <glyph glyph-name="questiondown" unicode="&#xbf;" horiz-adv-x="794" 
d="M641 696q0 -113 -98 -172q-75 -44 -205 -83q-132 -38 -154 -57t-22 -40q0 -59 87 -104t210 -45q61 0 131 12q31 -33 31 -91q1 -58 -53 -99q-54 -42 -150 -42q-160 -1 -276 107t-117 258q0 150 94 219q73 54 195 93q122 38 149 62t26 58q0 66 -67 129l100 -2
q47 -33 83 -89t36 -114zM418 1172q0 58 40 100t100 43q60 0 102 -42q42 -43 42 -101t-42 -100t-101 -42t-100 42t-41 100z" />
    <glyph glyph-name="Agrave" unicode="&#xc0;" horiz-adv-x="1269" 
d="M821 1397h-94l-309 372h260zM717 526l-84 527h-17l-227 -527h328zM1227 0h-604l6 84l80 12q53 8 62 42t-9 116l-29 172h-385l-35 -94q-88 -209 23 -232l74 -16l6 -84h-486l7 84l57 18q66 18 102 62t119 221l356 786v78l273 62l221 -1125q7 -39 23 -57t55 -27l78 -18z" />
    <glyph glyph-name="Aacute" unicode="&#xc1;" horiz-adv-x="1269" 
d="M1114 1769l-412 -372h-92l244 372h260zM717 526l-84 527h-17l-227 -527h328zM1227 0h-604l6 84l80 12q53 8 62 42t-9 116l-29 172h-385l-35 -94q-88 -209 23 -232l74 -16l6 -84h-486l7 84l57 18q66 18 102 62t119 221l356 786v78l273 62l221 -1125q7 -39 23 -57t55 -27
l78 -18z" />
    <glyph glyph-name="Acircumflex" unicode="&#xc2;" horiz-adv-x="1269" 
d="M717 526l-84 527h-17l-227 -527h328zM1016 1397h-94l-177 245h-4l-241 -245h-94l233 372h242zM1227 0h-604l6 84l80 12q53 8 62 42t-9 116l-29 172h-385l-35 -94q-88 -209 23 -232l74 -16l6 -84h-486l7 84l57 18q66 18 102 62t119 221l356 786v78l273 62l221 -1125
q7 -39 23 -57t55 -27l78 -18z" />
    <glyph glyph-name="Atilde" unicode="&#xc3;" horiz-adv-x="1269" 
d="M717 526l-84 527h-17l-227 -527h328zM568 1559q-32 0 -52 -27t-57 -100h-88q63 276 245 276q68 0 165 -72t129 -72t58 28t60 98h86q-66 -276 -248 -277q-68 0 -167 73t-131 73zM1227 0h-604l6 84l80 12q53 8 62 42t-9 116l-29 172h-385l-35 -94q-88 -209 23 -232l74 -16
l6 -84h-486l7 84l57 18q66 18 102 62t119 221l356 786v78l273 62l221 -1125q7 -39 23 -57t55 -27l78 -18z" />
    <glyph glyph-name="Adieresis" unicode="&#xc4;" horiz-adv-x="1269" 
d="M1085 1583q1 -59 -35 -100t-98 -41t-97 41q-36 41 -36 100t36 101t97 42t97 -42t36 -101zM647 1583q0 -59 -36 -100t-97 -41t-98 41t-37 100t37 101t98 42t97 -42t36 -101zM717 526l-84 527h-17l-227 -527h328zM1227 0h-604l6 84l80 12q53 8 62 42t-9 116l-29 172h-385
l-35 -94q-88 -209 23 -232l74 -16l6 -84h-486l7 84l57 18q66 18 102 62t119 221l356 786v78l273 62l221 -1125q7 -39 23 -57t55 -27l78 -18z" />
    <glyph glyph-name="Aring" unicode="&#xc5;" horiz-adv-x="1269" 
d="M874 1417q0 57 -35 99q-35 40 -95 40t-96 -40t-36 -98t36 -98t95 -40t96 40q35 40 35 97zM715 520l-78 533h-21l-227 -533h326zM743 1622q89 0 145 -59t56 -146q0 -117 -86 -170l207 -1061q12 -70 78 -84l78 -18l6 -84h-604l6 84l80 12q53 8 62 42t-9 116l-29 172h-385
l-35 -94q-88 -209 23 -232l74 -16l6 -84h-486l7 84l57 18q66 16 100 62t121 221l395 875q-70 59 -68 151q2 91 57 151q54 60 144 60z" />
    <glyph glyph-name="AE" unicode="&#xc6;" horiz-adv-x="1792" 
d="M768 549l86 645h-14l-412 -645h340zM219 169q0 -58 62 -69l71 -16l6 -84h-483l6 84l58 18q63 18 108 64t143 199l449 706q57 92 -35 109l-96 20l-2 80h1284l-55 -422h-142l-22 170q-10 80 -50 120t-339 40h-64l-69 -496h22q92 0 133 12t62 54l69 139h105l-113 -496h-104
l2 131q2 40 -32 54t-142 14h-15l-67 -508h71q178 0 256 11t120 42t77 107l70 151h147l-94 -403h-1071l12 80l105 22q47 10 53 50l41 303h-387l-64 -103q-86 -125 -86 -183z" />
    <glyph glyph-name="Ccedilla" unicode="&#xc7;" horiz-adv-x="1331" 
d="M100 545q0 147 62 291t172 254q219 219 518 219q178 0 309 -52l176 48l-61 -457h-141l-48 295q-92 66 -215 65q-196 0 -334 -200t-138 -470q0 -268 126 -391q80 -79 196 -79t212 49l143 305h156l-96 -422l-123 25q-137 -51 -289 -58l-88 -78q121 -4 191 -50t69 -126
q0 -115 -136 -191t-355 -85l-13 55q166 20 255 66t89 108q0 98 -157 98q-74 0 -144 -14l6 49l187 170q-260 20 -395 173q-134 153 -134 403z" />
    <glyph glyph-name="Egrave" unicode="&#xc8;" horiz-adv-x="1284" 
d="M559 692q92 0 133 12t62 54l69 139h105l-113 -496h-104l2 131q2 40 -32 54t-142 14h-31l-68 -508h88q178 0 256 11t120 42t77 107l70 151h147l-94 -403h-1090l9 82l100 22q47 10 53 50l133 972q6 39 -41 50l-94 22l-4 82h1108l-55 -422h-142l-22 170q-10 80 -50 120
t-339 40h-80l-70 -496h39zM860 1397h-94l-309 372h260z" />
    <glyph glyph-name="Eacute" unicode="&#xc9;" horiz-adv-x="1284" 
d="M559 692q92 0 133 12t62 54l69 139h105l-113 -496h-104l2 131q2 40 -32 54t-142 14h-31l-68 -508h88q178 0 256 11t120 42t77 107l70 151h147l-94 -403h-1090l9 82l100 22q47 10 53 50l133 972q6 39 -41 50l-94 22l-4 82h1108l-55 -422h-142l-22 170q-10 80 -50 120
t-339 40h-80l-70 -496h39zM1122 1769l-411 -372h-93l244 372h260z" />
    <glyph glyph-name="Ecircumflex" unicode="&#xca;" horiz-adv-x="1284" 
d="M559 692q92 0 133 12t62 54l69 139h105l-113 -496h-104l2 131q2 40 -32 54t-142 14h-31l-68 -508h88q178 0 256 11t120 42t77 107l70 151h147l-94 -403h-1090l9 82l100 22q47 10 53 50l133 972q6 39 -41 50l-94 22l-4 82h1108l-55 -422h-142l-22 170q-10 80 -50 120
t-339 40h-80l-70 -496h39zM1034 1397h-94l-176 245h-4l-242 -245h-94l233 372h242z" />
    <glyph glyph-name="Edieresis" unicode="&#xcb;" horiz-adv-x="1284" 
d="M559 692q92 0 133 12t62 54l69 139h105l-113 -496h-104l2 131q2 40 -32 54t-142 14h-31l-68 -508h88q178 0 256 11t120 42t77 107l70 151h147l-94 -403h-1090l9 82l100 22q47 10 53 50l133 972q6 39 -41 50l-94 22l-4 82h1108l-55 -422h-142l-22 170q-10 80 -50 120
t-339 40h-80l-70 -496h39zM676 1583q0 -59 -36 -100t-97 -41t-99 41q-37 41 -36 100q0 59 36 101t98 42t98 -42t36 -101zM1114 1583q0 -59 -36 -100t-97 -41t-97 41t-36 100t36 101t97 42t97 -42t36 -101z" />
    <glyph glyph-name="Igrave" unicode="&#xcc;" horiz-adv-x="763" 
d="M635 0h-617l7 82l120 22q47 10 54 50l133 972q6 41 -41 50l-115 22l-6 82h614l-6 -82l-123 -22q-47 -10 -53 -50l-131 -972q-6 -37 41 -50l115 -22zM569 1397h-94l-309 372h260z" />
    <glyph glyph-name="Iacute" unicode="&#xcd;" horiz-adv-x="763" 
d="M635 0h-617l7 82l120 22q47 10 54 50l133 972q6 41 -41 50l-115 22l-6 82h614l-6 -82l-123 -22q-47 -10 -53 -50l-131 -972q-6 -37 41 -50l115 -22zM944 1769l-412 -372h-92l244 372h260z" />
    <glyph glyph-name="Icircumflex" unicode="&#xce;" horiz-adv-x="763" 
d="M635 0h-617l7 82l120 22q47 10 54 50l133 972q6 41 -41 50l-115 22l-6 82h614l-6 -82l-123 -22q-47 -10 -53 -50l-131 -972q-6 -37 41 -50l115 -22zM791 1397h-95l-176 245h-4l-242 -245h-94l234 372h241z" />
    <glyph glyph-name="Idieresis" unicode="&#xcf;" horiz-adv-x="763" 
d="M635 0h-617l7 82l120 22q47 10 54 50l133 972q6 41 -41 50l-115 22l-6 82h614l-6 -82l-123 -22q-47 -10 -53 -50l-131 -972q-6 -37 41 -50l115 -22zM418 1583q0 -59 -36 -100t-97 -41t-99 41q-37 41 -36 100q0 59 36 101t98 42t98 -42t36 -101zM856 1583q0 -59 -36 -100
t-97 -41t-97 41t-36 100t36 101t97 42t97 -42t36 -101z" />
    <glyph glyph-name="Eth" unicode="&#xd0;" horiz-adv-x="1404" 
d="M1065 717q0 219 -96 344t-299 125h-82l-66 -492h226l6 -94h-246l-16 -121q-14 -119 -31 -237l-17 -119l138 -31q211 10 347 174t136 451zM1360 715q0 -289 -209 -498q-98 -97 -259 -157t-351 -60h-527l9 82l100 22q47 10 53 50l60 446h-146l6 94h152l59 432q6 39 -41 50
l-92 22l-6 82l545 2q305 0 476 -156t171 -411z" />
    <glyph glyph-name="Ntilde" unicode="&#xd1;" horiz-adv-x="1464" 
d="M1518 1280l-7 -82l-98 -20q-51 -10 -79 -87t-60 -321l-109 -786h-198l-537 1042h-14l-70 -516q-35 -252 -31 -325t54 -83l106 -20l6 -82h-489l6 82l98 20q51 10 78 87t59 321l76 549q6 53 -3 80t-46 37l-88 22l-4 82h428l487 -952h17l59 442q35 256 32 327t-50 81
l-111 20l-6 82h494zM656 1559q-32 0 -52 -27t-57 -100h-88q63 276 246 276q69 0 165 -72t128 -72t58 28t60 98h86q-66 -276 -248 -277q-68 0 -167 73t-131 73z" />
    <glyph glyph-name="Ograve" unicode="&#xd2;" horiz-adv-x="1464" 
d="M1112 774q0 242 -106 354q-84 78 -200 78t-199 -76q-135 -124 -193 -419q-23 -113 -23 -211q0 -242 109 -348q80 -80 197 -80t199 76q137 126 195 417q21 113 21 209zM1405 713q0 -317 -227 -549q-188 -195 -464 -195t-446 167t-170 427q0 305 203 524t504 220
q262 0 431 -167t169 -427zM909 1397h-94l-309 372h260z" />
    <glyph glyph-name="Oacute" unicode="&#xd3;" horiz-adv-x="1464" 
d="M1112 774q0 242 -106 354q-84 78 -200 78t-199 -76q-135 -124 -193 -419q-23 -113 -23 -211q0 -242 109 -348q80 -80 197 -80t199 76q137 126 195 417q21 113 21 209zM1405 713q0 -317 -227 -549q-188 -195 -464 -195t-446 167t-170 427q0 305 203 524t504 220
q262 0 431 -167t169 -427zM1223 1769l-412 -372h-92l244 372h260z" />
    <glyph glyph-name="Ocircumflex" unicode="&#xd4;" horiz-adv-x="1464" 
d="M1112 774q0 242 -106 354q-84 78 -200 78t-199 -76q-135 -124 -193 -419q-23 -113 -23 -211q0 -242 109 -348q80 -80 197 -80t199 76q137 126 195 417q21 113 21 209zM1405 713q0 -317 -227 -549q-188 -195 -464 -195t-446 167t-170 427q0 305 203 524t504 220
q262 0 431 -167t169 -427zM1153 1397h-94l-176 245h-4l-242 -245h-94l233 372h242z" />
    <glyph glyph-name="Otilde" unicode="&#xd5;" horiz-adv-x="1464" 
d="M1112 774q0 242 -106 354q-84 78 -200 78t-199 -76q-135 -124 -193 -419q-23 -113 -23 -211q0 -242 109 -348q80 -80 197 -80t199 76q137 126 195 417q21 113 21 209zM1405 713q0 -317 -227 -549q-188 -195 -464 -195t-446 167t-170 427q0 305 203 524t504 220
q262 0 431 -167t169 -427zM675 1559q-32 0 -52 -27t-58 -100h-88q63 276 246 276q68 0 165 -72t129 -72q31 0 57 28t61 98h86q-66 -276 -248 -277q-68 0 -167 73t-131 73z" />
    <glyph glyph-name="Odieresis" unicode="&#xd6;" horiz-adv-x="1464" 
d="M1112 774q0 242 -106 354q-84 78 -200 78t-199 -76q-135 -124 -193 -419q-23 -113 -23 -211q0 -242 109 -348q80 -80 197 -80t199 76q137 126 195 417q21 113 21 209zM1405 713q0 -317 -227 -549q-188 -195 -464 -195t-446 167t-170 427q0 305 203 524t504 220
q262 0 431 -167t169 -427zM764 1583q0 -59 -36 -100t-97 -41t-99 41q-37 41 -36 100q0 59 36 101t98 42t98 -42t36 -101zM1202 1583q0 -59 -36 -100t-97 -41t-97 41t-36 100t36 101t97 42t97 -42t36 -101z" />
    <glyph glyph-name="multiply" unicode="&#xd7;" horiz-adv-x="983" 
d="M915 823l-342 -342l342 -342l-81 -82l-342 340l-342 -340l-82 82l342 342l-342 342l82 82l342 -342l342 342z" />
    <glyph glyph-name="Oslash" unicode="&#xd8;" horiz-adv-x="1464" 
d="M1061 1065l-539 -926q88 -73 186 -73q247 1 364 358q58 178 58 353t-69 288zM399 500q0 -182 70 -291l539 928q-70 75 -188 75t-202 -76q-138 -126 -196 -424q-23 -114 -23 -212zM713 -31q-147 0 -258 51l-101 -172h-94l121 209q-127 78 -199 210t-69 296q0 307 192 516
q211 227 512 228q139 0 258 -52l90 154h97q-113 -190 -113 -192q127 -76 199 -208t69 -296q0 -317 -227 -549q-188 -195 -477 -195z" />
    <glyph glyph-name="Ugrave" unicode="&#xd9;" horiz-adv-x="1449" 
d="M682 -43q-219 0 -352 106t-133 310q0 61 6 112l88 641q6 39 -41 50l-92 22l-6 82h573l-6 -82l-103 -22q-47 -12 -53 -50l-88 -641q-10 -88 -10 -123q0 -128 81 -200t222 -72t229 85t117 282l45 313q35 254 31 326t-53 82l-107 20l-6 82h492l-7 -82l-98 -20
q-51 -10 -78 -86t-61 -322l-49 -348q-35 -231 -179 -348t-362 -117zM965 1397h-95l-309 372h260z" />
    <glyph glyph-name="Uacute" unicode="&#xda;" horiz-adv-x="1449" 
d="M682 -43q-219 0 -352 106t-133 310q0 61 6 112l88 641q6 39 -41 50l-92 22l-6 82h573l-6 -82l-103 -22q-47 -12 -53 -50l-88 -641q-10 -88 -10 -123q0 -128 81 -200t222 -72t229 85t117 282l45 313q35 254 31 326t-53 82l-107 20l-6 82h492l-7 -82l-98 -20
q-51 -10 -78 -86t-61 -322l-49 -348q-35 -231 -179 -348t-362 -117zM1288 1769l-411 -372h-93l244 372h260z" />
    <glyph glyph-name="Ucircumflex" unicode="&#xdb;" horiz-adv-x="1449" 
d="M682 -43q-219 0 -352 106t-133 310q0 61 6 112l88 641q6 39 -41 50l-92 22l-6 82h573l-6 -82l-103 -22q-47 -12 -53 -50l-88 -641q-10 -88 -10 -123q0 -128 81 -200t222 -72t229 85t117 282l45 313q35 254 31 326t-53 82l-107 20l-6 82h492l-7 -82l-98 -20
q-51 -10 -78 -86t-61 -322l-49 -348q-35 -231 -179 -348t-362 -117zM1176 1397h-95l-176 245h-4l-242 -245h-94l234 372h241z" />
    <glyph glyph-name="Udieresis" unicode="&#xdc;" horiz-adv-x="1449" 
d="M682 -43q-219 0 -352 106t-133 310q0 61 6 112l88 641q6 39 -41 50l-92 22l-6 82h573l-6 -82l-103 -22q-47 -12 -53 -50l-88 -641q-10 -88 -10 -123q0 -128 81 -200t222 -72t229 85t117 282l45 313q35 254 31 326t-53 82l-107 20l-6 82h492l-7 -82l-98 -20
q-51 -10 -78 -86t-61 -322l-49 -348q-35 -231 -179 -348t-362 -117zM758 1583q0 -59 -36 -100t-97 -41t-99 41q-37 41 -37 100t37 101q36 42 98 42t98 -42t36 -101zM1196 1583q0 -59 -36 -100t-97 -41t-97 41t-36 100t36 101t97 42t97 -42t36 -101z" />
    <glyph glyph-name="Yacute" unicode="&#xdd;" horiz-adv-x="1222" 
d="M1348 1280l-7 -84l-49 -14q-61 -16 -108 -56t-131 -159l-295 -428l-49 -385q-6 -41 41 -50l120 -22l-2 -82h-628l12 82l131 22q45 6 53 50l49 372l-249 543q-27 51 -50 74t-59 33l-61 20l-7 84h588l-6 -84l-82 -12q-53 -8 -54 -56t42 -145l145 -356h17l235 354
q66 96 68 142t-62 59l-73 14l-7 84h478zM1174 1769l-412 -372h-92l243 372h261z" />
    <glyph glyph-name="Thorn" unicode="&#xde;" horiz-adv-x="1204" 
d="M885 648q0 136 -77 214t-192 78h-59l-80 -586q49 -12 98 -12q139 0 225 85q85 85 85 221zM1163 659q0 -179 -161 -291t-400 -112q-51 0 -137 8l-16 -110q-6 -43 40 -50l127 -22l5 -82h-607l9 82l100 22q47 10 53 50l133 972q6 39 -41 50l-92 22l-6 82h573l-6 -82
l-102 -22q-47 -12 -53 -50l-13 -96h111q219 0 351 -96t132 -275z" />
    <glyph glyph-name="germandbls" unicode="&#xdf;" horiz-adv-x="1165" 
d="M680 -31q-102 -1 -174 55t-72 133t42 119t105 43q63 0 95 -45t20 -101q-14 -56 -65 -89q18 -18 63 -18q74 0 128 63t54 184t-77 261q-78 140 -228 243l9 70q139 4 220 74t81 188q0 76 -40 125t-108 49q-98 0 -153 -94t-99 -311l-143 -725q-88 -449 -229 -592
q-104 -104 -259 -105q-84 0 -142 45t-58 109t34 99q34 36 91 36t97 -49t46 -121l111 35q33 82 80 344l118 794l-172 13l6 71l195 62q53 242 181 364q127 122 305 123q178 0 270 -84q92 -83 92 -201t-80 -188t-221 -92q125 -82 204 -201t79 -275t-120 -284
q-120 -127 -286 -127z" />
    <glyph glyph-name="agrave" unicode="&#xe0;" horiz-adv-x="1081" 
d="M511 831q-44 0 -77 -32q-61 -61 -111 -213q-51 -152 -51 -252q-1 -184 105 -184q61 0 151 129q35 49 150 233l47 162q-37 61 -103 109q-67 48 -111 48zM274 -31q-98 0 -164 73q-66 74 -65 214q0 140 70 298t176 263q141 141 281 141t182 -157h16l55 157h211l-123 -370
l-108 -459l55 -18l152 104l35 -43q-49 -82 -131 -143t-140 -61q-59 0 -130 28q-71 29 -71 57q1 28 53 176t62 181h-20q-158 -264 -207 -324q-91 -117 -189 -117zM758 1055h-94l-310 372h260z" />
    <glyph glyph-name="aacute" unicode="&#xe1;" horiz-adv-x="1081" 
d="M511 831q-44 0 -77 -32q-61 -61 -111 -213q-51 -152 -51 -252q-1 -184 105 -184q61 0 151 129q35 49 150 233l47 162q-37 61 -103 109q-67 48 -111 48zM274 -31q-98 0 -164 73q-66 74 -65 214q0 140 70 298t176 263q141 141 281 141t182 -157h16l55 157h211l-123 -370
l-108 -459l55 -18l152 104l35 -43q-49 -82 -131 -143t-140 -61q-59 0 -130 28q-71 29 -71 57q1 28 53 176t62 181h-20q-158 -264 -207 -324q-91 -117 -189 -117zM1020 1427l-412 -372h-92l244 372h260z" />
    <glyph glyph-name="acircumflex" unicode="&#xe2;" horiz-adv-x="1081" 
d="M511 831q-44 0 -77 -32q-61 -61 -111 -213q-51 -152 -51 -252q-1 -184 105 -184q61 0 151 129q35 49 150 233l47 162q-37 61 -103 109q-67 48 -111 48zM274 -31q-98 0 -164 73q-66 74 -65 214q0 140 70 298t176 263q141 141 281 141t182 -157h16l55 157h211l-123 -370
l-108 -459l55 -18l152 104l35 -43q-49 -82 -131 -143t-140 -61q-59 0 -130 28q-71 29 -71 57q1 28 53 176t62 181h-20q-158 -264 -207 -324q-91 -117 -189 -117zM946 1055h-94l-176 245h-4l-242 -245h-94l233 372h242z" />
    <glyph glyph-name="atilde" unicode="&#xe3;" horiz-adv-x="1081" 
d="M511 831q-44 0 -77 -32q-61 -61 -111 -213q-51 -152 -51 -252q-1 -184 105 -184q61 0 151 129q35 49 150 233l47 162q-37 61 -103 109q-67 48 -111 48zM274 -31q-98 0 -164 73q-66 74 -65 214q0 140 70 298t176 263q141 141 281 141t182 -157h16l55 157h211l-123 -370
l-108 -459l55 -18l152 104l35 -43q-49 -82 -131 -143t-140 -61q-59 0 -130 28q-71 29 -71 57q1 28 53 176t62 181h-20q-158 -264 -207 -324q-91 -117 -189 -117zM478 1217q-32 0 -52 -27t-57 -100h-88q63 276 245 276q68 0 165 -72t129 -72t58 28t60 98h86
q-66 -276 -248 -277q-68 0 -167 73t-131 73z" />
    <glyph glyph-name="adieresis" unicode="&#xe4;" horiz-adv-x="1081" 
d="M511 831q-44 0 -77 -32q-61 -61 -111 -213q-51 -152 -51 -252q-1 -184 105 -184q61 0 151 129q35 49 150 233l47 162q-37 61 -103 109q-67 48 -111 48zM274 -31q-98 0 -164 73q-66 74 -65 214q0 140 70 298t176 263q141 141 281 141t182 -157h16l55 157h211l-123 -370
l-108 -459l55 -18l152 104l35 -43q-49 -82 -131 -143t-140 -61q-59 0 -130 28q-71 29 -71 57q1 28 53 176t62 181h-20q-158 -264 -207 -324q-91 -117 -189 -117zM573 1241q1 -59 -35 -100t-98 -41t-98 41q-37 41 -37 100t37 101t98 42t97 -42t36 -101zM1012 1241
q0 -59 -36 -100t-97 -41t-98 41q-36 41 -36 100t36 101q35 42 97 42t98 -42t36 -101z" />
    <glyph glyph-name="aring" unicode="&#xe5;" horiz-adv-x="1081" 
d="M511 831q-44 0 -77 -32q-61 -61 -111 -213q-51 -152 -51 -252q-1 -184 105 -184q61 0 151 129q35 49 150 233l47 162q-37 61 -103 109q-67 48 -111 48zM811 1255q0 57 -36 99t-95 41q-59 0 -95 -41q-36 -40 -36 -98t36 -98t95 -40t95 40t36 97zM274 -31q-98 0 -164 73
q-66 74 -65 214q0 140 70 298t176 263q141 141 281 141t182 -157h16l55 157h211l-123 -370l-108 -459l55 -18l152 104l35 -43q-49 -82 -131 -143t-140 -61q-59 0 -130 28q-71 29 -71 57q1 28 53 176t62 181h-20q-158 -264 -207 -324q-91 -117 -189 -117zM881 1255
q1 -86 -55 -145t-147 -59t-148 59q-56 59 -54 145q1 85 57 145t146 60t146 -60t55 -145z" />
    <glyph glyph-name="ae" unicode="&#xe6;" horiz-adv-x="1415" 
d="M1198 745q0 37 -54 67t-95 30t-73 -32t-78 -146t-62 -244h8q202 114 278 180t76 145zM499 831q-45 0 -77 -32q-62 -61 -106 -201t-44 -242q0 -100 26 -150t58 -50q64 0 125 88q60 88 115 186q55 99 76 133q27 53 47 84q-37 76 -106 130t-114 54zM1149 961q117 1 185 -57
t67 -148q1 -54 -21 -80t-52 -57q-40 -42 -196 -121q-156 -78 -292 -150v-26q0 -88 50 -144t120 -57q70 0 270 135l33 -43q-88 -113 -179 -179t-221 -65q-130 0 -217 94q-86 94 -90 240v14q-98 -166 -180 -257t-170 -91t-150 81q-61 82 -61 224t65 289t171 254
q141 141 284 141q79 0 129 -64t66 -169q170 236 389 236z" />
    <glyph glyph-name="ccedilla" unicode="&#xe7;" horiz-adv-x="872" 
d="M57 313q0 236 166 442t389 206q109 -1 183 -59q73 -58 73 -134t-39 -118q-39 -44 -93 -44t-82 32t-28 77t25 86q-23 16 -73 29t-89 14q-14 0 -38 -25q-53 -51 -107 -198t-55 -263q0 -116 50 -176q51 -60 121 -61q70 0 269 135l33 -43q-160 -211 -328 -240l-96 -84
q120 -4 190 -50t70 -126q0 -115 -136 -191t-356 -85l-12 55q166 20 255 66t89 108q0 98 -157 98q-74 0 -144 -14l6 49l189 172q-127 13 -201 109t-74 233z" />
    <glyph glyph-name="egrave" unicode="&#xe8;" horiz-adv-x="864" 
d="M682 1055h-94l-309 372h260zM649 745q0 37 -55 67t-96 30t-73 -32t-77 -146t-61 -244h6q205 114 281 180t75 145zM289 322q0 -88 51 -144q50 -56 120 -57q70 0 269 135l33 -43q-186 -244 -385 -244q-150 -1 -235 97t-85 247q0 238 163 443t378 205q120 1 186 -57t66 -148
q0 -54 -22 -80t-36 -42q-50 -55 -275 -168q-92 -46 -228 -118v-26z" />
    <glyph glyph-name="eacute" unicode="&#xe9;" horiz-adv-x="864" 
d="M954 1427l-411 -372h-92l243 372h260zM649 745q0 37 -55 67t-96 30t-73 -32t-77 -146t-61 -244h6q205 114 281 180t75 145zM289 322q0 -88 51 -144q50 -56 120 -57q70 0 269 135l33 -43q-186 -244 -385 -244q-150 -1 -235 97t-85 247q0 238 163 443t378 205
q120 1 186 -57t66 -148q0 -54 -22 -80t-36 -42q-50 -55 -275 -168q-92 -46 -228 -118v-26z" />
    <glyph glyph-name="ecircumflex" unicode="&#xea;" horiz-adv-x="864" 
d="M649 745q0 37 -55 67t-96 30t-73 -32t-77 -146t-61 -244h6q205 114 281 180t75 145zM854 1055h-94l-176 245h-4l-242 -245h-94l233 372h242zM289 322q0 -88 51 -144q50 -56 120 -57q70 0 269 135l33 -43q-186 -244 -385 -244q-150 -1 -235 97t-85 247q0 238 163 443
t378 205q120 1 186 -57t66 -148q0 -54 -22 -80t-36 -42q-50 -55 -275 -168q-92 -46 -228 -118v-26z" />
    <glyph glyph-name="edieresis" unicode="&#xeb;" horiz-adv-x="864" 
d="M934 1241q0 -59 -36 -100t-97 -41t-98 41q-36 41 -35 100q0 59 35 101t97 42t98 -42t36 -101zM496 1241q0 -59 -36 -100t-98 -41t-98 41q-37 41 -37 100t37 101t98 42q62 0 98 -42t36 -101zM649 745q0 37 -55 67t-96 30t-73 -32t-77 -146t-61 -244h6q205 114 281 180
t75 145zM289 322q0 -88 51 -144q50 -56 120 -57q70 0 269 135l33 -43q-186 -244 -385 -244q-150 -1 -235 97t-85 247q0 238 163 443t378 205q120 1 186 -57t66 -148q0 -54 -22 -80t-36 -42q-50 -55 -275 -168q-92 -46 -228 -118v-26z" />
    <glyph glyph-name="igrave" unicode="&#xec;" horiz-adv-x="573" 
d="M295 961q27 -1 77 -15t90 -36t36 -36l-205 -745l55 -18l152 104l35 -43q-49 -82 -129 -143t-138 -61t-133 32q-74 33 -67 53l196 742l-61 12l-133 -148l-41 46q45 98 118 177q74 79 148 79zM473 1055h-94l-309 372h260z" />
    <glyph glyph-name="iacute" unicode="&#xed;" horiz-adv-x="573" 
d="M295 961q27 -1 77 -15t90 -36t36 -36l-205 -745l55 -18l152 104l35 -43q-49 -82 -129 -143t-138 -61t-133 32q-74 33 -67 53l196 742l-61 12l-133 -148l-41 46q45 98 118 177q74 79 148 79zM725 1427l-412 -372h-92l244 372h260z" />
    <glyph glyph-name="icircumflex" unicode="&#xee;" horiz-adv-x="573" 
d="M295 961q27 -1 77 -15t90 -36t36 -36l-205 -745l55 -18l152 104l35 -43q-49 -82 -129 -143t-138 -61t-133 32q-74 33 -67 53l196 742l-61 12l-133 -148l-41 46q45 98 118 177q74 79 148 79zM668 1055h-95l-176 245h-4l-241 -245h-95l234 372h241z" />
    <glyph glyph-name="idieresis" unicode="&#xef;" horiz-adv-x="573" 
d="M295 961q27 -1 77 -15t90 -36t36 -36l-205 -745l55 -18l152 104l35 -43q-49 -82 -129 -143t-138 -61t-133 32q-74 33 -67 53l196 742l-61 12l-133 -148l-41 46q45 98 118 177q74 79 148 79zM309 1241q0 -59 -36 -100t-97 -41t-98 41t-37 100t37 101t98 42t97 -42t36 -101
zM748 1241q0 -59 -36 -100t-98 -41t-97 41q-36 41 -36 100t36 101t97 42q62 0 98 -42t36 -101z" />
    <glyph glyph-name="eth" unicode="&#xf0;" horiz-adv-x="985" 
d="M550 862q-74 0 -140 -112q-68 -112 -96 -238q-28 -125 -28 -218t38 -161q37 -68 100 -67q86 0 152 114t96 254q53 254 -12 366q-36 62 -110 62zM426 -31q-172 0 -267 115q-95 116 -95 320t140 380t335 177q121 0 178 -93q-23 164 -123 275l-313 -80l22 98l215 53
q-70 55 -184 101l49 80q162 -49 285 -144l276 70l-22 -96l-170 -45q196 -197 198 -489t-154 -507t-370 -215z" />
    <glyph glyph-name="ntilde" unicode="&#xf1;" horiz-adv-x="1126" 
d="M476 1217q-32 0 -52 -27t-57 -100h-88q63 276 245 276q68 0 165 -72t129 -72t58 28t60 98h86q-66 -276 -248 -277q-68 0 -167 73t-131 73zM614 53q0 43 115 387q68 217 68 253q0 37 -29 57t-72 20q-44 0 -112 -108t-187 -357l-67 -309l-248 -2l76 307l100 487l-57 15
l-135 -144l-41 46q47 98 119 177q73 79 147 79q47 0 124 -24t77 -50q0 -74 -113 -463h22q166 364 252 450q87 86 179 86t143 -46t51 -130t-94 -374l-92 -281l55 -18l152 104l34 -43q-49 -82 -129 -143t-139 -61t-129 29q-70 30 -70 56z" />
    <glyph glyph-name="ograve" unicode="&#xf2;" horiz-adv-x="985" 
d="M696 645q0 93 -36 155t-110 62t-140 -112q-68 -112 -96 -238q-28 -125 -28 -218t38 -161q37 -68 100 -67q86 0 152 114t92 244q28 129 28 221zM920 526q0 -206 -144 -382t-350 -175q-172 0 -267 115q-95 116 -95 320t144 380q146 176 351 177q173 0 267 -115
q94 -114 94 -320zM690 1055h-94l-309 372h260z" />
    <glyph glyph-name="oacute" unicode="&#xf3;" horiz-adv-x="985" 
d="M696 645q0 93 -36 155t-110 62t-140 -112q-68 -112 -96 -238q-28 -125 -28 -218t38 -161q37 -68 100 -67q86 0 152 114t92 244q28 129 28 221zM920 526q0 -206 -144 -382t-350 -175q-172 0 -267 115q-95 116 -95 320t144 380q146 176 351 177q173 0 267 -115
q94 -114 94 -320zM993 1427l-411 -372h-93l244 372h260z" />
    <glyph glyph-name="ocircumflex" unicode="&#xf4;" horiz-adv-x="985" 
d="M696 645q0 93 -36 155t-110 62t-140 -112q-68 -112 -96 -238q-28 -125 -28 -218t38 -161q37 -68 100 -67q86 0 152 114t92 244q28 129 28 221zM920 526q0 -206 -144 -382t-350 -175q-172 0 -267 115q-95 116 -95 320t144 380q146 176 351 177q173 0 267 -115
q94 -114 94 -320zM895 1055h-94l-176 245h-4l-242 -245h-94l233 372h242z" />
    <glyph glyph-name="otilde" unicode="&#xf5;" horiz-adv-x="985" 
d="M696 645q0 93 -36 155t-110 62t-140 -112q-68 -112 -96 -238q-28 -125 -28 -218t38 -161q37 -68 100 -67q86 0 152 114t92 244q28 129 28 221zM920 526q0 -206 -144 -382t-350 -175q-172 0 -267 115q-95 116 -95 320t144 380q146 176 351 177q173 0 267 -115
q94 -114 94 -320zM452 1217q-32 0 -52 -27t-58 -100h-88q63 276 246 276q68 0 165 -72t129 -72t58 28t59 98h86q-66 -276 -247 -277q-68 0 -167 73t-131 73z" />
    <glyph glyph-name="odieresis" unicode="&#xf6;" horiz-adv-x="985" 
d="M696 645q0 93 -36 155t-110 62t-140 -112q-68 -112 -96 -238q-28 -125 -28 -218t38 -161q37 -68 100 -67q86 0 152 114t92 244q28 129 28 221zM920 526q0 -206 -144 -382t-350 -175q-172 0 -267 115q-95 116 -95 320t144 380q146 176 351 177q173 0 267 -115
q94 -114 94 -320zM547 1241q0 -59 -36 -100t-97 -41t-99 41q-37 41 -36 100q0 59 36 101q37 42 99 42t97 -42q36 -42 36 -101zM985 1241q0 -59 -36 -100t-97 -41t-97 41t-36 100t36 101t97 42t97 -42t36 -101z" />
    <glyph glyph-name="divide" unicode="&#xf7;" horiz-adv-x="983" 
d="M909 422h-829l6 117h817zM602 768q0 -43 -31 -75q-31 -31 -75 -31t-75 32q-30 32 -30 74q0 43 30 75q30 31 75 31q46 0 76 -32t30 -74zM602 195q0 -43 -30 -75t-74 -32t-76 32q-31 32 -31 75t31 73t76 31q44 -1 74 -31t30 -73z" />
    <glyph glyph-name="oslash" unicode="&#xf8;" horiz-adv-x="985" 
d="M559 868q-85 0 -153 -114q-126 -209 -123 -457q0 -45 10 -96l360 620q-41 47 -94 47zM690 733q-358 -623 -360 -622q39 -49 94 -50q86 0 155 116t103 274t8 282zM426 -31q-92 0 -158 33l-153 -266h-88q10 18 28 51q17 33 57 99t64 110l27 45q-139 115 -139 341t144 402
q146 176 351 177q84 0 156 -33l170 297h90l-195 -336q140 -109 140 -339t-144 -406t-350 -175z" />
    <glyph glyph-name="ugrave" unicode="&#xf9;" horiz-adv-x="1126" 
d="M319 961q41 0 116 -39t75 -66q0 -45 -109 -367q-65 -215 -65 -247t29 -58q29 -27 63 -26q49 0 118 106t193 359l72 313h248l-86 -307q-94 -473 -105 -504l56 -21l145 105l37 -41q-49 -84 -128 -142q-78 -58 -138 -58t-130 29q-70 30 -69 56q0 80 117 453h-23
q-172 -365 -258 -451t-178 -86t-143 50q-52 50 -52 135q0 84 77 318t104 323l-60 12l-131 -148l-43 46q45 98 120 177t148 79zM739 1055h-94l-309 372h260z" />
    <glyph glyph-name="uacute" unicode="&#xfa;" horiz-adv-x="1126" 
d="M319 961q41 0 116 -39t75 -66q0 -45 -109 -367q-65 -215 -65 -247t29 -58q29 -27 63 -26q49 0 118 106t193 359l72 313h248l-86 -307q-94 -473 -105 -504l56 -21l145 105l37 -41q-49 -84 -128 -142q-78 -58 -138 -58t-130 29q-70 30 -69 56q0 80 117 453h-23
q-172 -365 -258 -451t-178 -86t-143 50q-52 50 -52 135q0 84 77 318t104 323l-60 12l-131 -148l-43 46q45 98 120 177t148 79zM1032 1427l-411 -372h-93l244 372h260z" />
    <glyph glyph-name="ucircumflex" unicode="&#xfb;" horiz-adv-x="1126" 
d="M319 961q41 0 116 -39t75 -66q0 -45 -109 -367q-65 -215 -65 -247t29 -58q29 -27 63 -26q49 0 118 106t193 359l72 313h248l-86 -307q-94 -473 -105 -504l56 -21l145 105l37 -41q-49 -84 -128 -142q-78 -58 -138 -58t-130 29q-70 30 -69 56q0 80 117 453h-23
q-172 -365 -258 -451t-178 -86t-143 50q-52 50 -52 135q0 84 77 318t104 323l-60 12l-131 -148l-43 46q45 98 120 177t148 79zM954 1055h-94l-176 245h-4l-242 -245h-94l234 372h241z" />
    <glyph glyph-name="udieresis" unicode="&#xfc;" horiz-adv-x="1126" 
d="M319 961q41 0 116 -39t75 -66q0 -45 -109 -367q-65 -215 -65 -247t29 -58q29 -27 63 -26q49 0 118 106t193 359l72 313h248l-86 -307q-94 -473 -105 -504l56 -21l145 105l37 -41q-49 -84 -128 -142q-78 -58 -138 -58t-130 29q-70 30 -69 56q0 80 117 453h-23
q-172 -365 -258 -451t-178 -86t-143 50q-52 50 -52 135q0 84 77 318t104 323l-60 12l-131 -148l-43 46q45 98 120 177t148 79zM596 1241q0 -59 -36 -100t-97 -41t-98 41t-37 100t37 101t98 42t97 -42t36 -101zM1034 1241q0 -59 -36 -100t-97 -41t-97 41t-36 100t36 101
t97 42t97 -42t36 -101z" />
    <glyph glyph-name="yacute" unicode="&#xfd;" horiz-adv-x="974" 
d="M983 797q0 -145 -260 -482l-186 -252l-115 -229q-174 -348 -372 -348q-98 0 -156 47q-60 47 -60 111t36 99q36 36 91 36t96 -46t39 -118l37 -2l258 342l-139 41l-23 799l-59 12l-131 -148l-41 46q45 98 119 177t147 79q45 0 121 -29t78 -55l-14 -777h26l320 553v25
q-115 45 -115 133q0 63 40 107t106 45q66 0 111 -45q46 -45 46 -121zM987 1427l-412 -372h-92l244 372h260z" />
    <glyph glyph-name="thorn" unicode="&#xfe;" horiz-adv-x="1038" 
d="M754 576q0 100 -27 152t-75 52t-112 -85t-192 -300l-51 -180q43 -59 107 -104t103 -45q38 0 71 32q70 70 123 224t53 254zM981 656q0 -142 -63 -292t-168 -255q-140 -139 -272 -139t-199 106h-13l-86 -428q-6 -37 43 -49l133 -23l9 -80h-562l7 80l96 23q41 10 51 49
l322 1493q12 53 -25 69l-117 56l13 57l417 104l-219 -888h21q115 229 199 325t184 96t164 -81t65 -223z" />
    <glyph glyph-name="ydieresis" unicode="&#xff;" horiz-adv-x="974" 
d="M983 797q0 -145 -260 -482l-186 -252l-115 -229q-174 -348 -372 -348q-98 0 -156 47q-60 47 -60 111t36 99q36 36 91 36t96 -46t39 -118l37 -2l258 342l-139 41l-23 799l-59 12l-131 -148l-41 46q45 98 119 177t147 79q45 0 121 -29t78 -55l-14 -777h26l320 553v25
q-115 45 -115 133q0 63 40 107t106 45q66 0 111 -45q46 -45 46 -121zM530 1241q0 -59 -36 -100t-96 -41q-62 0 -99 41t-37 100t37 101t98 42t97 -42t36 -101zM969 1241q0 -59 -36 -100t-97 -41t-98 41q-36 41 -36 100t36 101t98 42t97 -42q36 -42 36 -101z" />
    <glyph glyph-name="Amacron" unicode="&#x100;" horiz-adv-x="1269" 
d="M1044 1436h-608l25 118h581zM717 526l-84 527h-17l-227 -527h328zM1227 0h-604l6 84l80 12q53 8 62 42t-9 116l-29 172h-385l-35 -94q-88 -209 23 -232l74 -16l6 -84h-486l7 84l57 18q66 18 102 62t119 221l356 786v78l273 62l221 -1125q7 -39 23 -57t55 -27l78 -18z" />
    <glyph glyph-name="amacron" unicode="&#x101;" horiz-adv-x="1081" 
d="M993 1118h-608l25 119h581zM511 831q-44 0 -77 -32q-61 -61 -111 -213q-51 -152 -51 -252q-1 -184 105 -184q61 0 151 129q35 49 150 233l47 162q-37 61 -103 109q-67 48 -111 48zM274 -31q-98 0 -164 73q-66 74 -65 214q0 140 70 298t176 263q141 141 281 141t182 -157
h16l55 157h211l-123 -370l-108 -459l55 -18l152 104l35 -43q-49 -82 -131 -143t-140 -61q-59 0 -130 28q-71 29 -71 57q1 28 53 176t62 181h-20q-158 -264 -207 -324q-91 -117 -189 -117z" />
    <glyph glyph-name="Abreve" unicode="&#x102;" horiz-adv-x="1269" 
d="M717 526l-84 527h-17l-227 -527h328zM715 1362q-133 0 -191 100q-57 100 -65 283h90q29 -119 69 -182t113 -63q74 0 133 64q59 65 123 181h88q-102 -383 -360 -383zM1227 0h-604l6 84l80 12q53 8 62 42t-9 116l-29 172h-385l-35 -94q-88 -209 23 -232l74 -16l6 -84h-486
l7 84l57 18q66 18 102 62t119 221l356 786v78l273 62l221 -1125q7 -39 23 -57t55 -27l78 -18z" />
    <glyph glyph-name="abreve" unicode="&#x103;" horiz-adv-x="1081" 
d="M686 1044q-133 0 -190 100t-66 283h90q29 -119 69 -182q39 -63 113 -63t134 64q59 65 122 181h89q-102 -383 -361 -383zM511 831q-44 0 -77 -32q-61 -61 -111 -213q-51 -152 -51 -252q-1 -184 105 -184q61 0 151 129q35 49 150 233l47 162q-37 61 -103 109
q-67 48 -111 48zM274 -31q-98 0 -164 73q-66 74 -65 214q0 140 70 298t176 263q141 141 281 141t182 -157h16l55 157h211l-123 -370l-108 -459l55 -18l152 104l35 -43q-49 -82 -131 -143t-140 -61q-59 0 -130 28q-71 29 -71 57q1 28 53 176t62 181h-20q-158 -264 -207 -324
q-91 -117 -189 -117z" />
    <glyph glyph-name="Aogonek" unicode="&#x104;" horiz-adv-x="1269" 
d="M719 526l-84 529h-19l-225 -529h328zM1105 -420q-67 -39 -154 -30q-87 10 -134 64t-31 134t87 144t169 108h-419l6 84l80 12q53 8 62 42t-9 116l-27 174h-385l-37 -96q-88 -209 23 -232l74 -16l6 -84h-486l7 84l57 18q66 16 102 62t119 221l358 786v78l271 62l221 -1125
q7 -39 23 -57t55 -27l78 -18l6 -84q-88 -16 -162 -76t-84 -131q-9 -47 13 -81t78 -39t104 32l16 -27q-20 -59 -87 -98z" />
    <glyph glyph-name="aogonek" unicode="&#x105;" horiz-adv-x="1081" 
d="M380 150q50 0 106 72t192 292l47 162q-37 61 -103 109q-67 49 -109 49t-79 -33q-61 -63 -111 -215q-51 -152 -51 -252t29 -142t79 -42zM274 -31q-98 0 -164 73q-66 74 -65 214q0 140 70 298t176 263q141 141 280 141t183 -155h16l55 155h211l-123 -370l-108 -459l55 -18
l152 104l35 -41q-27 -49 -84 -104t-111 -87t-96 -84q-41 -53 -51 -101t10 -84q19 -36 75 -41t105 32l16 -27q-21 -59 -87 -98t-153 -30q-87 10 -132 66t-27 144q25 121 190 217q-47 12 -87 34t-40 46q1 24 53 172t62 181h-20q-158 -264 -207 -324q-91 -117 -189 -117z" />
    <glyph glyph-name="Cacute" unicode="&#x106;" horiz-adv-x="1331" 
d="M100 545q0 147 62 291t172 254q219 219 518 219q178 0 309 -52l176 48l-61 -457h-141l-48 295q-92 66 -215 65q-196 0 -334 -200t-138 -470q0 -268 126 -391q80 -79 196 -79t212 49l143 305h156l-96 -422l-123 25q-154 -57 -316 -58q-294 0 -446 156t-152 422zM1229 1745
l-412 -373h-92l244 373h260z" />
    <glyph glyph-name="cacute" unicode="&#x107;" horiz-adv-x="872" 
d="M289 358q0 -116 50 -176q51 -60 121 -61q70 0 269 135l33 -43q-186 -244 -385 -244q-147 -1 -233 97t-87 247q0 236 166 442t389 206q109 -1 183 -59q73 -58 73 -134t-39 -118q-39 -44 -93 -44t-82 32t-28 77t25 86q-23 16 -73 29t-89 14q-14 0 -38 -25
q-53 -51 -107 -198t-55 -263zM938 1427l-412 -372h-92l244 372h260z" />
    <glyph glyph-name="Ccircumflex" unicode="&#x108;" horiz-adv-x="1331" 
d="M100 545q0 147 62 291t172 254q219 219 518 219q178 0 309 -52l176 48l-61 -457h-141l-48 295q-92 66 -215 65q-196 0 -334 -200t-138 -470q0 -268 126 -391q80 -79 196 -79t212 49l143 305h156l-96 -422l-123 25q-154 -57 -316 -58q-294 0 -446 156t-152 422zM1143 1372
h-94l-177 246h-4l-241 -246h-95l234 373h242z" />
    <glyph glyph-name="ccircumflex" unicode="&#x109;" horiz-adv-x="872" 
d="M289 358q0 -116 50 -176q51 -60 121 -61q70 0 269 135l33 -43q-186 -244 -385 -244q-147 -1 -233 97t-87 247q0 236 166 442t389 206q109 -1 183 -59q73 -58 73 -134t-39 -118q-39 -44 -93 -44t-82 32t-28 77t25 86q-23 16 -73 29t-89 14q-14 0 -38 -25
q-53 -51 -107 -198t-55 -263zM897 1055h-94l-176 245h-4l-242 -245h-94l233 372h242z" />
    <glyph glyph-name="Cdotaccent" unicode="&#x10a;" horiz-adv-x="1331" 
d="M991 1569q0 -61 -38 -103t-100 -43q-62 0 -99 42q-37 41 -37 103t37 105t99 43t100 -43t38 -104zM100 545q0 147 62 291t172 254q219 219 518 219q178 0 309 -52l176 48l-61 -457h-141l-48 295q-92 66 -215 65q-196 0 -334 -200t-138 -470q0 -268 126 -391
q80 -79 196 -79t212 49l143 305h156l-96 -422l-123 25q-154 -57 -316 -58q-294 0 -446 156t-152 422z" />
    <glyph glyph-name="cdotaccent" unicode="&#x10b;" horiz-adv-x="872" 
d="M766 1251q0 -61 -38 -103t-100 -42t-100 42q-37 42 -36 103q0 61 36 105q38 43 100 43q62 1 100 -43t38 -105zM289 358q0 -116 50 -176q51 -60 121 -61q70 0 269 135l33 -43q-186 -244 -385 -244q-147 -1 -233 97t-87 247q0 236 166 442t389 206q109 -1 183 -59
q73 -58 73 -134t-39 -118q-39 -44 -93 -44t-82 32t-28 77t25 86q-23 16 -73 29t-89 14q-14 0 -38 -25q-53 -51 -107 -198t-55 -263z" />
    <glyph glyph-name="Ccaron" unicode="&#x10c;" horiz-adv-x="1331" 
d="M100 545q0 147 62 291t172 254q219 219 518 219q178 0 309 -52l176 48l-61 -457h-141l-48 295q-92 66 -215 65q-196 0 -334 -200t-138 -470q0 -268 126 -391q80 -79 196 -79t212 49l143 305h156l-96 -422l-123 25q-154 -57 -316 -58q-294 0 -446 156t-152 422zM1196 1745
l-231 -373h-244l-131 373h90l176 -246h4l244 246h92z" />
    <glyph glyph-name="ccaron" unicode="&#x10d;" horiz-adv-x="872" 
d="M289 358q0 -116 50 -176q51 -60 121 -61q70 0 269 135l33 -43q-186 -244 -385 -244q-147 -1 -233 97t-87 247q0 236 166 442t389 206q109 -1 183 -59q73 -58 73 -134t-39 -118q-39 -44 -93 -44t-82 32t-28 77t25 86q-23 16 -73 29t-89 14q-14 0 -38 -25
q-53 -51 -107 -198t-55 -263zM924 1427l-232 -372h-243l-132 372h91l176 -245h4l243 245h93z" />
    <glyph glyph-name="Dcaron" unicode="&#x10e;" horiz-adv-x="1404" 
d="M1061 1745l-232 -373h-243l-131 373h90l176 -246h4l244 246h92zM1065 717q0 219 -96 344t-299 125h-82l-144 -1063l138 -31q211 10 347 174t136 451zM1360 698q0 -272 -209 -481q-98 -97 -259 -157t-351 -60h-527l9 82l100 22q47 10 53 50l131 972q6 39 -41 50l-92 22
l-6 82l545 2q305 0 476 -156t171 -428z" />
    <glyph glyph-name="dcaron" unicode="&#x10f;" horiz-adv-x="1538" 
d="M511 831q-44 0 -77 -32q-61 -61 -111 -213q-51 -152 -51 -252q-1 -184 105 -184q61 0 151 129q35 49 150 233l47 162q-37 61 -103 109q-67 48 -111 48zM274 -31q-98 0 -164 73q-66 74 -65 214q0 140 70 298t176 263q141 141 284 141q72 0 107 -40t57 -117h17l71 340
q12 53 -24 69l-117 56l12 57l420 104l-225 -905l-88 -393l55 -18l152 104l35 -43q-49 -82 -131 -143t-139 -61q-58 0 -127 38q-68 40 -68 66t48 164t60 174h-20q-158 -264 -207 -324q-91 -117 -189 -117zM1569 1227q0 -121 -109 -232t-276 -196l-51 49q99 55 163 128t64 144
q0 99 -127 172l-14 8q0 52 47 92q48 40 120 40t128 -60t55 -145z" />
    <glyph glyph-name="Dcroat" unicode="&#x110;" horiz-adv-x="1404" 
d="M1065 717q0 219 -96 344t-299 125h-82l-66 -492h226l6 -94h-246l-16 -121q-14 -119 -31 -237l-17 -119l138 -31q211 10 347 174t136 451zM1360 715q0 -289 -209 -498q-98 -97 -259 -157t-351 -60h-527l9 82l100 22q47 10 53 50l60 446h-146l6 94h152l59 432q6 39 -41 50
l-92 22l-6 82l545 2q305 0 476 -156t171 -411z" />
    <glyph glyph-name="dcroat" unicode="&#x111;" horiz-adv-x="1081" 
d="M511 831q-44 0 -77 -32q-61 -61 -111 -213q-51 -152 -51 -252q-1 -184 105 -184q61 0 151 129q35 49 150 233l47 162q-37 61 -103 109q-67 48 -111 48zM274 -31q-98 0 -164 73q-66 74 -65 214q0 140 70 298t176 263q141 141 284 141q72 0 107 -40t57 -117h17l49 237
l-252 -2l27 109h247q8 49 -24 65l-117 56l12 57l420 104l-71 -282h143l-2 -109l-168 -4l-127 -510l-88 -393l55 -18l152 104l35 -43q-49 -82 -131 -143t-139 -61q-58 0 -127 38q-68 40 -68 66t48 164t60 174h-20q-158 -264 -207 -324q-91 -117 -189 -117z" />
    <glyph glyph-name="Emacron" unicode="&#x112;" horiz-adv-x="1284" 
d="M1087 1436h-608l25 118h581zM559 692q92 0 133 12t62 54l69 139h105l-113 -496h-104l2 131q2 40 -32 54t-142 14h-31l-68 -508h88q178 0 256 11t120 42t77 107l70 151h147l-94 -403h-1090l9 82l100 22q47 10 53 50l133 972q6 39 -41 50l-94 22l-4 82h1108l-55 -422h-142
l-22 170q-10 80 -50 120t-339 40h-80l-70 -496h39z" />
    <glyph glyph-name="emacron" unicode="&#x113;" horiz-adv-x="864" 
d="M823 1118h-608l25 119h581zM649 745q0 37 -55 67t-96 30t-73 -32t-77 -146t-61 -244h6q205 114 281 180t75 145zM289 322q0 -88 51 -144q50 -56 120 -57q70 0 269 135l33 -43q-186 -244 -385 -244q-150 -1 -235 97t-85 247q0 238 163 443t378 205q120 1 186 -57t66 -148
q0 -54 -22 -80t-36 -42q-50 -55 -275 -168q-92 -46 -228 -118v-26z" />
    <glyph glyph-name="Ebreve" unicode="&#x114;" horiz-adv-x="1284" 
d="M770 1362q-133 0 -190 100t-66 283h90q29 -119 69 -182q39 -63 113 -63t134 64q59 65 122 181h88q-102 -383 -360 -383zM559 692q92 0 133 12t62 54l69 139h105l-113 -496h-104l2 131q2 40 -32 54t-142 14h-31l-68 -508h88q178 0 256 11t120 42t77 107l70 151h147
l-94 -403h-1090l9 82l100 22q47 10 53 50l133 972q6 39 -41 50l-94 22l-4 82h1108l-55 -422h-142l-22 170q-10 80 -50 120t-339 40h-80l-70 -496h39z" />
    <glyph glyph-name="ebreve" unicode="&#x115;" horiz-adv-x="864" 
d="M649 745q0 37 -55 67t-96 30t-73 -32t-77 -146t-61 -244h6q205 114 281 180t75 145zM549 1044q-133 0 -191 100t-65 283h90q29 -119 69 -182t114 -63t132 64q59 64 123 181h88q-102 -383 -360 -383zM289 322q0 -88 51 -144q50 -56 120 -57q70 0 269 135l33 -43
q-186 -244 -385 -244q-150 -1 -235 97t-85 247q0 238 163 443t378 205q120 1 186 -57t66 -148q0 -54 -22 -80t-36 -42q-50 -55 -275 -168q-92 -46 -228 -118v-26z" />
    <glyph glyph-name="Edotaccent" unicode="&#x116;" horiz-adv-x="1284" 
d="M936 1569q0 -61 -38 -103t-100 -43q-62 0 -100 42q-36 41 -36 103t36 105q38 43 100 43t100 -43t38 -104zM559 692q92 0 133 12t62 54l69 139h105l-113 -496h-104l2 131q2 40 -32 54t-142 14h-31l-68 -508h88q178 0 256 11t120 42t77 107l70 151h147l-94 -403h-1090l9 82
l100 22q47 10 53 50l133 972q6 39 -41 50l-94 22l-4 82h1108l-55 -422h-142l-22 170q-10 80 -50 120t-339 40h-80l-70 -496h39z" />
    <glyph glyph-name="edotaccent" unicode="&#x117;" horiz-adv-x="864" 
d="M715 1251q0 -61 -38 -103q-39 -42 -101 -42t-99 42t-37 103t37 105t99 43q62 0 101 -43q38 -44 38 -105zM649 745q0 37 -55 67t-96 30t-73 -32t-77 -146t-61 -244h6q205 114 281 180t75 145zM289 322q0 -88 51 -144q50 -56 120 -57q70 0 269 135l33 -43
q-186 -244 -385 -244q-150 -1 -235 97t-85 247q0 238 163 443t378 205q120 1 186 -57t66 -148q0 -54 -22 -80t-36 -42q-50 -55 -275 -168q-92 -46 -228 -118v-26z" />
    <glyph glyph-name="Eogonek" unicode="&#x118;" horiz-adv-x="1284" 
d="M559 692q92 0 133 12t62 54l69 139h105l-113 -494h-104l2 129q2 42 -32 56t-142 14h-31l-68 -510h88q178 0 256 11t120 42t77 107l70 151h147l-94 -403h-90q-133 -96 -152 -201q-10 -49 9 -85t73 -41t109 32l14 -27q-20 -59 -86 -98t-154 -30q-88 10 -133 66t-26 144
q29 137 235 240h-889l9 82l100 22q47 10 53 50l133 974q6 37 -41 50l-92 22l-6 80h1108l-55 -420h-142l-22 170q-10 80 -50 120t-339 40h-80l-70 -498h39z" />
    <glyph glyph-name="eogonek" unicode="&#x119;" horiz-adv-x="864" 
d="M649 748q0 38 -55 66t-97 28t-73 -31t-76 -147t-61 -244h6q203 110 279 178t77 150zM57 313q0 238 163 443t378 205q120 1 186 -57t66 -146q0 -52 -22 -81q-22 -28 -36 -44q-52 -56 -275 -167q-92 -46 -228 -118v-26q0 -88 51 -144q50 -56 120 -57q70 0 269 135l33 -43
q-131 -166 -248 -227q-63 -33 -108 -85q-46 -51 -56 -103t12 -86t78 -39t105 32l16 -27q-21 -59 -87 -98t-153 -30q-87 10 -133 64t-30 142q20 131 194 215q-135 3 -215 101t-80 241z" />
    <glyph glyph-name="Ecaron" unicode="&#x11a;" horiz-adv-x="1284" 
d="M559 692q92 0 133 12t62 54l69 139h105l-113 -496h-104l2 131q2 40 -32 54t-142 14h-31l-68 -508h88q178 0 256 11t120 42t77 107l70 151h147l-94 -403h-1090l9 82l100 22q47 10 53 50l133 972q6 39 -41 50l-94 22l-4 82h1108l-55 -422h-142l-22 170q-10 80 -50 120
t-339 40h-80l-70 -496h39zM1135 1745l-232 -373h-244l-131 373h90l177 -246h4l243 246h93z" />
    <glyph glyph-name="ecaron" unicode="&#x11b;" horiz-adv-x="864" 
d="M649 745q0 37 -55 67t-96 30t-73 -32t-77 -146t-61 -244h6q205 114 281 180t75 145zM897 1427l-231 -372h-244l-131 372h90l176 -245h4l244 245h92zM289 322q0 -88 51 -144q50 -56 120 -57q70 0 269 135l33 -43q-186 -244 -385 -244q-150 -1 -235 97t-85 247
q0 238 163 443t378 205q120 1 186 -57t66 -148q0 -54 -22 -80t-36 -42q-50 -55 -275 -168q-92 -46 -228 -118v-26z" />
    <glyph glyph-name="Gcircumflex" unicode="&#x11c;" horiz-adv-x="1435" 
d="M706 -33q-290 0 -448 154t-158 424q0 147 62 291q127 294 416 413q144 59 308 59t296 -51l176 48l-62 -451h-141l-45 289q-96 66 -238 65q-196 0 -334 -200t-138 -470q0 -268 126 -391q80 -80 217 -79q88 0 162 26l51 332q4 23 -5 33t-40 16l-96 23l-6 82h571l-8 -82
l-96 -23q-49 -12 -55 -49l-50 -291l119 -18l6 -68q-300 -82 -590 -82zM1169 1372h-94l-176 246h-4l-242 -246h-94l234 373h241z" />
    <glyph glyph-name="gcircumflex" unicode="&#x11d;" horiz-adv-x="954" 
d="M356 -436q128 0 202 38t75 89q0 51 -52 87t-179 77t-199 71q-150 -72 -150 -182q0 -78 88 -129q87 -51 215 -51zM639 729q0 43 -49 81q-50 38 -98 38t-70 -23q-49 -49 -81 -150t-29 -189t37 -121q34 -34 71 -33q63 0 112 53q53 51 80 151t27 193zM453 252q-68 0 -144 20
q-31 -8 -51 -34t-20 -55t38 -51t130 -52l94 -27q158 -47 238 -109t79 -178q0 -116 -147 -209t-404 -94q-184 0 -296 65t-111 177q0 87 82 149t200 93v16q-88 51 -88 135q0 137 187 195v16q-66 41 -106 110t-40 146q0 170 127 283t307 113q109 0 244 -41l258 4l-51 -185
l-242 60l-2 -21q105 -82 105 -213t-117 -222t-270 -91zM895 1055h-94l-176 245h-4l-242 -245h-94l233 372h242z" />
    <glyph glyph-name="Gbreve" unicode="&#x11e;" horiz-adv-x="1435" 
d="M860 1362q-133 0 -190 100t-66 283h90q29 -119 69 -182t114 -63t133 64q59 65 123 181h88q-102 -383 -361 -383zM706 -33q-290 0 -448 154t-158 424q0 147 62 291q127 294 416 413q144 59 308 59t296 -51l176 48l-62 -451h-141l-45 289q-96 66 -238 65q-196 0 -334 -200
t-138 -470q0 -268 126 -391q80 -80 217 -79q88 0 162 26l51 332q4 23 -5 33t-40 16l-96 23l-6 82h571l-8 -82l-96 -23q-49 -12 -55 -49l-50 -291l119 -18l6 -68q-300 -82 -590 -82z" />
    <glyph glyph-name="gbreve" unicode="&#x11f;" horiz-adv-x="954" 
d="M602 1044q-133 0 -190 100t-66 283h90q29 -119 69 -182q39 -63 113 -63t134 64q59 65 122 181h89q-102 -383 -361 -383zM639 729q0 43 -49 81q-50 38 -98 38t-70 -23q-49 -49 -81 -150t-29 -189t37 -121q34 -34 71 -33q63 0 112 53q53 51 80 151t27 193zM356 -436
q128 0 202 38t75 89q0 51 -52 87t-179 77t-199 71q-150 -72 -150 -182q0 -78 88 -129q87 -51 215 -51zM453 252q-68 0 -144 20q-31 -8 -51 -34t-20 -55t38 -51t130 -52l94 -27q158 -47 238 -109t79 -178q0 -116 -147 -209t-404 -94q-184 0 -296 65t-111 177q0 87 82 149
t200 93v16q-88 51 -88 135q0 137 187 195v16q-66 41 -106 110t-40 146q0 170 127 283t307 113q109 0 244 -41l258 4l-51 -185l-242 60l-2 -21q105 -82 105 -213t-117 -222t-270 -91z" />
    <glyph glyph-name="Gdotaccent" unicode="&#x120;" horiz-adv-x="1435" 
d="M1047 1569q0 -61 -38 -103q-39 -42 -101 -43q-62 0 -99 42q-37 41 -37 103t37 105t99 43t100 -43t39 -104zM706 -33q-290 0 -448 154t-158 424q0 147 62 291q127 294 416 413q144 59 308 59t296 -51l176 48l-62 -451h-141l-45 289q-96 66 -238 65q-196 0 -334 -200
t-138 -470q0 -268 126 -391q80 -80 217 -79q88 0 162 26l51 332q4 23 -5 33t-40 16l-96 23l-6 82h571l-8 -82l-96 -23q-49 -12 -55 -49l-50 -291l119 -18l6 -68q-300 -82 -590 -82z" />
    <glyph glyph-name="gdotaccent" unicode="&#x121;" horiz-adv-x="954" 
d="M766 1251q0 -61 -38 -103t-100 -42t-100 42q-37 42 -36 103q0 61 36 105q38 43 100 43q62 1 100 -43t38 -105zM356 -436q128 0 202 38t75 89q0 51 -52 87t-179 77t-199 71q-150 -72 -150 -182q0 -78 88 -129q87 -51 215 -51zM639 729q0 43 -49 81q-50 38 -98 38t-70 -23
q-49 -49 -81 -150t-29 -189t37 -121q34 -34 71 -33q63 0 112 53q53 51 80 151t27 193zM453 252q-68 0 -144 20q-31 -8 -51 -34t-20 -55t38 -51t130 -52l94 -27q158 -47 238 -109t79 -178q0 -116 -147 -209t-404 -94q-184 0 -296 65t-111 177q0 87 82 149t200 93v16
q-88 51 -88 135q0 137 187 195v16q-66 41 -106 110t-40 146q0 170 127 283t307 113q109 0 244 -41l258 4l-51 -185l-242 60l-2 -21q105 -82 105 -213t-117 -222t-270 -91z" />
    <glyph glyph-name="Gcommaaccent" unicode="&#x122;" horiz-adv-x="1435" 
d="M706 -33q-290 0 -448 154t-158 424q0 147 62 291q127 294 416 413q144 59 308 59t296 -51l176 48l-62 -451h-141l-45 289q-96 66 -238 65q-196 0 -334 -200t-138 -470q0 -268 126 -391q80 -80 217 -79q88 0 162 26l51 332q4 23 -5 33t-40 16l-96 23l-6 82h571l-8 -82
l-96 -23q-49 -12 -55 -49l-50 -291l119 -18l6 -68q-300 -82 -590 -82zM569 -131q43 31 109 24t104 -65t18 -145q-20 -86 -107 -154t-212 -102l-32 49q158 45 182 153q16 82 -69 133q-18 12 -32 20t-14 9q10 47 53 78z" />
    <glyph glyph-name="gcommaaccent" unicode="&#x123;" horiz-adv-x="954" 
d="M356 -436q128 0 202 38t75 89q0 51 -52 87t-179 77t-199 71q-150 -72 -150 -182q0 -78 88 -129q87 -51 215 -51zM639 729q0 43 -49 81q-50 38 -98 38t-70 -23q-49 -49 -81 -150t-29 -189t37 -121q34 -34 71 -33q63 0 112 53q53 51 80 151t27 193zM453 252q-68 0 -144 20
q-31 -8 -51 -34t-20 -55t38 -51t130 -52l94 -27q158 -47 238 -109t79 -178q0 -116 -147 -209t-404 -94q-184 0 -296 65t-111 177q0 87 82 149t200 93v16q-88 51 -88 135q0 137 187 195v16q-66 41 -106 110t-40 146q0 170 127 283t307 113q109 0 244 -41l258 4l-51 -185
l-242 60l-2 -21q105 -82 105 -213t-117 -222t-270 -91zM510 1268q41 182 332 272l28 -55q-165 -50 -183 -146q-16 -89 48 -128l45 -27q20 -12 21 -15q-9 -45 -55 -79t-112 -26q-66 7 -103 66q-37 60 -21 138z" />
    <glyph glyph-name="Hcircumflex" unicode="&#x124;" horiz-adv-x="1517" 
d="M1386 0h-573l6 82l101 22q30 6 40 16t13 34l61 450h-524l-61 -450q-6 -39 40 -50l97 -22l6 -82h-574l7 82l100 22q47 10 53 50l131 972q6 39 -41 50l-92 22l-6 82h573l-6 -82l-102 -22q-47 -12 -53 -50l-58 -421h525l57 421q4 25 -4 34t-37 16l-94 22l-6 82h575l-8 -82
l-100 -22q-47 -12 -54 -50l-133 -972q-6 -39 41 -50l94 -22zM1176 1372h-95l-176 246h-4l-242 -246h-94l234 373h241z" />
    <glyph glyph-name="hcircumflex" unicode="&#x125;" horiz-adv-x="1089" 
d="M971 797q0 -137 -187 -668l56 -18l151 104l35 -43q-49 -82 -129 -143q-79 -61 -139 -61t-130 29q-70 30 -69 56q0 43 115 387q68 217 68 253t-29 57q-29 20 -72 20t-112 -108t-187 -357l-68 -309l-247 -2l75 307l177 840q12 53 -25 69l-117 56l13 57l417 104l-243 -1003
h22q166 364 252 450t178 86t144 -46q51 -46 51 -117zM733 1475h-94l-176 245h-4l-242 -245h-94l233 372h242z" />
    <glyph glyph-name="Hbar" unicode="&#x126;" horiz-adv-x="1517" 
d="M524 705h525l24 178h-524zM1386 0h-573l6 82l101 22q28 6 38 16t15 34l61 450h-524l-61 -450q-6 -39 40 -50l97 -22l6 -82h-574l7 82l100 22q47 10 53 50l98 729h-206l20 98h201l20 147q6 37 -41 50l-94 22l-6 80h573l-6 -80l-102 -22q-47 -12 -53 -50l-21 -147h524
l21 147q4 23 -4 32t-37 18l-92 22l-6 80h573l-8 -80l-100 -22q-47 -12 -54 -50l-22 -147h168l4 -98h-185l-98 -729q-6 -39 41 -50l94 -22z" />
    <glyph glyph-name="hbar" unicode="&#x127;" horiz-adv-x="1089" 
d="M971 799q0 -139 -187 -670l56 -18l151 104l35 -41q-49 -84 -129 -145q-79 -61 -139 -61t-130 29q-70 30 -69 56q0 47 115 387q68 217 68 253t-29 58t-66 21q-49 0 -117 -108t-188 -359l-68 -311h-247l77 307l156 735h-143l18 109h144v18q0 37 -23 49l-119 54l13 59
l417 102l-69 -282h247l7 -109h-281l-147 -612h22q164 362 251 449t179 87t144 -46q51 -46 51 -115z" />
    <glyph glyph-name="Imacron" unicode="&#x12a;" horiz-adv-x="763" 
d="M811 1436h-608l24 118h582zM635 0h-617l7 82l120 22q47 10 54 50l133 972q6 41 -41 50l-115 22l-6 82h614l-6 -82l-123 -22q-47 -10 -53 -50l-131 -972q-6 -37 41 -50l115 -22z" />
    <glyph glyph-name="imacron" unicode="&#x12b;" horiz-adv-x="573" 
d="M707 1118h-609l25 119h582zM295 961q27 -1 77 -15t90 -36t36 -36l-205 -745l55 -18l152 104l35 -43q-49 -82 -129 -143t-138 -61t-133 32q-74 33 -67 53l196 742l-61 12l-133 -148l-41 46q45 98 118 177q74 79 148 79z" />
    <glyph glyph-name="Ibreve" unicode="&#x12c;" horiz-adv-x="763" 
d="M494 1362q-133 0 -191 100q-57 100 -65 283h90q28 -119 68 -182t114 -63t133 64q59 65 123 181h88q-102 -383 -360 -383zM635 0h-617l7 82l120 22q47 10 54 50l133 972q6 41 -41 50l-115 22l-6 82h614l-6 -82l-123 -22q-47 -10 -53 -50l-131 -972q-6 -37 41 -50l115 -22z
" />
    <glyph glyph-name="ibreve" unicode="&#x12d;" horiz-adv-x="573" 
d="M393 1044q-133 0 -190 100t-66 283h90q29 -119 69 -182t114 -63t133 64t123 181h88q-102 -383 -361 -383zM295 961q27 -1 77 -15t90 -36t36 -36l-205 -745l55 -18l152 104l35 -43q-49 -82 -129 -143t-138 -61t-133 32q-74 33 -67 53l196 742l-61 12l-133 -148l-41 46
q45 98 118 177q74 79 148 79z" />
    <glyph glyph-name="Iogonek" unicode="&#x12e;" horiz-adv-x="763" 
d="M501 -420q-67 -39 -156 -30q-89 10 -136 60t-33 136t94 151t191 103h-441l7 82l120 22q47 10 54 50l133 974q6 39 -41 50l-115 22l-6 80h612l-6 -80l-123 -22q-47 -10 -53 -50l-131 -974q-6 -37 41 -50l115 -22l8 -82q-92 -18 -174 -80t-92 -131q-14 -104 88 -115
q66 -6 114 31l17 -27q-20 -59 -87 -98z" />
    <glyph glyph-name="iogonek" unicode="&#x12f;" horiz-adv-x="573" 
d="M612 1266q0 -66 -42 -118t-100 -52t-95 40t-37 106t42 118q42 53 100 53t95 -41q37 -40 37 -106zM295 961q40 -1 100 -21q111 -38 103 -63l-205 -748l55 -18l152 104l35 -41q-74 -127 -213 -201q-57 -27 -95 -75q-37 -48 -47 -98t10 -86t76 -41t105 32l16 -27
q-21 -59 -87 -98t-153 -30q-87 10 -133 66t-30 134t75 137t138 95q-59 4 -111 46q-20 15 -18 25l196 742l-61 14l-133 -150l-41 46q45 98 118 177q74 79 148 79z" />
    <glyph glyph-name="Idotaccent" unicode="&#x130;" horiz-adv-x="763" 
d="M651 1569q0 -61 -38 -103t-100 -43q-62 0 -99 42q-37 41 -37 103t37 105t99 43t100 -43t38 -104zM635 0h-617l7 82l120 22q47 10 54 50l133 972q6 41 -41 50l-115 22l-6 82h614l-6 -82l-123 -22q-47 -10 -53 -50l-131 -972q-6 -37 41 -50l115 -22z" />
    <glyph glyph-name="dotlessi" unicode="&#x131;" horiz-adv-x="573" 
d="M295 961q27 -1 77 -15t90 -36t36 -36l-205 -745l55 -18l152 104l35 -43q-49 -82 -129 -143t-138 -61t-133 32q-74 33 -67 53l196 742l-61 12l-133 -148l-41 46q45 98 118 177q74 79 148 79z" />
    <glyph glyph-name="Jcircumflex" unicode="&#x134;" horiz-adv-x="903" 
d="M217 -33q-113 0 -187 47t-73 127q2 49 39 82t86 33q160 0 172 -209h2q61 31 98 119t62 270l92 690q6 41 -41 50l-133 22l-6 82h622l-8 -82l-108 -22q-47 -8 -54 -50l-82 -610q-74 -549 -481 -549zM958 1372h-94l-176 246h-4l-242 -246h-94l234 373h241z" />
    <glyph glyph-name="jcircumflex" unicode="&#x135;" horiz-adv-x="546" 
d="M690 1055h-94l-176 245h-4l-242 -245h-94l233 372h242zM369 928q21 0 37 -184t10 -205q-145 -643 -213 -711q-80 -219 -213 -297q-60 -31 -118 -33t-99 27q-53 23 -72 64q-18 42 2 85q53 66 135 13q37 0 68 -28t35 -67q2 4 41 77t67 198q13 40 61 261q48 222 54 245
l72 426l-117 -72l-72 -49q2 6 11 25q10 19 14 29t22 47q27 52 58 52q38 45 106 76t111 21z" />
    <glyph glyph-name="Kcommaaccent" unicode="&#x136;" horiz-adv-x="1374" 
d="M1296 0h-522l6 82l54 18q43 12 12 72l-215 432l-142 -119l-43 -331q-6 -39 41 -50l95 -22l4 -82h-574l8 82l101 22q47 10 53 50l133 972q6 39 -41 50l-94 22l-4 82h573l-8 -82l-102 -22q-47 -12 -53 -50l-66 -505l358 337q142 140 142 176t-47 52l-54 14l-4 80h535
l-8 -78l-54 -14q-102 -27 -274 -168l-283 -246l314 -575q44 -78 72 -91q13 -7 46 -18l37 -8zM799 -311q-41 -182 -332 -273l-29 56q166 50 184 145q10 49 -8 81q-16 32 -41 47q-65 39 -65 42q8 45 54 79t112 27t104 -67t21 -137z" />
    <glyph glyph-name="kcommaaccent" unicode="&#x137;" horiz-adv-x="964" 
d="M657 -27q-23 -1 -63 17t-43 33l-143 428l-76 -33l-60 -422l-245 -2l75 307l177 840q12 53 -25 69l-117 56l13 57l413 104l-114 -469l-119 -464h14l395 208v25q-90 27 -90 119q0 57 43 97t107 40q63 0 109 -45t46 -107q0 -94 -68 -153t-204 -113l-94 -37l153 -383h41
l117 107l43 -43q-35 -88 -120 -162t-165 -74zM549 -311q-41 -182 -332 -273l-29 56q166 50 184 145q17 89 -48 128t-66 42q8 45 54 79t112 27t104 -67t21 -137z" />
    <glyph glyph-name="Lacute" unicode="&#x139;" horiz-adv-x="1185" 
d="M858 1745l-412 -373h-92l244 373h260zM500 92q202 0 274 31t119 129l76 170h145l-100 -422h-1002l8 82l101 22q47 10 53 50l131 972q6 39 -41 50l-94 22l-4 82h582l-9 -82l-108 -22q-47 -12 -53 -50l-140 -1034h62z" />
    <glyph glyph-name="lacute" unicode="&#x13a;" horiz-adv-x="559" 
d="M520 172q-49 -82 -130 -143q-82 -61 -140 -61t-130 32q-72 33 -67 53l226 1088q12 53 -25 69l-117 56l13 57l409 104l-283 -1298l58 -18l149 104zM778 1837l-411 -373h-93l244 373h260z" />
    <glyph glyph-name="Lcommaaccent" unicode="&#x13b;" horiz-adv-x="1185" 
d="M500 92q202 0 274 31t119 129l76 170h145l-100 -422h-1002l8 82l101 22q47 10 53 50l131 972q6 39 -41 50l-94 22l-4 82h582l-9 -82l-108 -22q-47 -12 -53 -50l-140 -1034h62zM676 -311q-41 -182 -332 -273l-29 56q165 50 183 145q17 89 -47 128q-65 39 -66 42
q8 45 54 79t112 27q65 -7 103 -67t22 -137z" />
    <glyph glyph-name="lcommaaccent" unicode="&#x13c;" horiz-adv-x="559" 
d="M520 172q-49 -82 -130 -143q-82 -61 -140 -61t-130 32q-72 33 -67 53l226 1088q12 53 -25 69l-117 56l13 57l409 104l-283 -1298l58 -18l149 104zM332 -311q-41 -182 -332 -273l-29 56q165 50 183 145q10 49 -7 81q-16 32 -41 47q-65 39 -65 42q8 45 54 79t112 27
q65 -7 103 -67t22 -137z" />
    <glyph glyph-name="Lcaron" unicode="&#x13d;" horiz-adv-x="1488" 
d="M500 92q202 0 274 31t119 129l76 170h145l-100 -422h-1002l8 82l101 22q47 10 53 50l131 972q6 39 -41 50l-94 22l-4 82h582l-9 -82l-108 -22q-47 -12 -53 -50l-140 -1034h62zM1534 1100q0 -121 -109 -232t-276 -196l-51 49q98 55 163 128t65 142t-44 108q-43 39 -98 75
q0 51 47 91t119 40q72 -1 128 -61t56 -144z" />
    <glyph glyph-name="lcaron" unicode="&#x13e;" horiz-adv-x="978" 
d="M520 172q-49 -82 -130 -143q-82 -61 -140 -61t-130 32q-72 33 -67 53l226 1088q12 53 -25 69l-117 56l13 57l409 104l-283 -1298l58 -18l149 104zM1012 1225q0 -121 -109 -232t-276 -196l-52 49q98 55 163 128t65 144q0 99 -127 172l-14 8q0 52 47 92t119 40t128 -60
t56 -145z" />
    <glyph glyph-name="Ldot" unicode="&#x13f;" horiz-adv-x="1386" 
d="M1219 629q0 67 46 113q47 46 115 46t114 -46t46 -114q0 -67 -47 -114t-115 -47t-114 47t-45 115zM500 92q202 0 274 31t119 129l76 170h145l-100 -422h-1002l8 82l101 22q47 10 53 50l131 972q6 39 -41 50l-94 22l-4 82h582l-9 -82l-108 -22q-47 -12 -53 -50l-140 -1034
h62z" />
    <glyph glyph-name="ldotaccent" unicode="&#x140;" horiz-adv-x="899" 
d="M520 172q-49 -82 -130 -143q-82 -61 -140 -61t-130 32q-72 33 -67 53l226 1088q12 53 -25 69l-117 56l13 57l409 104l-283 -1298l58 -18l149 104zM965 648q0 -68 -47 -114t-115 -46t-114 46q-46 48 -46 116t47 113q47 46 115 46t114 -47t46 -114z" />
    <glyph glyph-name="Lslash" unicode="&#x141;" horiz-adv-x="1185" 
d="M500 92q202 0 274 31t119 129l76 170h145l-100 -422h-1002l8 82l101 22q47 10 53 50l33 239l-137 -37v99l149 41l86 630q6 39 -41 50l-94 22l-4 82h582l-9 -82l-108 -22q-47 -12 -53 -50q-74 -555 -76 -555l194 54v-101q-207 -55 -207 -57l-51 -375h62z" />
    <glyph glyph-name="lslash" unicode="&#x142;" horiz-adv-x="604" 
d="M158 389l-160 -43v98l180 50l133 647q12 53 -22 69l-119 56l14 57l408 104l-189 -872l170 47v-100q-193 -51 -192 -53l-70 -320l56 -18l151 104l35 -43q-49 -82 -129 -143t-156 -62q-36 0 -106 52t-66 75z" />
    <glyph glyph-name="Nacute" unicode="&#x143;" horiz-adv-x="1466" 
d="M1518 1280l-7 -82l-98 -20q-51 -10 -79 -87t-60 -321l-109 -786h-198l-537 1042h-14l-70 -516q-35 -252 -31 -325t54 -83l106 -20l6 -82h-489l6 82l98 20q51 10 78 87t59 321l76 549q6 53 -3 80t-46 37l-88 22l-4 82h428l487 -952h17l59 442q35 256 32 327t-50 81
l-111 20l-6 82h494zM1237 1745l-412 -373h-92l244 373h260z" />
    <glyph glyph-name="nacute" unicode="&#x144;" horiz-adv-x="1126" 
d="M614 53q0 43 115 387q68 217 68 253q0 37 -29 57t-72 20q-44 0 -112 -108t-187 -357l-67 -309l-248 -2l76 307l100 487l-57 15l-135 -144l-41 46q47 98 119 177q73 79 147 79q47 0 124 -24t77 -50q0 -74 -113 -463h22q166 364 252 450q87 86 179 86t143 -46t51 -130
t-94 -374l-92 -281l55 -18l152 104l34 -43q-49 -82 -129 -143t-139 -61t-129 29q-70 30 -70 56zM991 1427l-411 -372h-93l244 372h260z" />
    <glyph glyph-name="Ncommaaccent" unicode="&#x145;" horiz-adv-x="1466" 
d="M1518 1280l-7 -82l-98 -20q-51 -10 -79 -87t-60 -321l-109 -786h-198l-537 1042h-14l-70 -516q-35 -252 -31 -325t54 -83l106 -20l6 -82h-489l6 82l98 20q51 10 78 87t59 321l76 549q6 53 -3 80t-46 37l-88 22l-4 82h428l487 -952h17l59 442q35 256 32 327t-50 81
l-111 20l-6 82h494zM809 -311q-41 -182 -332 -273l-28 56q166 51 183 145q16 89 -48 128t-66 42q8 45 54 79t112 27t104 -67t21 -137z" />
    <glyph glyph-name="ncommaaccent" unicode="&#x146;" horiz-adv-x="1126" 
d="M618 -311q-41 -182 -331 -273l-29 56q166 51 183 145q16 89 -48 128q-65 39 -65 42q8 45 54 79t112 27t102 -67q38 -60 22 -137zM614 53q0 43 115 387q68 217 68 253q0 37 -29 57t-72 20q-44 0 -112 -108t-187 -357l-67 -309l-248 -2l76 307l100 487l-57 15l-135 -144
l-41 46q47 98 119 177q73 79 147 79q47 0 124 -24t77 -50q0 -74 -113 -463h22q166 364 252 450q87 86 179 86t143 -46t51 -130t-94 -374l-92 -281l55 -18l152 104l34 -43q-49 -82 -129 -143t-139 -61t-129 29q-70 30 -70 56z" />
    <glyph glyph-name="Ncaron" unicode="&#x147;" horiz-adv-x="1466" 
d="M1518 1280l-7 -82l-98 -20q-51 -10 -79 -87t-60 -321l-109 -786h-198l-537 1042h-14l-70 -516q-35 -252 -31 -325t54 -83l106 -20l6 -82h-489l6 82l98 20q51 10 78 87t59 321l76 549q6 53 -3 80t-46 37l-88 22l-4 82h428l487 -952h17l59 442q35 256 32 327t-50 81
l-111 20l-6 82h494zM1192 1745l-231 -373h-244l-131 373h90l176 -246h4l244 246h92z" />
    <glyph glyph-name="ncaron" unicode="&#x148;" horiz-adv-x="1126" 
d="M614 53q0 43 115 387q68 217 68 253q0 37 -29 57t-72 20q-44 0 -112 -108t-187 -357l-67 -309l-248 -2l76 307l100 487l-57 15l-135 -144l-41 46q47 98 119 177q73 79 147 79q47 0 124 -24t77 -50q0 -74 -113 -463h22q166 364 252 450q87 86 179 86t143 -46t51 -130
t-94 -374l-92 -281l55 -18l152 104l34 -43q-49 -82 -129 -143t-139 -61t-129 29q-70 30 -70 56zM969 1427l-232 -372h-243l-132 372h91l176 -245h4l244 245h92z" />
    <glyph glyph-name="Omacron" unicode="&#x14c;" horiz-adv-x="1464" 
d="M1112 774q0 242 -106 354q-84 78 -200 78t-199 -76q-135 -124 -193 -419q-23 -113 -23 -211q0 -242 109 -348q80 -80 197 -80t199 76q137 126 195 417q21 113 21 209zM1405 713q0 -317 -227 -549q-188 -195 -464 -195t-446 167t-170 427q0 305 203 524t504 220
q262 0 431 -167t169 -427zM1141 1436h-609l25 118h582z" />
    <glyph glyph-name="omacron" unicode="&#x14d;" horiz-adv-x="985" 
d="M696 645q0 93 -36 155t-110 62t-140 -112q-68 -112 -96 -238q-28 -125 -28 -218t38 -161q37 -68 100 -67q86 0 152 114t92 244q28 129 28 221zM920 526q0 -206 -144 -382t-350 -175q-172 0 -267 115q-95 116 -95 320t144 380q146 176 351 177q173 0 267 -115
q94 -114 94 -320zM918 1118h-609l25 119h581z" />
    <glyph glyph-name="Obreve" unicode="&#x14e;" horiz-adv-x="1464" 
d="M834 1362q-133 0 -191 100q-57 100 -65 283h90q28 -119 68 -182t114 -63t133 64q59 65 123 181h88q-102 -383 -360 -383zM1112 774q0 242 -106 354q-84 78 -200 78t-199 -76q-135 -124 -193 -419q-23 -113 -23 -211q0 -242 109 -348q80 -80 197 -80t199 76
q137 126 195 417q21 113 21 209zM1405 713q0 -317 -227 -549q-188 -195 -464 -195t-446 167t-170 427q0 305 203 524t504 220q262 0 431 -167t169 -427z" />
    <glyph glyph-name="obreve" unicode="&#x14f;" horiz-adv-x="985" 
d="M584 1044q-132 0 -190 100t-66 283h90q28 -119 68 -182t114 -63t133 64t123 181h88q-102 -383 -360 -383zM696 645q0 93 -36 155t-110 62t-140 -112q-68 -112 -96 -238q-28 -125 -28 -218t38 -161q37 -68 100 -67q86 0 152 114t92 244q28 129 28 221zM920 526
q0 -206 -144 -382t-350 -175q-172 0 -267 115q-95 116 -95 320t144 380q146 176 351 177q173 0 267 -115q94 -114 94 -320z" />
    <glyph glyph-name="Ohungarumlaut" unicode="&#x150;" horiz-adv-x="1464" 
d="M1112 774q0 242 -106 354q-84 78 -200 78t-199 -76q-135 -124 -193 -419q-23 -113 -23 -211q0 -242 109 -348q80 -80 197 -80t199 76q137 126 195 417q21 113 21 209zM1405 713q0 -317 -227 -549q-188 -195 -464 -195t-446 167t-170 427q0 305 203 524t504 220
q262 0 431 -167t169 -427zM1016 1745l-398 -373h-86l240 373h244zM1376 1745l-397 -373h-84l238 373h243z" />
    <glyph glyph-name="ohungarumlaut" unicode="&#x151;" horiz-adv-x="985" 
d="M696 645q0 93 -36 155t-110 62t-140 -112q-68 -112 -96 -238q-28 -125 -28 -218t38 -161q37 -68 100 -67q86 0 152 114t92 244q28 129 28 221zM920 526q0 -206 -144 -382t-350 -175q-172 0 -267 115q-95 116 -95 320t144 380q146 176 351 177q173 0 267 -115
q94 -114 94 -320zM778 1427l-397 -372h-86l240 372h243zM1139 1427l-398 -372h-84l238 372h244z" />
    <glyph glyph-name="OE" unicode="&#x152;" horiz-adv-x="1982" 
d="M393 563q1 -221 101 -345t294 -124h82l146 1063l-139 31q-211 -10 -347 -174t-137 -451zM98 565q0 289 211 498q98 97 258 157t351 60h1062l-65 -422h-131l-23 170q-11 83 -50 121q-40 39 -339 39h-80l-69 -496h39q90 0 136 16t70 58l58 131h104l-112 -496h-105l2 131
q2 40 -32 54t-142 14h-31l-67 -508h88q178 0 256 11t120 42t76 107l70 151h148l-95 -403h-1061q-305 -2 -476 154t-171 411z" />
    <glyph glyph-name="oe" unicode="&#x153;" horiz-adv-x="1466" 
d="M1100 842q-41 0 -73 -32t-77 -146t-61 -244h6q205 112 281 178t75 147q0 37 -55 67t-96 30zM696 645q0 93 -36 155t-110 62t-140 -112q-68 -112 -96 -238q-28 -125 -28 -218t38 -161q37 -68 100 -67q86 0 152 114t92 244q28 129 28 221zM1452 756q0 -54 -22 -80t-36 -42
q-15 -16 -48 -40q-33 -23 -60 -39q-59 -35 -159 -85t-236 -122v-26q0 -88 51 -144q50 -56 120 -57q70 0 269 135l33 -43q-186 -244 -376 -244t-257 150q-129 -150 -303 -150t-269 115q-95 116 -95 320t142 380q144 176 356 176t288 -186q141 186 350 187q120 1 186 -57
t66 -148z" />
    <glyph glyph-name="Racute" unicode="&#x154;" horiz-adv-x="1296" 
d="M922 925q0 125 -72 195t-191 70h-71l-72 -531l127 -26q125 18 202 93t77 199zM770 1280q213 0 332 -86t119 -222q1 -136 -93 -234t-266 -146l223 -404q30 -61 72 -84q12 -6 39 -14l35 -8l4 -82h-369l-69 164l-185 385l-106 6l-57 -401q-6 -33 40 -50l91 -22l6 -82h-570
l7 82l100 22q47 10 53 50l129 972q6 39 -41 50l-94 22l-4 82h604zM1090 1745l-412 -373h-92l243 373h261z" />
    <glyph glyph-name="racute" unicode="&#x155;" horiz-adv-x="923" 
d="M293 961q47 0 123 -24t76 -50q0 -45 -50 -225t-84 -279h29q33 88 107 242t108 186q49 88 90 121t110 33q68 0 114 -45t46 -117t-38 -117q-40 -45 -98 -45t-92 45q-33 45 -15 111l-37 10q-30 -25 -144 -236t-159 -309l-49 -266l-248 -2l76 307l100 494l-59 12l-131 -148
l-43 46q47 100 120 178q74 78 148 78zM963 1427l-412 -372h-92l243 372h261z" />
    <glyph glyph-name="Rcommaaccent" unicode="&#x156;" horiz-adv-x="1296" 
d="M922 925q0 125 -72 195t-191 70h-71l-72 -531l127 -26q125 18 202 93t77 199zM770 1280q213 0 332 -86t119 -222q1 -136 -93 -234t-266 -146l223 -404q30 -61 72 -84q12 -6 39 -14l35 -8l4 -82h-369l-69 164l-185 385l-106 6l-57 -401q-6 -33 40 -50l91 -22l6 -82h-570
l7 82l100 22q47 10 53 50l129 972q6 39 -41 50l-94 22l-4 82h604zM801 -311q-41 -182 -332 -273l-29 56q166 50 184 145q10 49 -8 81q-16 32 -41 47q-65 39 -65 42q8 45 54 79t112 27t104 -67t21 -137z" />
    <glyph glyph-name="rcommaaccent" unicode="&#x157;" horiz-adv-x="923" 
d="M293 961q47 0 123 -24t76 -50q0 -45 -50 -225t-84 -279h29q33 88 107 242t108 186q49 88 90 121t110 33q68 0 114 -45t46 -117t-38 -117q-40 -45 -98 -45t-92 45q-33 45 -15 111l-37 10q-30 -25 -144 -236t-159 -309l-49 -266l-248 -2l76 307l100 494l-59 12l-131 -148
l-43 46q47 100 120 178q74 78 148 78zM100 -131q43 31 109 24q65 -7 103 -65t18 -145q-20 -86 -106 -154q-87 -68 -212 -102l-32 49q158 45 182 153q16 82 -69 133q-19 12 -33 20t-13 9q10 47 53 78z" />
    <glyph glyph-name="Rcaron" unicode="&#x158;" horiz-adv-x="1296" 
d="M922 925q0 125 -72 195t-191 70h-71l-72 -531l127 -26q125 18 202 93t77 199zM770 1280q213 0 332 -86t119 -222q1 -136 -93 -234t-266 -146l223 -404q30 -61 72 -84q12 -6 39 -14l35 -8l4 -82h-369l-69 164l-185 385l-106 6l-57 -401q-6 -33 40 -50l91 -22l6 -82h-570
l7 82l100 22q47 10 53 50l129 972q6 39 -41 50l-94 22l-4 82h604zM1055 1745l-232 -373h-243l-131 373h90l176 -246h4l244 246h92z" />
    <glyph glyph-name="rcaron" unicode="&#x159;" horiz-adv-x="923" 
d="M293 961q47 0 123 -24t76 -50q0 -45 -50 -225t-84 -279h29q33 88 107 242t108 186q49 88 90 121t110 33q68 0 114 -45t46 -117t-38 -117q-40 -45 -98 -45t-92 45q-33 45 -15 111l-37 10q-30 -25 -144 -236t-159 -309l-49 -266l-248 -2l76 307l100 494l-59 12l-131 -148
l-43 46q47 100 120 178q74 78 148 78zM903 1427l-231 -372h-244l-131 372h90l176 -245h4l244 245h92z" />
    <glyph glyph-name="Sacute" unicode="&#x15a;" horiz-adv-x="1095" 
d="M983 375q0 -184 -143 -295q-144 -111 -360 -111t-433 68l35 393l131 -2l63 -307q100 -45 220 -45t182 54q61 54 62 145t-66 145q-67 55 -217 137t-224 162q-73 81 -73 229t138 253t335 106q127 0 323 -47l113 34l-55 -420l-129 5l-43 274q-110 45 -214 45t-164 -46
t-60 -104t16 -96q18 -39 71 -83t196 -119q143 -76 219 -159t77 -216zM1024 1745l-412 -373h-92l244 373h260z" />
    <glyph glyph-name="sacute" unicode="&#x15b;" horiz-adv-x="784" 
d="M778 786q0 -59 -33 -94t-85 -35t-82 32t-29 69q0 37 12 59q-82 45 -168 51q-29 -18 -55 -56t-30 -67q-3 -29 28 -65q30 -35 46 -52t47 -45q30 -28 39 -37t34 -33t32 -31q6 -7 28 -27q22 -19 29 -29t35 -44q46 -57 46 -136q-4 -121 -119 -199t-251 -78t-224 43t-88 138
q0 57 34 92q34 34 86 34t80 -32t29 -68q0 -37 -12 -59q100 -49 194 -54q27 19 53 59t26 60q1 51 -37 92q-38 40 -106 99t-113 107q-110 117 -105 208q6 129 115 201q110 72 249 72q295 -1 295 -175zM866 1427l-411 -372h-93l244 372h260z" />
    <glyph glyph-name="Scircumflex" unicode="&#x15c;" horiz-adv-x="1095" 
d="M983 375q0 -184 -143 -295q-144 -111 -360 -111t-433 68l35 393l131 -2l63 -307q100 -45 220 -45t182 54q61 54 62 145t-66 145q-67 55 -217 137t-224 162q-73 81 -73 229t138 253t335 106q127 0 323 -47l113 34l-55 -420l-129 5l-43 274q-110 45 -214 45t-164 -46
t-60 -104t16 -96q18 -39 71 -83t196 -119q143 -76 219 -159t77 -216zM958 1372h-94l-176 246h-4l-242 -246h-94l234 373h241z" />
    <glyph glyph-name="scircumflex" unicode="&#x15d;" horiz-adv-x="784" 
d="M778 786q0 -59 -33 -94t-85 -35t-82 32t-29 69q0 37 12 59q-82 45 -168 51q-29 -18 -55 -56t-30 -67q-3 -29 28 -65q30 -35 46 -52t47 -45q30 -28 39 -37t34 -33t32 -31q6 -7 28 -27q22 -19 29 -29t35 -44q46 -57 46 -136q-4 -121 -119 -199t-251 -78t-224 43t-88 138
q0 57 34 92q34 34 86 34t80 -32t29 -68q0 -37 -12 -59q100 -49 194 -54q27 19 53 59t26 60q1 51 -37 92q-38 40 -106 99t-113 107q-110 117 -105 208q6 129 115 201q110 72 249 72q295 -1 295 -175zM821 1055h-94l-176 245h-4l-242 -245h-94l233 372h242z" />
    <glyph glyph-name="Scedilla" unicode="&#x15e;" horiz-adv-x="1095" 
d="M420 -236q-74 0 -144 -14l7 49l184 170q-213 2 -420 68l35 393l131 -2l63 -307q100 -45 220 -45t182 54q61 54 62 145t-66 145q-67 55 -217 137t-224 162q-73 81 -73 229t138 253t335 106q127 0 323 -47l113 34l-55 -420l-129 5l-43 274q-110 45 -214 45t-164 -46
t-60 -104t16 -96q18 -39 71 -83t196 -119q143 -76 219 -159t77 -231q0 -148 -114 -254t-296 -131l-96 -86q121 -4 191 -50t69 -126q0 -115 -136 -191t-355 -85l-13 55q166 20 255 66t90 108q0 98 -158 98z" />
    <glyph glyph-name="scedilla" unicode="&#x15f;" horiz-adv-x="784" 
d="M360 -334q0 98 -157 98q-74 0 -144 -14l7 49l186 172q-114 6 -188 49t-74 130q0 57 34 92q34 34 86 34t80 -32t29 -68q0 -37 -12 -59q100 -49 194 -54q27 19 53 59t26 60q1 51 -37 92q-38 40 -106 99t-113 107q-110 117 -105 208q6 129 115 201q110 72 249 72
q295 0 295 -175q0 -59 -33 -94t-85 -35t-82 32t-29 69q0 37 12 59q-82 45 -168 51q-29 -18 -55 -56t-30 -67q-3 -29 28 -65q30 -35 46 -52t47 -45q30 -28 39 -37t34 -33t32 -31q6 -7 28 -27q22 -19 29 -29t35 -44q46 -57 46 -136q-4 -106 -96 -180t-222 -93l-94 -84
q121 -4 191 -50t69 -126q0 -115 -136 -191t-355 -85l-13 55q166 20 255 66t89 108z" />
    <glyph glyph-name="Scaron" unicode="&#x160;" horiz-adv-x="1095" 
d="M983 375q0 -184 -143 -295q-144 -111 -360 -111t-433 68l35 393l131 -2l63 -307q100 -45 220 -45t182 54q61 54 62 145t-66 145q-67 55 -217 137t-224 162q-73 81 -73 229t138 253t335 106q127 0 323 -47l113 34l-55 -420l-129 5l-43 274q-110 45 -214 45t-164 -46
t-60 -104t16 -96q18 -39 71 -83t196 -119q143 -76 219 -159t77 -216zM1026 1769l-231 -372h-244l-131 372h90l176 -245h4l244 245h92z" />
    <glyph glyph-name="scaron" unicode="&#x161;" horiz-adv-x="784" 
d="M778 786q0 -59 -33 -94t-85 -35t-82 32t-29 69q0 37 12 59q-82 45 -168 51q-29 -18 -55 -56t-30 -67q-3 -29 28 -65q30 -35 46 -52t47 -45q30 -28 39 -37t34 -33t32 -31q6 -7 28 -27q22 -19 29 -29t35 -44q46 -57 46 -136q-4 -121 -119 -199t-251 -78t-224 43t-88 138
q0 57 34 92q34 34 86 34t80 -32t29 -68q0 -37 -12 -59q100 -49 194 -54q27 19 53 59t26 60q1 51 -37 92q-38 40 -106 99t-113 107q-110 117 -105 208q6 129 115 201q110 72 249 72q295 -1 295 -175zM860 1427l-231 -372h-244l-131 372h90l176 -245h4l244 245h92z" />
    <glyph glyph-name="Tcommaaccent" unicode="&#x162;" horiz-adv-x="1312" 
d="M602 1188q-139 0 -195 -29t-104 -133l-72 -176h-147l92 430h1184l-55 -430h-134l-22 170q-15 104 -65 135t-191 33h-12l-138 -1034q-6 -39 41 -50l123 -22l6 -82h-626l6 82l127 22q49 8 53 50l137 1034h-8zM717 -311q-41 -182 -332 -273l-29 56q166 50 184 145
q10 49 -8 81q-16 32 -40 47q-66 40 -66 42q8 45 54 79t112 27t104 -67t21 -137z" />
    <glyph glyph-name="tcommaaccent" unicode="&#x163;" horiz-adv-x="677" 
d="M266 946l51 266h222l-62 -294h258l6 -117h-284l-152 -672l57 -18l150 104l37 -43q-49 -82 -130 -143t-139 -61t-133 29q-74 30 -67 50l158 737l-168 17l6 69zM367 -317q-41 -182 -332 -273l-29 55q166 50 184 146q10 49 -8 81q-16 32 -41 47q-65 39 -65 42q8 45 54 79
t112 26t103 -66q38 -59 22 -137z" />
    <glyph glyph-name="Tcaron" unicode="&#x164;" horiz-adv-x="1312" 
d="M602 1188q-139 0 -195 -29t-104 -133l-72 -176h-147l92 430h1184l-55 -430h-134l-22 170q-15 104 -65 135t-191 33h-12l-138 -1034q-6 -39 41 -50l123 -22l6 -82h-626l6 82l127 22q49 8 53 50l137 1034h-8zM1122 1745l-231 -373h-244l-131 373h90l176 -246h4l244 246h92z
" />
    <glyph glyph-name="tcaron" unicode="&#x165;" horiz-adv-x="862" 
d="M266 946l51 266h222l-62 -294h258l6 -117h-284l-152 -672l57 -18l150 104l37 -43q-49 -82 -130 -143t-139 -61t-133 29q-74 30 -67 50l158 737l-168 17l6 69zM924 1325q0 -98 -87 -186t-223 -156l-41 39q79 45 131 103t52 116q0 80 -101 135l-12 8q0 41 38 73
q39 32 97 32t102 -48t44 -116z" />
    <glyph glyph-name="Umacron" unicode="&#x16a;" horiz-adv-x="1449" 
d="M1196 1436h-608l24 118h582zM682 -43q-219 0 -352 106t-133 310q0 61 6 112l88 641q6 39 -41 50l-92 22l-6 82h573l-6 -82l-103 -22q-47 -12 -53 -50l-88 -641q-10 -88 -10 -123q0 -128 81 -200t222 -72t229 85t117 282l45 313q35 254 31 326t-53 82l-107 20l-6 82h492
l-7 -82l-98 -20q-51 -10 -78 -86t-61 -322l-49 -348q-35 -231 -179 -348t-362 -117z" />
    <glyph glyph-name="umacron" unicode="&#x16b;" horiz-adv-x="1126" 
d="M983 1118h-608l24 119h582zM319 961q41 0 116 -39t75 -66q0 -45 -109 -367q-65 -215 -65 -247t29 -58q29 -27 63 -26q49 0 118 106t193 359l72 313h248l-86 -307q-94 -473 -105 -504l56 -21l145 105l37 -41q-49 -84 -128 -142q-78 -58 -138 -58t-130 29q-70 30 -69 56
q0 80 117 453h-23q-172 -365 -258 -451t-178 -86t-143 50q-52 50 -52 135q0 84 77 318t104 323l-60 12l-131 -148l-43 46q45 98 120 177t148 79z" />
    <glyph glyph-name="Ubreve" unicode="&#x16c;" horiz-adv-x="1449" 
d="M881 1362q-133 0 -191 100q-57 100 -65 283h90q29 -119 69 -182t113 -63q74 0 133 64q59 65 123 181h88q-102 -383 -360 -383zM682 -43q-219 0 -352 106t-133 310q0 61 6 112l88 641q6 39 -41 50l-92 22l-6 82h573l-6 -82l-103 -22q-47 -12 -53 -50l-88 -641
q-10 -88 -10 -123q0 -128 81 -200t222 -72t229 85t117 282l45 313q35 254 31 326t-53 82l-107 20l-6 82h492l-7 -82l-98 -20q-51 -10 -78 -86t-61 -322l-49 -348q-35 -231 -179 -348t-362 -117z" />
    <glyph glyph-name="ubreve" unicode="&#x16d;" horiz-adv-x="1126" 
d="M641 1044q-133 0 -190 100t-66 283h90q29 -119 69 -182t114 -63t133 64q59 65 122 181h88q-102 -383 -360 -383zM319 961q41 0 116 -39t75 -66q0 -45 -109 -367q-65 -215 -65 -247t29 -58q29 -27 63 -26q49 0 118 106t193 359l72 313h248l-86 -307q-94 -473 -105 -504
l56 -21l145 105l37 -41q-49 -84 -128 -142q-78 -58 -138 -58t-130 29q-70 30 -69 56q0 80 117 453h-23q-172 -365 -258 -451t-178 -86t-143 50q-52 50 -52 135q0 84 77 318t104 323l-60 12l-131 -148l-43 46q45 98 120 177t148 79z" />
    <glyph glyph-name="Uring" unicode="&#x16e;" horiz-adv-x="1449" 
d="M682 -43q-219 0 -352 106t-133 310q0 61 6 112l88 641q6 39 -41 50l-92 22l-6 82h573l-6 -82l-103 -22q-47 -12 -53 -50l-88 -641q-10 -88 -10 -123q0 -128 81 -200t222 -72t229 85t117 282l45 313q35 254 31 326t-53 82l-107 20l-6 82h492l-7 -82l-98 -20
q-51 -10 -78 -86t-61 -322l-49 -348q-35 -231 -179 -348t-362 -117zM1024 1573q0 57 -36 98t-95 41t-95 -41t-36 -98t36 -97t95 -40t95 40t36 97zM1094 1573q0 -85 -56 -145t-146 -60q-91 0 -148 59q-56 59 -54 145t58 146t145 60t145 -60t56 -145z" />
    <glyph glyph-name="uring" unicode="&#x16f;" horiz-adv-x="1126" 
d="M319 961q41 0 116 -39t75 -66q0 -45 -109 -367q-65 -215 -65 -247t29 -58q29 -27 63 -26q49 0 118 106t193 359l72 313h248l-86 -307q-94 -473 -105 -504l56 -21l145 105l37 -41q-49 -84 -128 -142q-78 -58 -138 -58t-130 29q-70 30 -69 56q0 80 117 453h-23
q-172 -365 -258 -451t-178 -86t-143 50q-52 50 -52 135q0 84 77 318t104 323l-60 12l-131 -148l-43 46q45 98 120 177t148 79zM793 1255q0 57 -36 99t-95 41q-60 0 -96 -41q-36 -40 -36 -98t36 -98t96 -40t95 40q36 40 36 97zM862 1255q0 -86 -55 -145t-146 -59t-148 59
q-56 59 -54 145q2 85 57 145q56 60 146 60t145 -60t55 -145z" />
    <glyph glyph-name="Uhungarumlaut" unicode="&#x170;" horiz-adv-x="1449" 
d="M1073 1745l-397 -373h-86l239 373h244zM1434 1745l-398 -373h-84l238 373h244zM682 -43q-219 0 -352 106t-133 310q0 61 6 112l88 641q6 39 -41 50l-92 22l-6 82h573l-6 -82l-103 -22q-47 -12 -53 -50l-88 -641q-10 -88 -10 -123q0 -128 81 -200t222 -72t229 85t117 282
l45 313q35 254 31 326t-53 82l-107 20l-6 82h492l-7 -82l-98 -20q-51 -10 -78 -86t-61 -322l-49 -348q-35 -231 -179 -348t-362 -117z" />
    <glyph glyph-name="uhungarumlaut" unicode="&#x171;" horiz-adv-x="1126" 
d="M874 1427l-397 -372h-86l240 372h243zM1235 1427l-397 -372h-84l237 372h244zM319 961q41 0 116 -39t75 -66q0 -45 -109 -367q-65 -215 -65 -247t29 -58q29 -27 63 -26q49 0 118 106t193 359l72 313h248l-86 -307q-94 -473 -105 -504l56 -21l145 105l37 -41
q-49 -84 -128 -142q-78 -58 -138 -58t-130 29q-70 30 -69 56q0 80 117 453h-23q-172 -365 -258 -451t-178 -86t-143 50q-52 50 -52 135q0 84 77 318t104 323l-60 12l-131 -148l-43 46q45 98 120 177t148 79z" />
    <glyph glyph-name="Uogonek" unicode="&#x172;" horiz-adv-x="1449" 
d="M684 -43q-221 0 -354 106t-133 310q0 43 8 112l88 643q6 37 -41 50l-94 22l-6 80h573l-6 -80l-103 -22q-47 -12 -53 -50l-88 -643q-10 -82 -10 -123q0 -128 81 -200t222 -72t230 85t118 282l43 315q35 254 31 326t-53 80l-107 22l-6 80h492l-7 -80l-98 -22
q-51 -10 -78 -86t-61 -320l-49 -350q-23 -160 -98 -261t-171 -155q-188 -105 -204 -217q-16 -106 96 -116q56 -5 104 32l17 -27q-20 -59 -87 -98t-155 -30q-88 10 -136 62t-32 138q25 127 201 211q-25 -4 -74 -4z" />
    <glyph glyph-name="uogonek" unicode="&#x173;" horiz-adv-x="1126" 
d="M641 53q0 80 117 453h-23q-172 -365 -258 -451t-177 -86t-142 50q-52 50 -52 135t93 366q70 223 88 275l-60 14l-133 -150l-41 46q45 98 119 177t147 79q41 0 116 -39t75 -66q0 -45 -109 -367q-65 -209 -65 -243t29 -62q29 -27 63 -26q49 0 119 108t192 359l72 311h248
l-86 -307q-94 -471 -105 -504l56 -21l145 107l37 -43q-76 -127 -209 -197q-55 -29 -94 -77t-48 -96t10 -84t73 -41t108 32l15 -27q-20 -59 -86 -98t-154 -30q-88 10 -133 66t-29 133q30 143 205 231q-43 8 -83 32t-40 41z" />
    <glyph glyph-name="Wcircumflex" unicode="&#x174;" horiz-adv-x="1908" 
d="M2060 1280l-6 -84l-61 -18q-72 -20 -117 -72t-119 -211l-381 -895h-233l-115 788h-14l-359 -788h-235l-193 1094q-8 39 -24 57t-53 27l-84 18l-7 84h617l-6 -84l-86 -12q-78 -10 -54 -158l107 -795h14l324 730l-21 133q-4 37 -21 56t-56 28l-84 18l-7 84h615l-6 -84
l-86 -12q-45 -6 -57 -42t3 -116l105 -793h16l266 676q58 135 56 195t-62 76l-61 16l-6 84h491zM1405 1372h-94l-176 246h-5l-241 -246h-94l233 373h242z" />
    <glyph glyph-name="wcircumflex" unicode="&#x175;" horiz-adv-x="1499" 
d="M262 961q45 0 122 -30t77 -54l6 -762h18l289 651l-10 195l223 -41l33 -805h20l195 383q70 135 70 183t-39 86t-101 50q15 63 63 105t114 41t112 -47q47 -46 46 -113q-2 -111 -92 -257q-32 -50 -114 -171l-241 -367l-246 -39l-12 627h-17l-268 -588l-262 -39l-21 826
l-59 12l-131 -148l-41 46q45 98 119 177t147 79zM1196 1055h-94l-176 245h-4l-242 -245h-94l233 372h242z" />
    <glyph glyph-name="Ycircumflex" unicode="&#x176;" horiz-adv-x="1222" 
d="M1053 1372h-95l-176 246h-4l-241 -246h-95l234 373h242zM1348 1280l-7 -84l-49 -14q-61 -16 -108 -56t-131 -159l-295 -428l-49 -385q-6 -41 41 -50l120 -22l-2 -82h-628l12 82l131 22q45 6 53 50l49 372l-249 543q-27 51 -50 74t-59 33l-61 20l-7 84h588l-6 -84l-82 -12
q-53 -8 -54 -56t42 -145l145 -356h17l235 354q66 96 68 142t-62 59l-73 14l-7 84h478z" />
    <glyph glyph-name="ycircumflex" unicode="&#x177;" horiz-adv-x="974" 
d="M893 1055h-94l-176 245h-5l-241 -245h-94l233 372h242zM983 797q0 -145 -260 -482l-186 -252l-115 -229q-174 -348 -372 -348q-98 0 -156 47q-60 47 -60 111t36 99q36 36 91 36t96 -46t39 -118l37 -2l258 342l-139 41l-23 799l-59 12l-131 -148l-41 46q45 98 119 177
t147 79q45 0 121 -29t78 -55l-14 -777h26l320 553v25q-115 45 -115 133q0 63 40 107t106 45q66 0 111 -45q46 -45 46 -121z" />
    <glyph glyph-name="Ydieresis" unicode="&#x178;" horiz-adv-x="1222" 
d="M1348 1280l-7 -84l-49 -14q-61 -16 -108 -56t-131 -159l-295 -428l-49 -385q-6 -41 41 -50l120 -22l-2 -82h-628l12 82l131 22q45 6 53 50l49 372l-249 543q-27 51 -50 74t-59 33l-61 20l-7 84h588l-6 -84l-82 -12q-53 -8 -54 -56t42 -145l145 -356h17l235 354
q66 96 68 142t-62 59l-73 14l-7 84h478zM684 1583q0 -59 -36 -100t-97 -41t-98 41t-37 100t37 101t98 42t97 -42t36 -101zM1122 1583q0 -59 -36 -100t-97 -41t-97 41t-36 100t36 101t97 42t97 -42t36 -101z" />
    <glyph glyph-name="Zacute" unicode="&#x179;" horiz-adv-x="1232" 
d="M930 1186h-211q-183 0 -245 -32t-112 -142l-63 -158h-137l55 426h1049l-13 -94l-917 -1077l-2 -17h215q258 0 322 71q28 30 63 99l65 148h146l-98 -410h-1039l15 92l907 1077v17zM1096 1745l-412 -373h-92l244 373h260z" />
    <glyph glyph-name="zacute" unicode="&#x17a;" horiz-adv-x="874" 
d="M301 727q0 -47 -29 -76q-30 -29 -80 -32t-81 29t-31 79q0 84 78 154t198 77q152 0 215 -75q49 -58 84 -144l25 2l55 220q63 4 109 -33q46 -38 45 -102q0 -64 -53 -116t-152 -73l-414 -358q66 -25 174 -99t170 -123l33 31q-49 54 -49 104t30 78t80 31q50 2 80 -30t29 -81
q0 -88 -72 -158t-194 -79q-133 1 -208 65t-118 183l-26 -2l-58 -228q-63 -2 -109 35t-46 92q0 147 198 193l424 368q-109 39 -319 203l-33 -31q45 -57 45 -104zM938 1427l-412 -372h-92l244 372h260z" />
    <glyph glyph-name="Zdotaccent" unicode="&#x17b;" horiz-adv-x="1232" 
d="M905 1569q0 -61 -38 -103t-100 -43q-62 0 -99 42q-37 41 -37 103t37 105t99 43t100 -43t38 -104zM930 1186h-211q-183 0 -245 -32t-112 -142l-63 -158h-137l55 426h1049l-13 -94l-917 -1077l-2 -17h215q258 0 322 71q28 30 63 99l65 148h146l-98 -410h-1039l15 92
l907 1077v17z" />
    <glyph glyph-name="zdotaccent" unicode="&#x17c;" horiz-adv-x="874" 
d="M707 1251q0 -61 -38 -103q-39 -42 -101 -42t-99 42t-37 103t37 105t99 43q62 0 101 -43q38 -44 38 -105zM301 727q0 -47 -29 -76q-30 -29 -80 -32t-81 29t-31 79q0 84 78 154t198 77q152 0 215 -75q49 -58 84 -144l25 2l55 220q63 4 109 -33q46 -38 45 -102
q0 -64 -53 -116t-152 -73l-414 -358q66 -25 174 -99t170 -123l33 31q-49 54 -49 104t30 78t80 31q50 2 80 -30t29 -81q0 -88 -72 -158t-194 -79q-133 1 -208 65t-118 183l-26 -2l-58 -228q-63 -2 -109 35t-46 92q0 147 198 193l424 368q-109 39 -319 203l-33 -31
q45 -57 45 -104z" />
    <glyph glyph-name="Zcaron" unicode="&#x17d;" horiz-adv-x="1232" 
d="M930 1186h-211q-183 0 -245 -32t-112 -142l-63 -158h-137l55 426h1049l-13 -94l-917 -1077l-2 -17h215q258 0 322 71q28 30 63 99l65 148h146l-98 -410h-1039l15 92l907 1077v17zM1116 1769l-231 -372h-244l-131 372h90l176 -245h4l244 245h92z" />
    <glyph glyph-name="zcaron" unicode="&#x17e;" horiz-adv-x="868" 
d="M301 727q0 -47 -29 -76q-30 -29 -80 -32t-81 29t-31 79q0 84 78 154t198 77q152 0 215 -75q49 -58 84 -144l25 2l55 220q63 4 109 -33q46 -38 45 -102q0 -64 -53 -116t-152 -73l-414 -358q66 -25 174 -99t170 -123l33 31q-49 54 -49 104t30 78t80 31q50 2 80 -30t29 -81
q0 -88 -72 -158t-194 -79q-133 1 -208 65t-118 183l-26 -2l-58 -228q-63 -2 -109 35t-46 92q0 147 198 193l424 368q-109 39 -319 203l-33 -31q45 -57 45 -104zM893 1427l-231 -372h-244l-131 372h90l176 -245h4l244 245h92z" />
    <glyph glyph-name="florin" unicode="&#x192;" horiz-adv-x="1105" 
d="M962 1303q80 -1 138 -51t57 -118q0 -68 -36 -111q-35 -42 -97 -42t-102 49t-43 131l-97 -18q-20 -40 -48 -181q-29 -141 -36 -167h260l9 -117h-285q-43 -222 -97 -368t-143 -236q-113 -106 -272 -107q-86 0 -144 46q-58 45 -58 109t33 99q34 35 91 35t98 -44t48 -114
l112 33q49 123 78 334l27 199l-179 14l7 70l194 63q59 238 172 356q59 63 147 99q86 36 166 37z" />
    <glyph glyph-name="Aringacute" unicode="&#x1fa;" horiz-adv-x="1269" 
d="M874 1417q0 57 -35 99q-35 40 -95 40t-96 -40t-36 -98t36 -98t95 -40t96 40q35 40 35 97zM715 520l-78 533h-21l-227 -533h326zM743 1622q89 0 145 -59t56 -146q0 -117 -86 -170l207 -1061q12 -70 78 -84l78 -18l6 -84h-604l6 84l80 12q53 8 62 42t-9 116l-29 172h-385
l-35 -94q-88 -209 23 -232l74 -16l6 -84h-486l7 84l57 18q66 16 100 62t121 221l395 875q-70 59 -68 151q2 91 57 151q54 60 144 60zM1159 2025l-411 -372h-93l244 372h260z" />
    <glyph glyph-name="aringacute" unicode="&#x1fb;" horiz-adv-x="1081" 
d="M511 831q-44 0 -77 -32q-61 -61 -111 -213q-51 -152 -51 -252q-1 -184 105 -184q61 0 151 129q35 49 150 233l47 162q-37 61 -103 109q-67 48 -111 48zM811 1255q0 57 -36 99t-95 41q-59 0 -95 -41q-36 -40 -36 -98t36 -98t95 -40t95 40t36 97zM274 -31q-98 0 -164 73
q-66 74 -65 214q0 140 70 298t176 263q141 141 281 141t182 -157h16l55 157h211l-123 -370l-108 -459l55 -18l152 104l35 -43q-49 -82 -131 -143t-140 -61q-59 0 -130 28q-71 29 -71 57q1 28 53 176t62 181h-20q-158 -264 -207 -324q-91 -117 -189 -117zM881 1255
q1 -86 -55 -145t-147 -59t-148 59q-56 59 -54 145q1 85 57 145t146 60t146 -60t55 -145zM1106 1890l-412 -372h-92l244 372h260z" />
    <glyph glyph-name="AEacute" unicode="&#x1fc;" horiz-adv-x="1792" 
d="M768 549l86 645h-14l-412 -645h340zM219 169q0 -58 62 -69l71 -16l6 -84h-483l6 84l58 18q63 18 108 64t143 199l449 706q57 92 -35 109l-96 20l-2 80h1284l-55 -422h-142l-22 170q-10 80 -50 120t-339 40h-64l-69 -496h22q92 0 133 12t62 54l69 139h105l-113 -496h-104
l2 131q2 40 -32 54t-142 14h-15l-67 -508h71q178 0 256 11t120 42t77 107l70 151h147l-94 -403h-1071l12 80l105 22q47 10 53 50l41 303h-387l-64 -103q-86 -125 -86 -183zM1565 1745l-412 -373h-92l244 373h260z" />
    <glyph glyph-name="aeacute" unicode="&#x1fd;" horiz-adv-x="1415" 
d="M1227 1427l-412 -372h-92l244 372h260zM1198 745q0 37 -54 67t-95 30t-73 -32t-78 -146t-62 -244h8q202 114 278 180t76 145zM499 831q-45 0 -77 -32q-62 -61 -106 -201t-44 -242q0 -100 26 -150t58 -50q64 0 125 88q60 88 115 186q55 99 76 133q27 53 47 84
q-37 76 -106 130t-114 54zM1149 961q117 1 185 -57t67 -148q1 -54 -21 -80t-52 -57q-40 -42 -196 -121q-156 -78 -292 -150v-26q0 -88 50 -144t120 -57q70 0 270 135l33 -43q-88 -113 -179 -179t-221 -65q-130 0 -217 94q-86 94 -90 240v14q-98 -166 -180 -257t-170 -91
t-150 81q-61 82 -61 224t65 289t171 254q141 141 284 141q79 0 129 -64t66 -169q170 236 389 236z" />
    <glyph glyph-name="Oslashacute" unicode="&#x1fe;" horiz-adv-x="1464" 
d="M1180 1745l-412 -373h-92l244 373h260zM1061 1065l-539 -926q88 -73 186 -73q247 1 364 358q58 178 58 353t-69 288zM399 500q0 -182 70 -291l539 928q-70 75 -188 75t-202 -76q-138 -126 -196 -424q-23 -114 -23 -212zM713 -31q-147 0 -258 51l-101 -172h-94l121 209
q-127 78 -199 210t-69 296q0 307 192 516q211 227 512 228q139 0 258 -52l90 154h97q-113 -190 -113 -192q127 -76 199 -208t69 -296q0 -317 -227 -549q-188 -195 -477 -195z" />
    <glyph glyph-name="oslashacute" unicode="&#x1ff;" horiz-adv-x="985" 
d="M922 1427l-412 -372h-92l244 372h260zM559 868q-85 0 -153 -114q-126 -209 -123 -457q0 -45 10 -96l360 620q-41 47 -94 47zM690 733q-358 -623 -360 -622q39 -49 94 -50q86 0 155 116t103 274t8 282zM426 -31q-92 0 -158 33l-153 -266h-88q10 18 28 51q17 33 57 99
t64 110l27 45q-139 115 -139 341t144 402q146 176 351 177q84 0 156 -33l170 297h90l-195 -336q140 -109 140 -339t-144 -406t-350 -175z" />
    <glyph glyph-name="Scommaaccent" unicode="&#x218;" horiz-adv-x="1095" 
d="M983 375q0 -184 -143 -295q-144 -111 -360 -111t-433 68l35 393l131 -2l63 -307q100 -45 220 -45t182 54q61 54 62 145t-66 145q-67 55 -217 137t-224 162q-73 81 -73 229t138 253t335 106q127 0 323 -47l113 34l-55 -420l-129 5l-43 274q-110 45 -214 45t-164 -46
t-60 -104t16 -96q18 -39 71 -83t196 -119q143 -76 219 -159t77 -216zM625 -311q-41 -182 -332 -273l-29 56q166 50 184 145q10 49 -8 81q-16 32 -41 47q-65 39 -65 42q8 45 54 79t112 27t104 -67t21 -137z" />
    <glyph glyph-name="scommaaccent" unicode="&#x219;" horiz-adv-x="784" 
d="M778 786q0 -59 -33 -94t-85 -35t-82 32t-29 69q0 37 12 59q-82 45 -168 51q-29 -18 -55 -56t-30 -67q-3 -29 28 -65q30 -35 46 -52t47 -45q30 -28 39 -37t34 -33t32 -31q6 -7 28 -27q22 -19 29 -29t35 -44q46 -57 46 -136q-4 -121 -119 -199t-251 -78t-224 43t-88 138
q0 57 34 92q34 34 86 34t80 -32t29 -68q0 -37 -12 -59q100 -49 194 -54q27 19 53 59t26 60q1 51 -37 92q-38 40 -106 99t-113 107q-110 117 -105 208q6 129 115 201q110 72 249 72q295 -1 295 -175zM182 -131q43 31 109 24q65 -7 103 -65t18 -145q-20 -86 -106 -154
q-87 -68 -212 -102l-33 49q158 45 183 153q16 82 -69 133q-19 12 -33 20t-13 9q10 47 53 78z" />
    <glyph glyph-name="uni021A" unicode="&#x21a;" horiz-adv-x="1312" 
d="M602 1188q-139 0 -195 -29t-104 -133l-72 -176h-147l92 430h1184l-55 -430h-134l-22 170q-15 104 -65 135t-191 33h-12l-138 -1034q-6 -39 41 -50l123 -22l6 -82h-626l6 82l127 22q49 8 53 50l137 1034h-8zM717 -311q-41 -182 -332 -273l-29 56q166 50 184 145
q10 49 -8 81q-16 32 -40 47q-66 40 -66 42q8 45 54 79t112 27t104 -67t21 -137z" />
    <glyph glyph-name="uni021B" unicode="&#x21b;" horiz-adv-x="677" 
d="M266 946l51 266h222l-62 -294h258l6 -117h-284l-152 -672l57 -18l150 104l37 -43q-49 -82 -130 -143t-139 -61t-133 29q-74 30 -67 50l158 737l-168 17l6 69zM367 -317q-41 -182 -332 -273l-29 55q166 50 184 146q10 49 -8 81q-16 32 -41 47q-65 39 -65 42q8 45 54 79
t112 26t103 -66q38 -59 22 -137z" />
    <glyph glyph-name="dotlessj" unicode="&#x237;" horiz-adv-x="546" 
d="M369 928q21 0 37 -184t10 -205q-145 -643 -213 -711q-80 -219 -213 -297q-60 -31 -118 -33t-99 27q-53 23 -72 64q-18 42 2 85q53 66 135 13q37 0 68 -28t35 -67q2 4 41 77t67 198q13 40 61 261q48 222 54 245l72 426l-117 -72l-72 -49q2 6 11 25q10 19 14 29t22 47
q27 52 58 52q38 45 106 76t111 21z" />
    <glyph glyph-name="circumflex" unicode="&#x2c6;" horiz-adv-x="819" 
d="M770 1055h-94l-176 245h-4l-242 -245h-94l233 372h242z" />
    <glyph glyph-name="caron" unicode="&#x2c7;" horiz-adv-x="819" 
d="M817 1427l-231 -372h-244l-131 372h90l176 -245h4l244 245h92z" />
    <glyph glyph-name="breve" unicode="&#x2d8;" horiz-adv-x="819" 
d="M463 1044q-133 0 -191 100t-65 283h90q29 -119 69 -182t114 -63t132 64q59 64 123 181h88q-102 -383 -360 -383z" />
    <glyph glyph-name="dotaccent" unicode="&#x2d9;" horiz-adv-x="819" 
d="M645 1251q0 -61 -38 -103t-100 -42t-99 42t-37 103t37 105t99 43q62 1 100 -43t38 -105z" />
    <glyph glyph-name="ring" unicode="&#x2da;" horiz-adv-x="819" 
d="M639 1255q0 57 -36 99t-95 41q-59 0 -95 -41q-36 -40 -36 -98t36 -98t95 -40t95 40t36 97zM709 1255q1 -86 -55 -145t-147 -59t-148 59q-56 59 -54 145q2 85 57 145q56 60 146 60t146 -60t55 -145z" />
    <glyph glyph-name="ogonek" unicode="&#x2db;" horiz-adv-x="819" 
d="M205 -248q1 -128 145 -129q72 0 158 43l14 -53q-128 -100 -236 -100t-172 54t-65 150q0 95 95 185t239 141h115q-141 -63 -217 -146t-76 -145z" />
    <glyph glyph-name="tilde" unicode="&#x2dc;" horiz-adv-x="819" 
d="M312 1217q-32 0 -52 -27t-57 -100h-88q63 276 245 276q68 0 165 -72t129 -72t58 28t60 98h86q-66 -276 -248 -277q-68 0 -167 73t-131 73z" />
    <glyph glyph-name="hungarumlaut" unicode="&#x2dd;" horiz-adv-x="819" 
d="M674 1427l-398 -372h-86l240 372h244zM1034 1427l-397 -372h-84l238 372h243z" />
    <glyph glyph-name="Wgrave" unicode="&#x1e80;" horiz-adv-x="1908" 
d="M1247 1372h-94l-309 373h260zM2060 1280l-6 -84l-61 -18q-72 -20 -117 -72t-119 -211l-381 -895h-233l-115 788h-14l-359 -788h-235l-193 1094q-8 39 -24 57t-53 27l-84 18l-7 84h617l-6 -84l-86 -12q-78 -10 -54 -158l107 -795h14l324 730l-21 133q-4 37 -21 56t-56 28
l-84 18l-7 84h615l-6 -84l-86 -12q-45 -6 -57 -42t3 -116l105 -793h16l266 676q58 135 56 195t-62 76l-61 16l-6 84h491z" />
    <glyph glyph-name="wgrave" unicode="&#x1e81;" horiz-adv-x="1499" 
d="M979 1055h-94l-310 372h261zM262 961q45 0 122 -30t77 -54l6 -762h18l289 651l-10 195l223 -41l33 -805h20l195 383q70 135 70 183t-39 86t-101 50q15 63 63 105t114 41t112 -47q47 -46 46 -113q-2 -111 -92 -257q-32 -50 -114 -171l-241 -367l-246 -39l-12 627h-17
l-268 -588l-262 -39l-21 826l-59 12l-131 -148l-41 46q45 98 119 177t147 79z" />
    <glyph glyph-name="Wacute" unicode="&#x1e82;" horiz-adv-x="1908" 
d="M2060 1280l-6 -84l-61 -18q-72 -20 -117 -72t-119 -211l-381 -895h-233l-115 788h-14l-359 -788h-235l-193 1094q-8 39 -24 57t-53 27l-84 18l-7 84h617l-6 -84l-86 -12q-78 -10 -54 -158l107 -795h14l324 730l-21 133q-4 37 -21 56t-56 28l-84 18l-7 84h615l-6 -84
l-86 -12q-45 -6 -57 -42t3 -116l105 -793h16l266 676q58 135 56 195t-62 76l-61 16l-6 84h491zM1468 1745l-411 -373h-92l243 373h260z" />
    <glyph glyph-name="wacute" unicode="&#x1e83;" horiz-adv-x="1499" 
d="M262 961q45 0 122 -30t77 -54l6 -762h18l289 651l-10 195l223 -41l33 -805h20l195 383q70 135 70 183t-39 86t-101 50q15 63 63 105t114 41t112 -47q47 -46 46 -113q-2 -111 -92 -257q-32 -50 -114 -171l-241 -367l-246 -39l-12 627h-17l-268 -588l-262 -39l-21 826
l-59 12l-131 -148l-41 46q45 98 119 177t147 79zM1266 1427l-412 -372h-92l244 372h260z" />
    <glyph glyph-name="Wdieresis" unicode="&#x1e84;" horiz-adv-x="1908" 
d="M2060 1280l-6 -84l-61 -18q-72 -20 -117 -72t-119 -211l-381 -895h-233l-115 788h-14l-359 -788h-235l-193 1094q-8 39 -24 57t-53 27l-84 18l-7 84h617l-6 -84l-86 -12q-78 -10 -54 -158l107 -795h14l324 730l-21 133q-4 37 -21 56t-56 28l-84 18l-7 84h615l-6 -84
l-86 -12q-45 -6 -57 -42t3 -116l105 -793h16l266 676q58 135 56 195t-62 76l-61 16l-6 84h491zM1020 1559q0 -59 -36 -101t-97 -41q-61 0 -99 41q-36 40 -36 100t36 102t98 42t98 -42t36 -101zM1458 1559q0 -59 -36 -101t-97 -41q-61 0 -97 41q-36 40 -36 100t36 102t97 42
t97 -42t36 -101z" />
    <glyph glyph-name="wdieresis" unicode="&#x1e85;" horiz-adv-x="1499" 
d="M262 961q45 0 122 -30t77 -54l6 -762h18l289 651l-10 195l223 -41l33 -805h20l195 383q70 135 70 183t-39 86t-101 50q15 63 63 105t114 41t112 -47q47 -46 46 -113q-2 -111 -92 -257q-32 -50 -114 -171l-241 -367l-246 -39l-12 627h-17l-268 -588l-262 -39l-21 826
l-59 12l-131 -148l-41 46q45 98 119 177t147 79zM801 1241q0 -59 -36 -100t-97 -41t-99 41q-37 41 -37 100t37 101t99 42t97 -42q36 -42 36 -101zM1239 1241q0 -59 -36 -100t-97 -41t-97 41t-36 100t36 101t97 42t97 -42t36 -101z" />
    <glyph glyph-name="thinspace" unicode="&#x2009;" horiz-adv-x="155" 
 />
    <glyph glyph-name="endash" unicode="&#x2013;" horiz-adv-x="962" 
d="M907 440h-844l7 123h831z" />
    <glyph glyph-name="emdash" unicode="&#x2014;" horiz-adv-x="1925" 
d="M1870 440h-1807l7 123h1794z" />
    <glyph glyph-name="quoteleft" unicode="&#x2018;" horiz-adv-x="495" 
d="M282 715q-74 0 -125 57q-52 57 -53 137q0 127 121 247t314 204l41 -49q-104 -57 -178 -137t-72 -157q0 -77 82 -141q25 -21 43 -32q-7 -51 -53 -90t-120 -39z" />
    <glyph glyph-name="quoteright" unicode="&#x2019;" horiz-adv-x="495" 
d="M524 1145q0 -121 -108 -232t-277 -196l-51 49q98 55 163 128t64 144q0 99 -127 172l-14 9q0 51 47 91t120 40t128 -60t55 -145z" />
    <glyph glyph-name="quotesinglbase" unicode="&#x201a;" horiz-adv-x="495" 
d="M358 78q0 -121 -108 -232t-277 -196l-51 49q98 55 163 128t65 144q0 96 -142 181q0 51 47 91t120 40q73 -1 128 -61t55 -144z" />
    <glyph glyph-name="quotedblleft" unicode="&#x201c;" horiz-adv-x="937" 
d="M457 844q0 -49 -48 -89t-121 -40t-128 60t-56 145q0 120 109 230t279 198l49 -50q-97 -57 -161 -130t-64 -153t91 -138q22 -15 36 -23t14 -10zM911 844q0 -49 -47 -89q-48 -40 -120 -40t-128 60q-55 60 -55 145q0 227 385 428l51 -50q-98 -57 -161 -130q-64 -73 -64 -152
q-2 -88 124 -162q14 -8 15 -10z" />
    <glyph glyph-name="quotedblright" unicode="&#x201d;" horiz-adv-x="937" 
d="M322 1038q0 97 -140 181q0 51 47 91t119 40t128 -60t56 -145q0 -121 -108 -232t-279 -196l-49 49q96 53 161 127t65 145zM987 1145q-1 -121 -109 -232t-276 -196l-49 49q96 55 161 128t64 144q0 99 -127 172l-14 9q0 51 47 91t120 40t128 -60t55 -145z" />
    <glyph glyph-name="quotedblbase" unicode="&#x201e;" horiz-adv-x="937" 
d="M367 78q0 -121 -109 -232t-278 -196l-50 49q96 53 161 127t65 142t-42 110q-42 41 -98 74q0 51 47 91t119 40q72 -1 128 -61t57 -144zM821 78q-1 -121 -109 -232t-276 -196l-49 49q96 55 161 128q64 73 64 142t-43 108t-98 75q0 51 47 91t120 40q73 -1 128 -61t55 -144z
" />
    <glyph glyph-name="dagger" unicode="&#x2020;" horiz-adv-x="962" 
d="M584 795v-1112h-92v1112h-367l-8 94h375v393h92v-393h377l-9 -94h-368z" />
    <glyph glyph-name="daggerdbl" unicode="&#x2021;" horiz-adv-x="962" 
d="M586 41v-358h-90v358h-375l8 92h367v692h-367l-8 93h375v364h90v-364h377l-9 -93h-368v-692h368l9 -92h-377z" />
    <glyph glyph-name="bullet" unicode="&#x2022;" horiz-adv-x="931" 
d="M860 475q0 -45 -41 -146t-73 -133t-134 -74t-146 -42t-146 42t-133 74q-30 32 -72 134q-43 102 -43 146t43 146t73 132q32 30 134 72t146 42t145 -42t132 -72t73 -132t42 -147z" />
    <glyph glyph-name="ellipsis" unicode="&#x2026;" horiz-adv-x="1425" 
d="M197 285q69 0 113 -46q44 -47 44 -111t-46 -112t-112 -49q-66 0 -113 47q-46 47 -46 113t46 112t114 46zM672 285q68 0 112 -46q44 -47 45 -111q0 -64 -46 -112q-47 -48 -113 -49q-66 0 -112 47t-46 113t46 112t114 46zM1305 128q-1 -64 -47 -112t-112 -49q-66 0 -113 47
q-46 47 -46 113t46 112t114 46t113 -46q45 -47 45 -111z" />
    <glyph glyph-name="perthousand" unicode="&#x2030;" horiz-adv-x="2306" 
d="M1384 314q0 106 -66 169t-170 63t-182 -85q-78 -87 -77 -193q0 -106 64 -168q65 -61 169 -61t184 85q78 84 78 190zM2165 314q0 106 -67 169q-66 63 -170 63t-182 -85q-78 -87 -77 -193q0 -106 65 -168t169 -61q104 0 183 85q79 84 79 190zM696 998q0 108 -64 172
t-170 65q-106 0 -184 -86q-78 -87 -77 -193q0 -106 65 -168q66 -61 172 -61t182 81q76 82 76 190zM791 266q-1 148 107 260t254 111q146 0 238 -82q92 -81 93 -229q0 -148 -111 -260t-258 -113q-147 0 -235 82q-88 83 -88 231zM2263 326q0 -148 -111 -260t-258 -113
q-147 0 -235 82q-88 83 -88 231q-1 148 107 260t254 111q146 0 239 -82q92 -81 92 -229zM1493 1309l-1290 -1340h-121l1290 1340h121zM467 1325q145 0 239 -82q94 -83 93 -231q0 -148 -110 -260t-256 -111q-146 0 -238 84q-93 85 -93 231t110 258t255 111z" />
    <glyph glyph-name="guilsinglleft" unicode="&#x2039;" horiz-adv-x="614" 
d="M512 127l-27 -43l-438 315v115l533 324l18 -43l-371 -342z" />
    <glyph glyph-name="guilsinglright" unicode="&#x203a;" horiz-adv-x="614" 
d="M569 391l-518 -315l-18 43l338 334l-254 333l26 43l439 -315z" />
    <glyph glyph-name="fraction" unicode="&#x2044;" horiz-adv-x="1075" 
d="M1081 1307l-958 -1338h-129l960 1338h127z" />
    <glyph glyph-name="zerosuperior" unicode="&#x2070;" horiz-adv-x="675" 
d="M295 594q61 0 103 201t42 370q0 131 -64 131t-106 -204q-41 -204 -41 -377q0 -121 66 -121zM297 541q-274 0 -274 286q0 171 74 333q38 83 111 135t167 53q143 0 209 -81t66 -235t-73 -308q-38 -81 -111 -132t-169 -51z" />
    <glyph glyph-name="foursuperior" unicode="&#x2074;" horiz-adv-x="675" 
d="M102 850h252l52 311h-15zM311 559l35 209h-334l-6 70l486 522l126 -37l-73 -473h133l-19 -82h-122l-35 -209h-191z" />
    <glyph glyph-name="fivesuperior" unicode="&#x2075;" horiz-adv-x="675" 
d="M256 535q-66 0 -118 9t-94 42t-42 78q0 46 27 72t65 26q123 0 123 -164q12 -4 41 -4q158 0 158 131q0 82 -82 127t-244 72l160 409h426l-21 -159h-385l-39 -103q362 -61 363 -258q0 -121 -104 -199t-234 -79z" />
    <glyph glyph-name="sixsuperior" unicode="&#x2076;" horiz-adv-x="675" 
d="M319 600q39 0 79 60t40 161q0 143 -80 144q-35 0 -88 -43q-25 -61 -24 -152q-1 -170 73 -170zM450 1055q96 -1 150 -57q53 -56 53 -160q1 -104 -101 -202q-102 -97 -234 -97t-210 93t-77 224q0 171 141 314q72 73 204 122t306 60l16 -56q-354 -55 -440 -325h6
q90 84 186 84z" />
    <glyph glyph-name="sevensuperior" unicode="&#x2077;" horiz-adv-x="675" 
d="M453 1182q-166 0 -209 -8t-68 -37l-57 -74h-60l78 270h600v-45l-497 -741h-160l481 635h-108z" />
    <glyph glyph-name="eightsuperior" unicode="&#x2078;" horiz-adv-x="675" 
d="M314 602q58 0 92 27q33 27 32 75t-27 81q-27 34 -87 68q-60 35 -64 38q-76 -51 -76 -152q0 -61 36 -99t94 -38zM358 1288q-53 0 -85 -28q-31 -28 -31 -66q0 -39 11 -57q11 -17 16 -27t19 -21t21 -17t25 -17q18 -9 23 -13t26 -15t23 -13q68 51 67 143q0 55 -31 93t-84 38z
M623 782q1 -111 -99 -174t-222 -63t-214 48t-92 131t57 136t137 66v4q-127 76 -127 182q-1 106 91 172t214 66t206 -47t83 -142q4 -141 -188 -178v-2q154 -88 154 -199z" />
    <glyph glyph-name="ninesuperior" unicode="&#x2079;" horiz-adv-x="675" 
d="M346 924q35 0 88 43q25 57 25 151q0 168 -76 168q-35 0 -75 -59t-40 -160q0 -143 78 -143zM51 1036q1 121 101 216q100 96 234 96t212 -92t78 -226q0 -168 -141 -313q-72 -74 -205 -123t-307 -57l-19 53q182 31 293 116t149 209h-4q-92 -81 -187 -81t-150 56
q-54 56 -54 146z" />
    <glyph glyph-name="plussuperior" unicode="&#x207a;" horiz-adv-x="675" 
d="M379 909v-221h-68v221h-223l4 68h219v223h68v-223h217l4 -68h-221z" />
    <glyph glyph-name="minussuperior" unicode="&#x207b;" horiz-adv-x="675" 
d="M614 911h-512l2 68h506z" />
    <glyph glyph-name="zeroinferior" unicode="&#x2080;" horiz-adv-x="675" 
d="M295 -258q61 0 103 201t42 370q0 131 -64 131t-106 -204q-41 -204 -41 -377q0 -121 66 -121zM297 -311q-274 0 -274 286q0 171 74 333q38 83 111 135t167 53q143 0 209 -81t66 -235t-73 -308q-38 -81 -111 -132t-169 -51z" />
    <glyph glyph-name="oneinferior" unicode="&#x2081;" horiz-adv-x="675" 
d="M53 -293l4 70l123 14q33 2 37 29l76 522l-148 25l11 49l372 88l-98 -684q-4 -25 25 -29l88 -14l4 -70h-494z" />
    <glyph glyph-name="twoinferior" unicode="&#x2082;" horiz-adv-x="675" 
d="M-18 -293v82q44 37 124 96t122 93q127 103 162 177q22 46 22 98t-39 82t-86 30q-98 0 -219 -84l-15 34q49 66 143 123q94 58 196 58q104 0 170 -56t67 -147q0 -115 -139 -219t-334 -219v-9h86q162 0 206 4t62 23l41 57h57l-78 -223h-548z" />
    <glyph glyph-name="threeinferior" unicode="&#x2083;" horiz-adv-x="675" 
d="M233 -262q70 0 111 58t41 141q0 104 -98 104q-20 0 -86 -18l-25 53q182 88 218 122t36 76t-36 65q-36 24 -85 23q-106 0 -219 -94l-14 37q72 90 166 140q94 51 186 51t158 -42t66 -104t-20 -86q-18 -24 -30 -38t-38 -29t-39 -23t-45 -20t-43 -16t-47 -16q-36 -11 -42 -13
v-13q55 18 103 19q158 0 157 -160q0 -119 -117 -199t-260 -80q-77 0 -157 35t-80 105q0 36 26 62t64 26q63 0 90 -50t23 -112q24 -4 36 -4z" />
    <glyph glyph-name="fourinferior" unicode="&#x2084;" horiz-adv-x="675" 
d="M102 -2h252l52 311h-15zM311 -293l35 209h-334l-6 70l486 522l126 -37l-73 -473h133l-19 -82h-122l-35 -209h-191z" />
    <glyph glyph-name="fiveinferior" unicode="&#x2085;" horiz-adv-x="675" 
d="M256 -317q-66 0 -118 9t-94 42t-42 78q0 46 27 72t65 26q123 0 123 -164q12 -4 41 -4q158 0 158 131q0 82 -82 127t-244 72l160 409h426l-21 -159h-385l-39 -103q362 -61 363 -258q0 -121 -104 -199t-234 -79z" />
    <glyph glyph-name="sixinferior" unicode="&#x2086;" horiz-adv-x="675" 
d="M319 -252q39 0 79 60t40 161q0 143 -80 144q-35 0 -88 -43q-25 -61 -24 -152q-1 -170 73 -170zM450 203q96 -1 150 -57q53 -56 53 -160q1 -104 -101 -202q-102 -97 -234 -97t-210 93t-77 224q0 171 141 314q72 73 204 122t306 60l16 -56q-354 -55 -440 -325h6
q90 84 186 84z" />
    <glyph glyph-name="seveninferior" unicode="&#x2087;" horiz-adv-x="675" 
d="M453 330q-166 0 -209 -8t-68 -37l-57 -74h-60l78 270h600v-45l-497 -741h-160l481 635h-108z" />
    <glyph glyph-name="eightinferior" unicode="&#x2088;" horiz-adv-x="675" 
d="M314 -250q58 0 92 27q33 27 32 75t-27 81q-27 34 -87 68q-60 35 -64 38q-76 -51 -76 -152q0 -61 36 -99t94 -38zM358 436q-53 0 -85 -28q-31 -28 -31 -66q0 -39 11 -57q11 -17 16 -27t19 -21t21 -17t25 -17q18 -9 23 -13t26 -15t23 -13q68 51 67 143q0 55 -31 93t-84 38z
M623 -70q1 -111 -99 -174t-222 -63t-214 48t-92 131t57 136t137 66v4q-127 76 -127 182q-1 106 91 172t214 66t206 -47t83 -142q4 -141 -188 -178v-2q154 -88 154 -199z" />
    <glyph glyph-name="nineinferior" unicode="&#x2089;" horiz-adv-x="675" 
d="M346 72q35 0 88 43q25 57 25 151q0 168 -76 168q-35 0 -75 -59t-40 -160q0 -143 78 -143zM51 184q1 121 101 216q100 96 234 96t212 -92t78 -226q0 -168 -141 -313q-72 -74 -205 -123t-307 -57l-19 53q182 31 293 116t149 209h-4q-92 -81 -187 -81t-150 56
q-54 56 -54 146z" />
    <glyph glyph-name="Euro" unicode="&#x20ac;" horiz-adv-x="1062" 
d="M692 121q133 0 275 117l28 -41q-59 -99 -165 -163t-224 -65q-198 0 -314 132t-138 341h-134l7 97h123v12q4 82 14 145h-111l6 97h127q66 221 224 359t368 138q142 0 226 -51t85 -117t-32 -105q-33 -38 -90 -38t-96 54q-38 54 -33 130q-45 33 -111 33q-117 0 -204 -109
t-124 -294h414l6 -97h-436q-8 -90 -8 -135v-22h405l6 -97h-403q20 -154 98 -238t211 -83z" />
    <glyph glyph-name="trademark" unicode="&#x2122;" horiz-adv-x="1918" 
d="M831 1280v-297h-83l-11 39q-33 121 -63 157q-31 36 -123 35h-2v-593q0 -23 24 -29l80 -12l4 -62h-385l4 62l80 12q27 6 27 29v593h-2q-80 0 -114 -38t-68 -154l-13 -39h-77l16 297h706zM1931 518h-370l2 62l67 14q16 4 22 26q5 22 3 95l-10 475h-21l-199 -647h-139
l-153 653h-21l-12 -399q-4 -135 -1 -168t23 -39l66 -10l4 -62h-285l4 62l62 10q25 4 34 39t13 168l12 379q0 27 -24 30l-72 13l-4 61h348l113 -557h20l160 557h344l-4 -61l-68 -13q-29 -6 -28 -30l8 -461q2 -73 11 -95t30 -26l61 -14z" />
    <glyph glyph-name="minus" unicode="&#x2212;" horiz-adv-x="983" 
d="M905 422h-829l6 117h817z" />
    <glyph glyph-name="uni2215" unicode="&#x2215;" horiz-adv-x="1075" 
d="M1081 1307l-958 -1338h-129l960 1338h127z" />
    <glyph glyph-name="approxequal" unicode="&#x2248;" horiz-adv-x="983" 
d="M317 324q-31 0 -48 -4t-42 -32t-43 -83h-102q20 109 80 172t132 63q70 0 200 -68t166 -67q37 0 54 4t42 32t43 83h102q-21 -109 -81 -172q-60 -64 -138 -64t-206 68t-159 68zM317 666q-31 0 -48 -4t-42 -32t-43 -83h-102q20 109 80 172t132 63q70 0 200 -68t166 -67
q37 0 54 4t42 32t43 83h102q-21 -109 -81 -172q-60 -64 -138 -64t-206 68t-159 68z" />
    <glyph glyph-name="notequal" unicode="&#x2260;" horiz-adv-x="983" 
d="M287 -47l84 295h-291l6 117h317l66 231h-383l-6 117h422l78 274h114l-78 -274h287l-6 -117h-313l-66 -231h379l6 -117h-418l-84 -295h-114z" />
    <glyph glyph-name="lessequal" unicode="&#x2264;" horiz-adv-x="983" 
d="M918 4h-852l6 117h839zM274 553l629 -262l-29 -105l-808 340v74l808 340l29 -104l-629 -263v-20z" />
    <glyph glyph-name="greaterequal" unicode="&#x2265;" horiz-adv-x="983" 
d="M918 4h-852l6 117h839zM80 291l629 262v20l-629 263l29 104l809 -340v-74l-809 -340z" />
    <glyph glyph-name="pcircle" unicode="&#x24df;" horiz-adv-x="1572" 
d="M971 784q0 78 -47 121t-121 43h-58v-327q53 -8 80 -9q68 0 107 47t39 125zM825 1018q154 0 232 -56t78 -164t-87 -181t-214 -72q-47 0 -89 6v-180q0 -20 29 -27l74 -14l4 -70h-358l4 70l59 14q27 6 27 27v536q0 20 -27 27l-59 16l-4 68h331zM1417 638q0 264 -185 452
q-186 188 -446 188t-445 -188t-185 -452t185 -450q185 -188 445 -188t446 187q185 188 185 451zM1501 638q0 -298 -209 -506t-506 -208q-298 0 -506 208t-208 506t209 508t505 210t506 -210q209 -210 209 -508z" />
    <glyph glyph-name="commaaccent" unicode="&#xf6c3;" horiz-adv-x="819" 
d="M100 -209q10 47 54 78t108 24q66 -7 104 -65t18 -145q-20 -86 -106 -154t-212 -102l-33 49q158 45 182 153q16 82 -69 133q-19 12 -32 20t-14 9z" />
    <glyph glyph-name="J.alt" horiz-adv-x="1058" 
d="M268 282q0 -66 -57 -114q23 -43 72 -72t98 -28q190 0 229 299l99 761q4 41 -41 50l-138 22l-6 80h611l-7 -80l-114 -22q-45 -8 -51 -50l-103 -741q-29 -209 -162 -313t-310 -104t-292 81q-115 82 -114 209q0 70 46 116t105 44t97 -37t38 -101z" />
    <glyph glyph-name="germandbls.alt1" horiz-adv-x="1259" 
d="M973 1246q0 -66 -36 -106t-94 -40t-99 55q-40 55 -52 141l-129 -22q-31 -86 -82 -356l-143 -728q-88 -444 -229 -587q-104 -106 -256 -107q-86 0 -145 46q-58 46 -58 110t34 98q34 35 91 35t97 -48t48 -120l109 33q31 78 77 344l121 792l-174 15l6 69l197 64
q47 229 175 357t314 128q100 0 164 -53q64 -54 64 -120zM779 -31q-136 0 -220 43t-84 138q0 59 34 93q34 33 86 33t81 -32t29 -68q0 -37 -13 -59q90 -45 207 -51q20 16 46 68t11 90q-15 37 -44 64t-65 60q-174 159 -212 217q-39 57 -35 119q6 135 112 206t246 71
q295 0 295 -175q-1 -57 -33 -92t-84 -35t-82 32t-30 68t12 58q-84 45 -180 51q-25 -20 -50 -68t-8 -85q17 -38 49 -70q31 -32 61 -60t42 -40t38 -36t36 -34l31 -31q20 -20 28 -31q7 -11 23 -29q46 -56 47 -130q-6 -131 -122 -208t-252 -77z" />
    <glyph glyph-name="Jcircumflex.alt" horiz-adv-x="1058" 
d="M268 282q0 -66 -57 -114q23 -43 72 -72t98 -28q190 0 229 299l99 761q4 41 -41 50l-138 22l-6 80h611l-7 -80l-114 -22q-45 -8 -51 -50l-103 -741q-29 -209 -162 -313t-310 -104t-292 81q-115 82 -114 209q0 70 46 116t105 44t97 -37t38 -101zM1147 1372h-94l-176 246h-5
l-241 -246h-94l233 373h242z" />
    <glyph glyph-name="dot" horiz-adv-x="475" 
d="M379 488q0 -64 -46 -111t-113 -47q-66 0 -112 46t-46 112t46 111q46 46 114 46t112 -46q45 -47 45 -111z" />
    <glyph glyph-name="a.smallcap" horiz-adv-x="1028" 
d="M575 381l-75 395h-25l-184 -395h284zM291 0h-373l10 80l35 8q61 14 98 58t127 225l252 506l2 49l250 53l176 -829q6 -41 76 -60l43 -10v-80h-489l10 80l47 8q51 10 59 33t-10 117l-12 65h-336l-25 -53q-25 -66 -31 -94t3 -42q10 -15 43 -24l45 -10v-80z" />
    <glyph glyph-name="b.smallcap" horiz-adv-x="1067" 
d="M737 699q0 83 -52 129t-157 46h-45l-47 -354l99 2q90 2 146 48t56 129zM506 80q90 0 148 50t59 137t-57 134t-154 48h-76l-45 -347l63 -22h62zM963 262q0 -96 -70 -162q-98 -100 -365 -100h-505l12 80l69 18q35 8 39 35l90 688q4 27 -30 35l-64 18l-2 80h492
q358 0 358 -219q0 -96 -80 -155t-200 -78v-15q109 -13 183 -71t73 -154z" />
    <glyph glyph-name="c.smallcap" horiz-adv-x="1155" 
d="M541 -27q-219 0 -344 116t-125 332t169 385t418 169q145 0 263 -39l151 37l-49 -352h-139l-43 223q-61 47 -164 47q-158 -1 -252 -145t-94 -336t94 -287q62 -63 156 -63t153 32l119 232h143l-71 -324l-105 20q-125 -47 -280 -47z" />
    <glyph glyph-name="d.smallcap" horiz-adv-x="1173" 
d="M836 504q0 180 -80 274t-219 94h-56l-100 -759l106 -29q157 -4 253 118t96 302zM1100 518q0 -198 -167 -358t-472 -160h-438l12 80l69 18q35 8 39 35l90 688q4 27 -30 35l-64 18l-6 80l461 2q231 2 369 -118q137 -122 137 -320z" />
    <glyph glyph-name="e.smallcap" horiz-adv-x="1089" 
d="M487 516q109 0 138 53l53 107h92l-88 -383h-90l-4 96q-2 33 -25 44t-92 11h-45l-47 -362h100q166 0 230 23q63 24 98 104l45 113h135l-72 -322h-892l12 80l69 18q35 8 39 35l90 688q4 27 -30 35l-64 18l-6 80h918l-43 -327h-125l-17 118q-10 82 -63 105t-221 22h-101
l-45 -356h51z" />
    <glyph glyph-name="f.smallcap" horiz-adv-x="1056" 
d="M489 496q59 0 91 9t49 44l51 104h94l-88 -383h-90l-4 97q-2 33 -25 44t-92 11h-51l-39 -289q-4 -29 29 -35l94 -18l-2 -80h-483l12 80l69 18q35 8 39 35l90 688q4 27 -30 35l-64 18l-6 80h901l-41 -327h-125l-16 118q-12 82 -66 105t-221 22h-82l-51 -376h57z" />
    <glyph glyph-name="g.smallcap" horiz-adv-x="1183" 
d="M570 -27q-238 0 -368 116t-130 333t168 381q168 172 419 172q145 0 263 -39l151 37l-49 -352h-139l-43 223q-61 47 -164 47q-158 -1 -252 -145t-94 -338t94 -287q60 -63 146 -63t128 20l29 225q2 29 -37 37l-63 18l-4 80h469l-9 -80l-75 -18q-35 -6 -41 -37l-25 -186
l90 -11l2 -59q-228 -74 -466 -74z" />
    <glyph glyph-name="h.smallcap" horiz-adv-x="1253" 
d="M1116 0h-459l7 80l69 18q37 10 39 35l43 311h-389l-41 -311q-4 -27 29 -35l67 -18l6 -80h-458l6 80l69 18q35 8 39 35l90 688q4 27 -30 35l-64 18l-6 80h457l-4 -80l-72 -18q-35 -8 -39 -35l-39 -295h387l39 295q4 28 -28 35l-66 18l-6 80h459l-7 -80l-71 -18
q-37 -8 -41 -35l-90 -688q-4 -25 32 -35l66 -18z" />
    <glyph glyph-name="i.smallcap" horiz-adv-x="659" 
d="M520 0h-493l10 80l84 18q35 6 39 35l90 688q4 29 -29 35l-80 18l-8 80h494l-9 -80l-86 -18q-35 -6 -38 -35l-91 -688q-4 -29 31 -35l80 -18z" />
    <glyph glyph-name="j.smallcap" horiz-adv-x="772" 
d="M158 -29q-90 0 -143 41q-52 40 -49 92t32 80q30 28 84 27q54 0 86 -44t27 -118h20q45 31 71 95t42 186l63 491q4 29 -29 35l-94 18l-6 80h494l-6 -80l-76 -18q-37 -8 -41 -35l-49 -381q-61 -469 -426 -469z" />
    <glyph glyph-name="j.smallcap.alt" horiz-adv-x="886" 
d="M284 -31q-146 -1 -229 59q-84 60 -84 130t37 110q37 39 87 39q50 1 84 -27t34 -80t-47 -89q44 -55 110 -55q136 -1 164 218l74 547q4 29 -29 35l-94 18v80h488l-11 -80l-73 -18q-37 -8 -41 -35l-70 -506q-22 -164 -138 -255t-262 -91z" />
    <glyph glyph-name="k.smallcap" horiz-adv-x="1157" 
d="M1096 0h-455l4 80l39 12q33 8 10 55q-164 303 -166 304l-114 -97l-29 -221q-4 -27 29 -35l67 -18l6 -80h-458l6 80l69 18q35 8 39 35l90 688q4 27 -30 35l-64 18l-6 80h459l-6 -80l-72 -18q-35 -8 -39 -35l-47 -360l266 233q109 98 111 133q4 35 -39 43l-33 9l-6 75h430
l-6 -80l-66 -12q-96 -23 -254 -157l-118 -101l256 -450q25 -41 84 -62l37 -12z" />
    <glyph glyph-name="l.smallcap" horiz-adv-x="1001" 
d="M414 84q162 0 222 28t97 111l49 121h129l-77 -344h-805l6 80l69 18q35 8 39 35l90 688q4 27 -30 35l-64 18l-6 80h475l-6 -80l-88 -18q-35 -6 -39 -35l-96 -737h35z" />
    <glyph glyph-name="m.smallcap" horiz-adv-x="1464" 
d="M242 159q0 -43 6 -49t22 -12l82 -18l6 -80h-352l6 80l74 18q31 6 49 56t49 223l76 444q6 29 -27 37l-83 16l-7 80h471l66 -667h27l301 667h419l-6 -80l-78 -18q-35 -8 -38 -37l-58 -571q-13 -113 -4 -129q10 -16 29 -21l69 -18l7 -80h-469l6 80l71 18q25 6 34 31t18 119
l63 588h-24l-369 -805h-203l-96 817h-25l-80 -471q-32 -175 -32 -218z" />
    <glyph glyph-name="n.smallcap" horiz-adv-x="1222" 
d="M1210 954l-6 -80l-69 -16q-35 -8 -53 -61t-44 -232l-77 -575h-218l-401 731h-27l-41 -332q-20 -182 -16 -233t37 -60l78 -16l6 -80h-367l6 80l68 16q37 10 56 62t42 231l52 391q6 57 -35 74l-62 20l-8 80h367l385 -702h26l39 313q23 181 19 233t-39 60l-76 16l-6 80h364z
" />
    <glyph glyph-name="o.smallcap" horiz-adv-x="1155" 
d="M823 590q0 297 -202 297q-77 -1 -137 -57t-92 -142q-62 -167 -62 -335q0 -169 71 -242q45 -49 127 -49t142 56q59 56 91 142q62 167 62 330zM1081 537q0 -242 -178 -416q-153 -150 -359 -150t-338 126t-132 317q0 244 153 397q164 168 377 168t345 -126t132 -316z" />
    <glyph glyph-name="p.smallcap" horiz-adv-x="1046" 
d="M743 668q0 94 -54 151t-148 58h-60l-55 -428q37 -13 117 -13t140 69t60 163zM610 954q198 0 298 -74t100 -188q0 -116 -72 -193q-134 -143 -385 -143q-84 0 -137 9l-29 -232q-4 -29 29 -35l94 -18l6 -80h-485l6 80l69 18q35 8 39 35l90 688q4 27 -28 35l-66 18l-6 80h477
z" />
    <glyph glyph-name="q.smallcap" horiz-adv-x="1155" 
d="M823 590q0 297 -202 297q-77 -1 -137 -57t-92 -142q-62 -167 -62 -335q0 -169 71 -242q45 -49 127 -49t142 56q59 56 91 142q62 167 62 330zM764 -295q-152 -1 -239 61t-173 238q-126 49 -202 159t-76 251q0 244 153 397q164 168 377 168t345 -126t132 -316
q0 -242 -178 -416q-117 -115 -280 -141q75 -111 155 -145t252 -30l8 -71q-122 -29 -274 -29z" />
    <glyph glyph-name="r.smallcap" horiz-adv-x="1112" 
d="M760 680q0 94 -54 146t-145 53h-80l-51 -390l131 -18q83 7 141 61t58 148zM633 954q195 0 293 -72t98 -180q0 -207 -268 -284l147 -258q31 -61 96 -72l35 -8l6 -80h-335l-60 141l-119 256l-106 6l-35 -270q-4 -27 29 -35l67 -18l6 -80h-458l6 80l69 18q35 8 39 35l90 688
q4 27 -30 35l-64 18l-6 80h500z" />
    <glyph glyph-name="s.smallcap" horiz-adv-x="946" 
d="M819 285q0 -135 -110 -223q-111 -87 -294 -87t-360 45l33 306h127l49 -234q74 -26 157 -26t133 40t50 102q0 60 -47 98t-132 79t-120 61q-168 96 -168 244q1 123 107 203t288 82q109 0 267 -31l90 23l-43 -320h-117l-51 213q-86 29 -163 29t-120 -34t-43 -91t48 -98
q48 -40 136 -84t123 -66q105 -65 140 -135q20 -43 20 -96z" />
    <glyph glyph-name="t.smallcap" horiz-adv-x="1095" 
d="M457 870q-90 0 -133 -26t-74 -103l-51 -129h-131l71 342h959l-43 -342h-125l-15 125q-10 82 -45 108t-122 25h-27l-98 -737q-4 -27 30 -35l84 -18l6 -80h-493l6 80l86 18q35 8 39 35l98 737h-22z" />
    <glyph glyph-name="u.smallcap" horiz-adv-x="1165" 
d="M550 -33q-184 0 -292 83q-109 83 -108 233q0 18 4 63l65 475q4 27 -29 35l-65 18l-6 80h461l-7 -80l-73 -18q-35 -8 -39 -35l-60 -440q-8 -53 -8 -84q0 -215 234 -215q219 0 254 262l30 221q23 181 19 233t-39 60l-76 16l-6 80h365l-7 -80l-69 -16q-27 -6 -39 -22
q-26 -35 -60 -273l-34 -250q-23 -164 -127 -255t-288 -91z" />
    <glyph glyph-name="v.smallcap" horiz-adv-x="1028" 
d="M1112 954l-6 -82l-37 -8q-43 -10 -65 -24q-50 -31 -162 -256l-295 -584h-219l-178 803q-6 27 -22 38t-54 21l-41 10l-6 82h489l-4 -82l-49 -8q-53 -10 -60 -31q-6 -22 15 -116l110 -537h27l217 463q59 127 57 170t-59 53l-35 6l-6 82h383z" />
    <glyph glyph-name="w.smallcap" horiz-adv-x="1587" 
d="M1659 954l-6 -82l-35 -8q-57 -16 -101 -64t-124 -216l-283 -584h-207l-94 578h-25l-270 -578h-209l-160 803q-8 43 -73 59l-45 10l-7 82h500l-6 -82l-51 -8q-49 -8 -57 -36t6 -111l90 -514h24l238 520l-14 80q-4 43 -76 59l-43 10l-6 82h501l-6 -82l-49 -8
q-45 -8 -54 -38t3 -109l80 -514h24l191 426q61 139 62 182t-50 53l-39 8l-6 82h377z" />
    <glyph glyph-name="x.smallcap" horiz-adv-x="1075" 
d="M1008 0h-484l6 80l43 8q48 8 41 45q-4 20 -22 55l-117 213h-8l-156 -176q-70 -82 -53 -112q8 -14 39 -21l45 -10l6 -82h-385l6 80l45 12q84 25 203 148l205 221l-234 356q-18 33 -63 45l-43 12l-6 80h485l-6 -80l-45 -8q-39 -6 -40 -30t28 -80l102 -185h8l142 158
q104 115 14 133l-45 10l-6 82h385l-6 -80l-48 -12q-72 -20 -200 -149l-195 -201l248 -379q16 -27 61 -41l43 -12z" />
    <glyph glyph-name="y.smallcap" horiz-adv-x="1001" 
d="M1079 954l-6 -82l-29 -8q-49 -14 -97 -56t-126 -146l-205 -273l-32 -256q-4 -29 30 -35l86 -18l7 -80h-500l6 80l90 18q35 6 39 35l31 238l-234 448q-14 31 -63 45l-33 8l-6 82h477l-6 -82l-45 -6q-58 -11 -47 -74q6 -34 30 -92l103 -243h24l166 227q117 158 23 178
l-45 10l-6 82h368z" />
    <glyph glyph-name="z.smallcap" horiz-adv-x="1042" 
d="M530 870q-106 0 -152 -26t-83 -113l-45 -115h-117l33 338h850l-10 -86l-701 -774v-10h144q147 2 208 29t95 104l47 111h133l-76 -328h-838l11 80l688 780l2 10h-189z" />
    <glyph glyph-name="fi.smallcap" horiz-adv-x="1716" 
d="M489 496q59 0 91 9t49 44l51 104h94l-88 -383h-90l-4 97q-2 33 -25 44t-92 11h-51l-39 -289q-4 -29 29 -35l94 -18l-2 -80h-483l12 80l69 18q35 8 39 35l90 688q4 27 -30 35l-64 18l-6 80h901l-41 -327h-125l-16 118q-12 82 -66 105t-221 22h-82l-51 -376h57zM1577 0
h-492l9 80l86 18q35 6 39 35l90 688q4 29 -31 35l-80 18l-6 80h491l-8 -80l-86 -18q-35 -6 -39 -35l-90 -688q-4 -29 31 -35l80 -18z" />
    <glyph glyph-name="fl.smallcap" horiz-adv-x="2058" 
d="M489 496q59 0 91 9t49 44l51 104h94l-88 -383h-90l-4 97q-2 33 -25 44t-92 11h-51l-39 -289q-4 -29 29 -35l94 -18l-2 -80h-483l12 80l69 18q35 8 39 35l90 688q4 27 -30 35l-64 18l-6 80h901l-41 -327h-125l-16 118q-12 82 -66 105t-221 22h-82l-51 -376h57zM1470 84
q162 0 223 28q60 28 97 111l49 121h129l-78 -344h-805l7 80l69 18q35 8 39 35l90 688q4 27 -28 35l-66 18l-6 80h475l-6 -80l-88 -18q-35 -6 -39 -35l-96 -737h34z" />
    <glyph glyph-name="ff.smallcap" horiz-adv-x="2113" 
d="M1546 496q59 0 91 9t49 44l51 104h94l-88 -383h-90l-4 97q-2 33 -25 45t-92 12h-51l-39 -291q-4 -29 28 -35l95 -18l-2 -80h-484l13 80l69 18q35 8 39 35l90 688q4 27 -28 35l-66 18l-6 80h901l-41 -327h-125l-16 118q-11 82 -65 105t-222 22h-82l-51 -376h57zM489 496
q59 0 91 9t49 44l51 104h94l-88 -383h-90l-4 97q-2 33 -25 45t-92 12h-51l-39 -291q-4 -29 29 -35l94 -18l-2 -80h-483l12 80l69 18q35 8 39 35l90 688q4 27 -28 35l-66 18l-6 80h901l-41 -327h-125l-16 118q-12 82 -66 105t-221 22h-82l-51 -376h57z" />
    <glyph glyph-name="ffi.smallcap" horiz-adv-x="2772" 
d="M2634 0h-492l8 80l86 18q35 6 39 35l90 688q4 29 -30 35l-80 18l-6 80h491l-8 -80l-86 -18q-35 -6 -39 -35l-90 -688q-4 -29 31 -35l80 -18zM1546 496q59 0 91 9t49 44l51 104h94l-88 -383h-90l-4 97q-2 33 -25 45t-92 12h-51l-39 -291q-4 -29 28 -35l95 -18l-2 -80h-484
l13 80l69 18q35 8 39 35l90 688q4 27 -28 35l-66 18l-6 80h901l-41 -327h-125l-16 118q-11 82 -65 105t-222 22h-82l-51 -376h57zM489 496q59 0 91 9t49 44l51 104h94l-88 -383h-90l-4 97q-2 33 -25 45t-92 12h-51l-39 -291q-4 -29 29 -35l94 -18l-2 -80h-483l12 80l69 18
q35 8 39 35l90 688q4 27 -28 35l-66 18l-6 80h901l-41 -327h-125l-16 118q-12 82 -66 105t-221 22h-82l-51 -376h57z" />
    <glyph glyph-name="ffl.smallcap" horiz-adv-x="3115" 
d="M2527 84q162 0 222 28t98 111l49 121h129l-78 -344h-805l6 80l70 18q35 8 39 35l90 688q4 27 -29 35l-65 18l-6 80h475l-6 -80l-88 -18q-35 -6 -39 -35l-97 -737h35zM1546 496q59 0 91 9t49 44l51 104h94l-88 -383h-90l-4 97q-2 33 -25 45t-92 12h-51l-39 -291
q-4 -29 28 -35l95 -18l-2 -80h-484l13 80l69 18q35 8 39 35l90 688q4 27 -28 35l-66 18l-6 80h901l-41 -327h-125l-16 118q-11 82 -65 105t-222 22h-82l-51 -376h57zM489 496q59 0 91 9t49 44l51 104h94l-88 -383h-90l-4 97q-2 33 -25 45t-92 12h-51l-39 -291q-4 -29 29 -35
l94 -18l-2 -80h-483l12 80l69 18q35 8 39 35l90 688q4 27 -28 35l-66 18l-6 80h901l-41 -327h-125l-16 118q-12 82 -66 105t-221 22h-82l-51 -376h57z" />
    <glyph glyph-name="germandbls.smallcap" horiz-adv-x="1892" 
d="M819 285q0 -135 -110 -223q-111 -87 -294 -87t-360 45l33 306h127l49 -234q74 -26 157 -26t133 40t50 102q0 60 -47 98t-132 79t-120 61q-168 96 -168 244q1 123 107 203t288 82q109 0 267 -31l90 23l-43 -320h-117l-51 213q-86 29 -163 29t-120 -34t-43 -91t48 -98
q48 -40 136 -84t123 -66q105 -65 140 -135q20 -43 20 -96zM1765 285q0 -135 -110 -223q-111 -87 -294 -87t-360 45l33 306h127l49 -234q74 -26 157 -26t133 40t50 102q0 60 -47 98t-131 79t-120 61q-166 94 -167 244q-1 123 105 203t289 82q109 0 266 -31l90 23l-43 -320
h-117l-51 213q-86 29 -163 29t-120 -34t-43 -91t48 -98q48 -40 136 -84t124 -66q104 -63 139 -135q20 -43 20 -96z" />
    <glyph glyph-name="agrave.smallcap" horiz-adv-x="1028" 
d="M680 1055h-94l-310 372h261zM575 381l-75 395h-25l-184 -395h284zM291 0h-373l10 80l35 8q61 14 98 58t127 225l252 506l2 49l250 53l176 -829q6 -41 76 -60l43 -10v-80h-489l10 80l47 8q51 10 59 33t-10 117l-12 65h-336l-25 -53q-25 -66 -31 -94t3 -42q10 -15 43 -24
l45 -10v-80z" />
    <glyph glyph-name="aacute.smallcap" horiz-adv-x="1028" 
d="M973 1427l-412 -372h-92l244 372h260zM575 381l-75 395h-25l-184 -395h284zM291 0h-373l10 80l35 8q61 14 98 58t127 225l252 506l2 49l250 53l176 -829q6 -41 76 -60l43 -10v-80h-489l10 80l47 8q51 10 59 33t-10 117l-12 65h-336l-25 -53q-25 -66 -31 -94t3 -42
q10 -15 43 -24l45 -10v-80z" />
    <glyph glyph-name="acircumflex.smallcap" horiz-adv-x="1028" 
d="M874 1055h-94l-176 245h-4l-242 -245h-94l234 372h241zM575 381l-75 395h-25l-184 -395h284zM291 0h-373l10 80l35 8q61 14 98 58t127 225l252 506l2 49l250 53l176 -829q6 -41 76 -60l43 -10v-80h-489l10 80l47 8q51 10 59 33t-10 117l-12 65h-336l-25 -53
q-25 -66 -31 -94t3 -42q10 -15 43 -24l45 -10v-80z" />
    <glyph glyph-name="atilde.smallcap" horiz-adv-x="1028" 
d="M417 1217q-32 0 -52 -27t-58 -100h-88q63 276 246 276q68 0 165 -72t129 -72q31 0 57 28t61 98h86q-66 -276 -248 -277q-68 0 -167 73t-131 73zM575 381l-75 395h-25l-184 -395h284zM291 0h-373l10 80l35 8q61 14 98 58t127 225l252 506l2 49l250 53l176 -829
q6 -41 76 -60l43 -10v-80h-489l10 80l47 8q51 10 59 33t-10 117l-12 65h-336l-25 -53q-25 -66 -31 -94t3 -42q10 -15 43 -24l45 -10v-80z" />
    <glyph glyph-name="adieresis.smallcap" horiz-adv-x="1028" 
d="M526 1241q0 -59 -36 -100t-97 -41t-98 41t-37 100t37 101t98 42t97 -42t36 -101zM965 1241q0 -59 -36 -100q-35 -41 -97 -41t-98 41t-36 100t36 101t97 42t97 -42t37 -101zM575 381l-75 395h-25l-184 -395h284zM291 0h-373l10 80l35 8q61 14 98 58t127 225l252 506l2 49
l250 53l176 -829q6 -41 76 -60l43 -10v-80h-489l10 80l47 8q51 10 59 33t-10 117l-12 65h-336l-25 -53q-25 -66 -31 -94t3 -42q10 -15 43 -24l45 -10v-80z" />
    <glyph glyph-name="aring.smallcap" horiz-adv-x="1028" 
d="M575 381l-75 395h-25l-184 -395h284zM731 1090q0 57 -36 98t-95 41t-95 -41t-36 -98q0 -58 36 -98t95 -40t95 40t36 98zM987 0h-489l10 80l47 8q51 10 59 33t-10 117l-12 65h-336l-25 -53q-25 -66 -31 -94t3 -42q10 -15 43 -24l45 -10v-80h-373l10 80l35 8q59 14 96 58
t129 225l279 561q-70 59 -70 158q5 86 59 145t144 59t145 -59t56 -145q0 -122 -94 -177l161 -763q6 -41 76 -60l43 -10v-80z" />
    <glyph glyph-name="aringacute.smallcap" horiz-adv-x="1028" 
d="M575 381l-75 395h-25l-184 -395h284zM731 1090q0 57 -36 98t-95 41t-95 -41t-36 -98q0 -58 36 -98t95 -40t95 40t36 98zM987 0h-489l10 80l47 8q51 10 59 33t-10 117l-12 65h-336l-25 -53q-25 -66 -31 -94t3 -42q10 -15 43 -24l45 -10v-80h-373l10 80l35 8q59 14 96 58
t129 225l279 561q-70 59 -70 158q5 86 59 145t144 59t145 -59t56 -145q0 -122 -94 -177l161 -763q6 -41 76 -60l43 -10v-80zM983 1696l-412 -373h-92l244 373h260z" />
    <glyph glyph-name="amacron.smallcap" horiz-adv-x="1028" 
d="M883 1118h-609l25 119h582zM575 381l-75 395h-25l-184 -395h284zM291 0h-373l10 80l35 8q61 14 98 58t127 225l252 506l2 49l250 53l176 -829q6 -41 76 -60l43 -10v-80h-489l10 80l47 8q51 10 59 33t-10 117l-12 65h-336l-25 -53q-25 -66 -31 -94t3 -42q10 -15 43 -24
l45 -10v-80z" />
    <glyph glyph-name="abreve.smallcap" horiz-adv-x="1028" 
d="M575 381l-75 395h-25l-184 -395h284zM575 1044q-133 0 -190 100t-66 283h91q28 -119 68 -182t114 -63t133 64t123 181h88q-102 -383 -361 -383zM291 0h-373l10 80l35 8q61 14 98 58t127 225l252 506l2 49l250 53l176 -829q6 -41 76 -60l43 -10v-80h-489l10 80l47 8
q51 10 59 33t-10 117l-12 65h-336l-25 -53q-25 -66 -31 -94t3 -42q10 -15 43 -24l45 -10v-80z" />
    <glyph glyph-name="aogonek.smallcap" horiz-adv-x="1028" 
d="M575 383l-75 393h-25l-184 -393h284zM291 0h-375l10 80l35 8q61 14 99 58t128 225l252 506l2 49l250 53l176 -829q6 -41 76 -60l43 -10v-80q-86 -16 -148 -74q-61 -58 -71 -118q-10 -58 9 -94t75 -41t104 32l17 -27q-20 -59 -87 -98t-154 -30q-87 10 -132 66t-27 144
q29 141 240 240h-315l10 80l47 8q51 10 59 33t-10 117l-12 65h-336l-25 -53q-25 -66 -31 -94t3 -42q10 -15 43 -24l45 -10v-80z" />
    <glyph glyph-name="ae.smallcap" horiz-adv-x="1556" 
d="M649 387l64 481h-17l-334 -481h287zM205 132q0 -36 33 -42l57 -10l6 -80h-383l8 80l39 10q39 10 64 26q70 43 215 255l284 395q53 80 -28 96l-64 12l-6 80h1088l-43 -327h-125l-17 118q-10 82 -63 105t-221 22h-101l-47 -356h53q109 0 138 53l53 107h92l-88 -383h-90
l-4 96q-2 33 -25 44t-92 11l-45 2l-49 -366l102 2q166 0 230 23q63 24 98 104l45 113h135l-72 -322h-888l12 80l72 18q35 6 38 35l23 176h-328l-32 -43q-74 -98 -74 -134z" />
    <glyph glyph-name="aeacute.smallcap" horiz-adv-x="1556" 
d="M649 387l64 481h-17l-334 -481h287zM205 132q0 -36 33 -42l57 -10l6 -80h-383l8 80l39 10q39 10 64 26q70 43 215 255l284 395q53 80 -28 96l-64 12l-6 80h1088l-43 -327h-125l-17 118q-10 82 -63 105t-221 22h-101l-47 -356h53q109 0 138 53l53 107h92l-88 -383h-90
l-4 96q-2 33 -25 44t-92 11l-45 2l-49 -366l102 2q166 0 230 23q63 24 98 104l45 113h135l-72 -322h-888l12 80l72 18q35 6 38 35l23 176h-328l-32 -43q-74 -98 -74 -134zM1389 1427l-412 -372h-92l243 372h261z" />
    <glyph glyph-name="ccedilla.smallcap" horiz-adv-x="1155" 
d="M72 410q0 227 169 396t418 169q145 0 263 -39l151 37l-49 -352h-139l-43 223q-61 47 -164 47q-158 -1 -252 -145t-94 -336t94 -287q62 -63 156 -63t153 32l119 232h143l-71 -324l-105 20q-113 -41 -258 -47l-96 -84q121 -4 191 -50t69 -126q0 -115 -136 -191t-355 -85
l-13 55q166 20 255 66t89 108q0 98 -157 98q-74 0 -144 -14l6 49l195 178q-187 19 -291 133t-104 300z" />
    <glyph glyph-name="cacute.smallcap" horiz-adv-x="1155" 
d="M541 -27q-219 0 -344 116t-125 332t169 385t418 169q145 0 263 -39l151 37l-49 -352h-139l-43 223q-61 47 -164 47q-158 -1 -252 -145t-94 -336t94 -287q62 -63 156 -63t153 32l119 232h143l-71 -324l-105 20q-125 -47 -280 -47zM1042 1427l-411 -372h-92l243 372h260z
" />
    <glyph glyph-name="ccircumflex.smallcap" horiz-adv-x="1155" 
d="M541 -27q-219 0 -344 116t-125 332t169 385t418 169q145 0 263 -39l151 37l-49 -352h-139l-43 223q-61 47 -164 47q-158 -1 -252 -145t-94 -336t94 -287q62 -63 156 -63t153 32l119 232h143l-71 -324l-105 20q-125 -47 -280 -47zM952 1055h-94l-176 245h-4l-242 -245h-94
l233 372h242z" />
    <glyph glyph-name="cdotaccent.smallcap" horiz-adv-x="1155" 
d="M809 1251q0 -61 -38 -103t-100 -42t-100 42q-37 42 -36 103q0 61 36 105q37 43 99 43q62 1 101 -43q38 -44 38 -105zM541 -27q-219 0 -344 116t-125 332t169 385t418 169q145 0 263 -39l151 37l-49 -352h-139l-43 223q-61 47 -164 47q-158 -1 -252 -145t-94 -336t94 -287
q62 -63 156 -63t153 32l119 232h143l-71 -324l-105 20q-125 -47 -280 -47z" />
    <glyph glyph-name="ccaron.smallcap" horiz-adv-x="1155" 
d="M541 -27q-219 0 -344 116t-125 332t169 385t418 169q145 0 263 -39l151 37l-49 -352h-139l-43 223q-61 47 -164 47q-158 -1 -252 -145t-94 -336t94 -287q62 -63 156 -63t153 32l119 232h143l-71 -324l-105 20q-125 -47 -280 -47zM991 1427l-231 -372h-244l-131 372h90
l176 -245h4l244 245h92z" />
    <glyph glyph-name="dcaron.smallcap" horiz-adv-x="1173" 
d="M836 504q0 180 -80 274t-219 94h-56l-100 -759l106 -29q157 -4 253 118t96 302zM1100 518q0 -198 -167 -358t-472 -160h-438l12 80l69 18q35 8 39 35l90 688q4 27 -30 35l-64 18l-6 80l461 2q231 2 369 -118q137 -122 137 -320zM915 1427l-231 -372h-242l-133 372h90
l179 -245h4l241 245h92z" />
    <glyph glyph-name="eth.smallcap" horiz-adv-x="1196" 
d="M866 505q0 179 -81 273t-218 94h-55l-45 -340h197l6 -94h-215l-43 -325l106 -29q156 -4 252 119t96 302zM1130 519q0 -199 -166 -359t-472 -160h-439l13 80l69 18q35 8 39 35q7 67 35 260l4 45h-137l6 94h145l37 289q4 27 -31 35l-63 18l-6 80l461 2q231 2 368 -118
t137 -319z" />
    <glyph glyph-name="dcroat.smallcap" horiz-adv-x="1196" 
d="M866 505q0 179 -81 273t-218 94h-55l-45 -340h197l6 -94h-215l-43 -325l106 -29q156 -4 252 119t96 302zM1130 519q0 -199 -166 -359t-472 -160h-439l13 80l69 18q35 8 39 35q7 67 35 260l4 45h-137l6 94h145l37 289q4 27 -31 35l-63 18l-6 80l461 2q231 2 368 -118
t137 -319z" />
    <glyph glyph-name="egrave.smallcap" horiz-adv-x="1089" 
d="M733 1055h-94l-309 372h260zM487 516q109 0 138 53l53 107h92l-88 -383h-90l-4 96q-2 33 -25 44t-92 11h-45l-47 -362h100q166 0 230 23q63 24 98 104l45 113h135l-72 -322h-892l12 80l69 18q35 8 39 35l90 688q4 27 -30 35l-64 18l-6 80h918l-43 -327h-125l-17 118
q-10 82 -63 105t-221 22h-101l-45 -356h51z" />
    <glyph glyph-name="eacute.smallcap" horiz-adv-x="1089" 
d="M1036 1427l-411 -372h-93l244 372h260zM487 516q109 0 138 53l53 107h92l-88 -383h-90l-4 96q-2 33 -25 44t-92 11h-45l-47 -362h100q166 0 230 23q63 24 98 104l45 113h135l-72 -322h-892l12 80l69 18q35 8 39 35l90 688q4 27 -30 35l-64 18l-6 80h918l-43 -327h-125
l-17 118q-10 82 -63 105t-221 22h-101l-45 -356h51z" />
    <glyph glyph-name="ecircumflex.smallcap" horiz-adv-x="1089" 
d="M926 1055h-95l-176 245h-4l-241 -245h-95l234 372h242zM487 516q109 0 138 53l53 107h92l-88 -383h-90l-4 96q-2 33 -25 44t-92 11h-45l-47 -362h100q166 0 230 23q63 24 98 104l45 113h135l-72 -322h-892l12 80l69 18q35 8 39 35l90 688q4 27 -30 35l-64 18l-6 80h918
l-43 -327h-125l-17 118q-10 82 -63 105t-221 22h-101l-45 -356h51z" />
    <glyph glyph-name="edieresis.smallcap" horiz-adv-x="1089" 
d="M557 1241q0 -59 -36 -100t-97 -41t-98 41t-37 100t37 101t98 42t97 -42t36 -101zM995 1241q0 -59 -36 -100t-97 -41t-97 41t-36 100t36 101t97 42t97 -42t36 -101zM487 516q109 0 138 53l53 107h92l-88 -383h-90l-4 96q-2 33 -25 44t-92 11h-45l-47 -362h100
q166 0 230 23q63 24 98 104l45 113h135l-72 -322h-892l12 80l69 18q35 8 39 35l90 688q4 27 -30 35l-64 18l-6 80h918l-43 -327h-125l-17 118q-10 82 -63 105t-221 22h-101l-45 -356h51z" />
    <glyph glyph-name="emacron.smallcap" horiz-adv-x="1089" 
d="M946 1118h-608l24 119h582zM487 516q109 0 138 53l53 107h92l-88 -383h-90l-4 96q-2 33 -25 44t-92 11h-45l-47 -362h100q166 0 230 23q63 24 98 104l45 113h135l-72 -322h-892l12 80l69 18q35 8 39 35l90 688q4 27 -30 35l-64 18l-6 80h918l-43 -327h-125l-17 118
q-10 82 -63 105t-221 22h-101l-45 -356h51z" />
    <glyph glyph-name="ebreve.smallcap" horiz-adv-x="1089" 
d="M608 1044q-133 0 -190 100t-66 283h90q29 -119 69 -182t114 -63t133 64t123 181h88q-102 -383 -361 -383zM487 516q109 0 138 53l53 107h92l-88 -383h-90l-4 96q-2 33 -25 44t-92 11h-45l-47 -362h100q166 0 230 23q63 24 98 104l45 113h135l-72 -322h-892l12 80l69 18
q35 8 39 35l90 688q4 27 -30 35l-64 18l-6 80h918l-43 -327h-125l-17 118q-10 82 -63 105t-221 22h-101l-45 -356h51z" />
    <glyph glyph-name="edotaccent.smallcap" horiz-adv-x="1089" 
d="M780 1251q0 -61 -38 -103t-100 -42t-99 42t-37 103t37 105t99 43q62 1 100 -43t38 -105zM487 516q109 0 138 53l53 107h92l-88 -383h-90l-4 96q-2 33 -25 44t-92 11h-45l-47 -362h100q166 0 230 23q63 24 98 104l45 113h135l-72 -322h-892l12 80l69 18q35 8 39 35l90 688
q4 27 -30 35l-64 18l-6 80h918l-43 -327h-125l-17 118q-10 82 -63 105t-221 22h-101l-45 -356h51z" />
    <glyph glyph-name="eogonek.smallcap" horiz-adv-x="1089" 
d="M487 516q109 0 138 53l53 107h92l-88 -383h-90l-4 96q-2 33 -25 44t-92 11h-45l-47 -362h100q166 0 230 23q63 24 98 104l45 113h135l-72 -322h-67q-133 -96 -152 -201q-10 -49 10 -85t73 -41q54 -5 108 32l14 -27q-19 -59 -85 -98t-154 -30q-88 10 -134 66t-26 144
q31 137 233 240h-712l12 80l69 18q35 8 39 35l90 688q4 27 -28 35l-66 18l-6 80h918l-43 -327h-125l-17 118q-10 82 -63 105t-221 22h-101l-45 -356h51z" />
    <glyph glyph-name="ecaron.smallcap" horiz-adv-x="1089" 
d="M487 516q109 0 138 53l53 107h92l-88 -383h-90l-4 96q-2 33 -25 44t-92 11h-45l-47 -362h100q166 0 230 23q63 24 98 104l45 113h135l-72 -322h-892l12 80l69 18q35 8 39 35l90 688q4 27 -30 35l-64 18l-6 80h918l-43 -327h-125l-17 118q-10 82 -63 105t-221 22h-101
l-45 -356h51zM983 1427l-231 -372h-244l-131 372h90l176 -245h4l244 245h92z" />
    <glyph glyph-name="gcircumflex.smallcap" horiz-adv-x="1183" 
d="M570 -27q-238 0 -368 116t-130 333t168 381q168 172 419 172q145 0 263 -39l151 37l-49 -352h-139l-43 223q-61 47 -164 47q-158 -1 -252 -145t-94 -338t94 -287q60 -63 146 -63t128 20l29 225q2 29 -37 37l-63 18l-4 80h469l-9 -80l-75 -18q-35 -6 -41 -37l-25 -186
l90 -11l2 -59q-228 -74 -466 -74zM958 1055h-94l-176 245h-4l-242 -245h-94l234 372h241z" />
    <glyph glyph-name="gbreve.smallcap" horiz-adv-x="1183" 
d="M655 1044q-133 0 -190 100t-66 283h90q29 -119 69 -182t114 -63t133 64t123 181h88q-102 -383 -361 -383zM570 -27q-238 0 -368 116t-130 333t168 381q168 172 419 172q145 0 263 -39l151 37l-49 -352h-139l-43 223q-61 47 -164 47q-158 -1 -252 -145t-94 -338t94 -287
q60 -63 146 -63t128 20l29 225q2 29 -37 37l-63 18l-4 80h469l-9 -80l-75 -18q-35 -6 -41 -37l-25 -186l90 -11l2 -59q-228 -74 -466 -74z" />
    <glyph glyph-name="gdotaccent.smallcap" horiz-adv-x="1183" 
d="M838 1251q0 -61 -38 -103t-100 -42t-100 42q-37 42 -37 103t37 105t99 43q62 0 101 -43q38 -44 38 -105zM570 -27q-238 0 -368 116t-130 333t168 381q168 172 419 172q145 0 263 -39l151 37l-49 -352h-139l-43 223q-61 47 -164 47q-158 -1 -252 -145t-94 -338t94 -287
q60 -63 146 -63t128 20l29 225q2 29 -37 37l-63 18l-4 80h469l-9 -80l-75 -18q-35 -6 -41 -37l-25 -186l90 -11l2 -59q-228 -74 -466 -74z" />
    <glyph glyph-name="gcommaaccent.smallcap" horiz-adv-x="1183" 
d="M570 -27q-238 0 -368 116t-130 333t168 381q168 172 419 172q145 0 263 -39l151 37l-49 -352h-139l-43 223q-61 47 -164 47q-158 -1 -252 -145t-94 -338t94 -287q60 -63 146 -63t128 20l29 225q2 29 -37 37l-63 18l-4 80h469l-9 -80l-75 -18q-35 -6 -41 -37l-25 -186
l90 -11l2 -59q-228 -74 -466 -74zM475 -127q43 31 109 24t104 -65t18 -145q-20 -86 -107 -154t-212 -102l-33 49q158 45 183 153q13 65 -24 99t-64 47q-27 14 -27 16q10 47 53 78z" />
    <glyph glyph-name="hcircumflex.smallcap" horiz-adv-x="1253" 
d="M1116 0h-459l7 80l69 18q37 10 39 35l43 311h-389l-41 -311q-4 -27 29 -35l67 -18l6 -80h-458l6 80l69 18q35 8 39 35l90 688q4 27 -30 35l-64 18l-6 80h457l-4 -80l-72 -18q-35 -8 -39 -35l-39 -295h387l39 295q4 28 -28 35l-66 18l-6 80h459l-7 -80l-71 -18
q-37 -8 -41 -35l-90 -688q-4 -25 32 -35l66 -18zM985 1059h-94l-176 246h-4l-242 -246h-94l233 373h242z" />
    <glyph glyph-name="hbar.smallcap" horiz-adv-x="1253" 
d="M436 526h387l17 119h-389zM1116 0h-459l7 80l69 18q37 10 39 35l43 311h-389l-41 -311q-4 -27 29 -35l67 -18l6 -80h-458l6 80l69 18q35 8 39 35l68 512h-184l22 94h176l8 82q4 27 -28 35l-66 18l-6 80h457l-4 -80l-72 -18q-35 -8 -39 -35l-10 -82h389l8 82q4 28 -28 35
l-66 18l-6 80h459l-7 -80l-71 -18q-37 -8 -41 -35l-8 -82h145l4 -94h-164l-67 -512q-4 -25 32 -35l66 -18z" />
    <glyph glyph-name="igrave.smallcap" horiz-adv-x="659" 
d="M475 1055h-94l-309 372h260zM520 0h-493l10 80l84 18q35 6 39 35l90 688q4 29 -29 35l-80 18l-8 80h494l-9 -80l-86 -18q-35 -6 -38 -35l-91 -688q-4 -29 31 -35l80 -18z" />
    <glyph glyph-name="iacute.smallcap" horiz-adv-x="659" 
d="M809 1427l-412 -372h-92l244 372h260zM520 0h-493l10 80l84 18q35 6 39 35l90 688q4 29 -29 35l-80 18l-8 80h494l-9 -80l-86 -18q-35 -6 -38 -35l-91 -688q-4 -29 31 -35l80 -18z" />
    <glyph glyph-name="icircumflex.smallcap" horiz-adv-x="659" 
d="M688 1055h-94l-176 245h-4l-242 -245h-94l233 372h242zM520 0h-493l10 80l84 18q35 6 39 35l90 688q4 29 -29 35l-80 18l-8 80h494l-9 -80l-86 -18q-35 -6 -38 -35l-91 -688q-4 -29 31 -35l80 -18z" />
    <glyph glyph-name="idieresis.smallcap" horiz-adv-x="659" 
d="M319 1241q1 -59 -35 -100t-98 -41t-98 41q-37 41 -37 100t37 101t98 42t97 -42t36 -101zM758 1241q0 -59 -36 -100t-97 -41t-98 41q-36 41 -35 100q0 59 35 101t97 42t98 -42t36 -101zM520 0h-493l10 80l84 18q35 6 39 35l90 688q4 29 -29 35l-80 18l-8 80h494l-9 -80
l-86 -18q-35 -6 -38 -35l-91 -688q-4 -29 31 -35l80 -18z" />
    <glyph glyph-name="imacron.smallcap" horiz-adv-x="659" 
d="M713 1118h-609l25 119h582zM520 0h-493l10 80l84 18q35 6 39 35l90 688q4 29 -29 35l-80 18l-8 80h494l-9 -80l-86 -18q-35 -6 -38 -35l-91 -688q-4 -29 31 -35l80 -18z" />
    <glyph glyph-name="ibreve.smallcap" horiz-adv-x="659" 
d="M379 1044q-133 0 -191 100t-65 283h90q29 -119 69 -182t114 -63t132 64q59 64 123 181h88q-102 -383 -360 -383zM520 0h-493l10 80l84 18q35 6 39 35l90 688q4 29 -29 35l-80 18l-8 80h494l-9 -80l-86 -18q-35 -6 -38 -35l-91 -688q-4 -29 31 -35l80 -18z" />
    <glyph glyph-name="iogonek.smallcap" horiz-adv-x="659" 
d="M479 -322q-21 -59 -87 -98t-153 -30q-87 10 -133 66t-26 144q29 141 239 240h-290l8 80l86 18q35 6 39 35l90 688q4 29 -31 35l-80 18l-6 80h492l-9 -80l-86 -18q-35 -6 -38 -35l-91 -688q-4 -29 31 -35l80 -18l6 -80q-90 -12 -164 -72t-83 -120q-9 -58 11 -94t74 -41
q56 -5 105 32z" />
    <glyph glyph-name="idotaccent.smallcap" horiz-adv-x="659" 
d="M580 1251q0 -61 -38 -103t-100 -42t-100 42q-37 42 -37 103t37 105t99 43q62 0 101 -43q38 -44 38 -105zM520 0h-493l10 80l84 18q35 6 39 35l90 688q4 29 -29 35l-80 18l-8 80h494l-9 -80l-86 -18q-35 -6 -38 -35l-91 -688q-4 -29 31 -35l80 -18z" />
    <glyph glyph-name="dotlessi.smallcap" horiz-adv-x="659" 
d="M520 0h-493l10 80l84 18q35 6 39 35l90 688q4 29 -29 35l-80 18l-8 80h494l-9 -80l-86 -18q-35 -6 -38 -35l-91 -688q-4 -29 31 -35l80 -18z" />
    <glyph glyph-name="jcircumflex.smallcap" horiz-adv-x="772" 
d="M836 1055h-95l-176 245h-4l-242 -245h-94l234 372h241zM158 -29q-90 0 -144 41q-53 40 -49 92t33 80q30 28 84 27q54 0 86 -44t27 -118h20q45 31 71 95t42 188l63 489q4 29 -29 35l-94 18l-6 80h494l-6 -80l-76 -18q-37 -8 -41 -35l-49 -381q-61 -469 -426 -469z" />
    <glyph glyph-name="jcircumflex.smallcap.alt" horiz-adv-x="886" 
d="M284 -31q-146 -1 -229 59q-84 60 -84 130t37 110q37 39 87 39q50 1 84 -27t34 -80t-47 -89q44 -55 110 -55q136 -1 164 218l74 547q4 29 -29 35l-94 18v80h488l-11 -80l-73 -18q-37 -8 -41 -35l-70 -506q-22 -164 -138 -255t-262 -91zM950 1055h-94l-176 245h-4
l-242 -245h-94l233 372h242z" />
    <glyph glyph-name="dotlessj.smallcap" horiz-adv-x="772" 
d="M158 -29q-90 0 -144 41q-53 40 -49 92t33 80q30 28 84 27q54 0 86 -44t27 -118h20q45 31 71 95t42 188l63 489q4 29 -29 35l-94 18l-6 80h494l-6 -80l-76 -18q-37 -8 -41 -35l-49 -381q-61 -469 -426 -469z" />
    <glyph glyph-name="kcommaaccent.smallcap" horiz-adv-x="1157" 
d="M1096 0h-455l4 80l39 12q33 8 10 55q-164 303 -166 304l-114 -97l-29 -221q-4 -27 29 -35l67 -18l6 -80h-458l6 80l69 18q35 8 39 35l90 688q4 27 -30 35l-64 18l-6 80h459l-6 -80l-72 -18q-35 -8 -39 -35l-47 -360l266 233q109 98 111 133q4 35 -39 43l-33 9l-6 75h430
l-6 -80l-66 -12q-96 -23 -254 -157l-118 -101l256 -450q25 -41 84 -62l37 -12zM395 -209q9 47 53 78t110 24t102 -65q38 -58 18 -145q-20 -86 -106 -154q-87 -68 -212 -102l-32 49q158 45 182 153q16 82 -69 133q-19 12 -32 20t-14 9z" />
    <glyph glyph-name="lacute.smallcap" horiz-adv-x="1001" 
d="M414 84q162 0 222 28t97 111l49 121h129l-77 -344h-805l6 80l69 18q35 8 39 35l90 688q4 27 -30 35l-64 18l-6 80h475l-6 -80l-88 -18q-35 -6 -39 -35l-96 -737h35zM797 1391l-412 -373h-92l244 373h260z" />
    <glyph glyph-name="lcommaaccent.smallcap" horiz-adv-x="1001" 
d="M414 84q162 0 222 28t97 111l49 121h129l-77 -344h-805l6 80l69 18q35 8 39 35l90 688q4 27 -30 35l-64 18l-6 80h475l-6 -80l-88 -18q-35 -6 -39 -35l-96 -737h35zM358 -131q43 31 109 24q65 -7 103 -65t18 -145q-20 -86 -106 -154q-87 -68 -212 -102l-32 49
q158 45 182 153q16 82 -69 133q-19 12 -33 20t-13 9q10 47 53 78z" />
    <glyph glyph-name="lcaron.smallcap" horiz-adv-x="1357" 
d="M414 84q162 0 222 28t97 111l49 121h129l-77 -344h-805l6 80l69 18q35 8 39 35l90 688q4 27 -30 35l-64 18l-6 80h475l-6 -80l-88 -18q-35 -6 -39 -35l-96 -737h35zM1427 764q-1 -121 -109 -232t-276 -196l-51 49q98 55 163 128t65 142t-47 112t-95 71q0 51 47 91t120 40
q73 -1 128 -61t55 -144z" />
    <glyph glyph-name="ldotaccent.smallcap" horiz-adv-x="1288" 
d="M414 84q162 0 222 28t97 111l49 121h129l-77 -344h-805l6 80l69 18q35 8 39 35l90 688q4 27 -30 35l-64 18l-6 80h475l-6 -80l-88 -18q-35 -6 -39 -35l-96 -737h35zM1182 684q68 0 112 -46t45 -110q0 -64 -46 -112q-47 -47 -113 -47t-112 46q-46 45 -46 111t46 112
t114 46z" />
    <glyph glyph-name="lslash.smallcap" horiz-adv-x="1021" 
d="M434 84q162 0 222 28t98 111l49 121h129l-78 -344h-805l6 80l70 18q35 8 39 34t12 94q8 69 12 102l5 32l-117 -32l2 100l129 35l47 358q4 27 -31 35l-63 18l-6 80h475l-6 -80l-88 -18q-35 -6 -39 -35l-37 -291l184 52v-99l-199 -55l-45 -344h35z" />
    <glyph glyph-name="ntilde.smallcap" horiz-adv-x="1222" 
d="M513 1217q-32 0 -52 -27t-58 -100h-88q63 276 246 276q68 0 165 -72t129 -72q31 0 57 28t61 98h86q-66 -276 -248 -277q-68 0 -167 73t-131 73zM1210 954l-6 -80l-69 -16q-35 -8 -53 -61t-44 -232l-77 -575h-218l-401 731h-27l-41 -332q-20 -182 -16 -233t37 -60l78 -16
l6 -80h-367l6 80l68 16q37 10 56 62t42 231l52 391q6 57 -35 74l-62 20l-8 80h367l385 -702h26l39 313q23 181 19 233t-39 60l-76 16l-6 80h364z" />
    <glyph glyph-name="nacute.smallcap" horiz-adv-x="1222" 
d="M1210 954l-6 -80l-69 -16q-35 -8 -53 -61t-44 -232l-77 -575h-218l-401 731h-27l-41 -332q-20 -182 -16 -233t37 -60l78 -16l6 -80h-367l6 80l68 16q37 10 56 62t42 231l52 391q6 57 -35 74l-62 20l-8 80h367l385 -702h26l39 313q23 181 19 233t-39 60l-76 16l-6 80h364z
M1110 1427l-412 -372h-92l244 372h260z" />
    <glyph glyph-name="ncommaaccent.smallcap" horiz-adv-x="1222" 
d="M1210 954l-6 -80l-69 -16q-35 -8 -53 -61t-44 -232l-77 -575h-218l-401 731h-27l-41 -332q-20 -182 -16 -233t37 -60l78 -16l6 -80h-367l6 80l68 16q37 10 56 62t42 231l52 391q6 57 -35 74l-62 20l-8 80h367l385 -702h26l39 313q23 181 19 233t-39 60l-76 16l-6 80h364z
M432 -131q43 31 109 24q65 -7 103 -65t18 -145q-20 -86 -106 -154q-87 -68 -212 -102l-33 49q158 45 183 153q16 82 -69 133q-19 12 -33 20t-13 9q10 47 53 78z" />
    <glyph glyph-name="ncaron.smallcap" horiz-adv-x="1222" 
d="M1210 954l-6 -80l-69 -16q-35 -8 -53 -61t-44 -232l-77 -575h-218l-401 731h-27l-41 -332q-20 -182 -16 -233t37 -60l78 -16l6 -80h-367l6 80l68 16q37 10 56 62t42 231l52 391q6 57 -35 74l-62 20l-8 80h367l385 -702h26l39 313q23 181 19 233t-39 60l-76 16l-6 80h364z
M1053 1427l-232 -372h-243l-132 372h91l176 -245h4l244 245h92z" />
    <glyph glyph-name="ograve.smallcap" horiz-adv-x="1155" 
d="M733 1055h-94l-309 372h260zM823 590q0 297 -202 297q-77 -1 -137 -57t-92 -142q-62 -167 -62 -335q0 -169 71 -242q45 -49 127 -49t142 56q59 56 91 142q62 167 62 330zM1081 537q0 -242 -178 -416q-153 -150 -359 -150t-338 126t-132 317q0 244 153 397
q164 168 377 168t345 -126t132 -316z" />
    <glyph glyph-name="oacute.smallcap" horiz-adv-x="1155" 
d="M1057 1427l-412 -372h-92l244 372h260zM823 590q0 297 -202 297q-77 -1 -137 -57t-92 -142q-62 -167 -62 -335q0 -169 71 -242q45 -49 127 -49t142 56q59 56 91 142q62 167 62 330zM1081 537q0 -242 -178 -416q-153 -150 -359 -150t-338 126t-132 317q0 244 153 397
q164 168 377 168t345 -126t132 -316z" />
    <glyph glyph-name="ocircumflex.smallcap" horiz-adv-x="1155" 
d="M938 1055h-94l-176 245h-4l-242 -245h-94l233 372h242zM823 590q0 297 -202 297q-77 -1 -137 -57t-92 -142q-62 -167 -62 -335q0 -169 71 -242q45 -49 127 -49t142 56q59 56 91 142q62 167 62 330zM1081 537q0 -242 -178 -416q-153 -150 -359 -150t-338 126t-132 317
q0 244 153 397q164 168 377 168t345 -126t132 -316z" />
    <glyph glyph-name="otilde.smallcap" horiz-adv-x="1155" 
d="M490 1217q-32 0 -52 -27t-57 -100h-88q63 276 246 276q69 0 165 -72t128 -72t58 28t60 98h86q-66 -276 -248 -277q-68 0 -166 73q-100 73 -132 73zM823 590q0 297 -202 297q-77 -1 -137 -57t-92 -142q-62 -167 -62 -335q0 -169 71 -242q45 -49 127 -49t142 56
q59 56 91 142q62 167 62 330zM1081 537q0 -242 -178 -416q-153 -150 -359 -150t-338 126t-132 317q0 244 153 397q164 168 377 168t345 -126t132 -316z" />
    <glyph glyph-name="odieresis.smallcap" horiz-adv-x="1155" 
d="M600 1241q0 -59 -36 -100t-97 -41t-98 41t-37 100t37 101t98 42t97 -42t36 -101zM1038 1241q0 -59 -36 -100t-97 -41t-97 41t-36 100t36 101t97 42t97 -42t36 -101zM823 590q0 297 -202 297q-77 -1 -137 -57t-92 -142q-62 -167 -62 -335q0 -169 71 -242q45 -49 127 -49
t142 56q59 56 91 142q62 167 62 330zM1081 537q0 -242 -178 -416q-153 -150 -359 -150t-338 126t-132 317q0 244 153 397q164 168 377 168t345 -126t132 -316z" />
    <glyph glyph-name="omacron.smallcap" horiz-adv-x="1155" 
d="M823 590q0 297 -202 297q-77 -1 -137 -57t-92 -142q-62 -167 -62 -335q0 -169 71 -242q45 -49 127 -49t142 56q59 56 91 142q62 167 62 330zM1081 537q0 -242 -178 -416q-153 -150 -359 -150t-338 126t-132 317q0 244 153 397q164 168 377 168t345 -126t132 -316z
M965 1118h-609l25 119h582z" />
    <glyph glyph-name="obreve.smallcap" horiz-adv-x="1155" 
d="M639 1044q-133 0 -190 100t-66 283h90q29 -119 69 -182t114 -63t132 64q59 64 123 181h88q-102 -383 -360 -383zM823 590q0 297 -202 297q-77 -1 -137 -57t-92 -142q-62 -167 -62 -335q0 -169 71 -242q45 -49 127 -49t142 56q59 56 91 142q62 167 62 330zM1081 537
q0 -242 -178 -416q-153 -150 -359 -150t-338 126t-132 317q0 244 153 397q164 168 377 168t345 -126t132 -316z" />
    <glyph glyph-name="ohungarumlaut.smallcap" horiz-adv-x="1155" 
d="M823 590q0 297 -202 297q-77 -1 -137 -57t-92 -142q-62 -167 -62 -335q0 -169 71 -242q45 -49 127 -49t142 56q59 56 91 142q62 167 62 330zM1081 537q0 -242 -178 -416q-153 -150 -359 -150t-338 126t-132 317q0 244 153 397q164 168 377 168t345 -126t132 -316z
M846 1427l-397 -372h-87l240 372h244zM1206 1427l-397 -372h-84l238 372h243z" />
    <glyph glyph-name="oslash.smallcap" horiz-adv-x="1146" 
d="M823 593q0 79 -16 136l-424 -594l18 -24q45 -49 127 -49t142 56q59 56 91 142t47 170t15 163zM628 887q-84 -1 -144 -57t-92 -142q-62 -167 -62 -332q0 -69 16 -139l426 594l-18 23q-43 53 -126 53zM74 428q0 230 153 383q164 168 391 168q129 0 234 -57l92 129h92
q-121 -168 -121 -170q166 -129 166 -357t-178 -403q-154 -150 -366 -150q-125 0 -232 56l-100 -140h-94l129 181q-166 130 -166 360z" />
    <glyph glyph-name="oslashacute.smallcap" horiz-adv-x="1146" 
d="M1042 1427l-411 -372h-92l243 372h260zM823 593q0 79 -16 136l-424 -594l18 -24q45 -49 127 -49t142 56q59 56 91 142t47 170t15 163zM628 887q-84 -1 -144 -57t-92 -142q-62 -167 -62 -332q0 -69 16 -139l426 594l-18 23q-43 53 -126 53zM74 428q0 230 153 383
q164 168 391 168q129 0 234 -57l92 129h92q-121 -168 -121 -170q166 -129 166 -357t-178 -403q-154 -150 -366 -150q-125 0 -232 56l-100 -140h-94l129 181q-166 130 -166 360z" />
    <glyph glyph-name="oe.smallcap" horiz-adv-x="1652" 
d="M639 82h55l101 760l-107 28q-156 4 -253 -120t-97 -322q2 -158 82 -252t219 -94zM715 954h899l-43 -327h-125l-16 118q-10 82 -64 105t-221 22h-105l-47 -356h58q109 0 137 53l53 107h92l-88 -383h-90l-4 96q-2 33 -25 44t-92 11h-49l-47 -362h104q166 0 230 23
q63 24 98 104l45 113h135l-71 -322h-895q-236 -2 -374 118t-137 314t167 358t475 164z" />
    <glyph glyph-name="thorn.smallcap" horiz-adv-x="1052" 
d="M729 503q0 95 -54 152t-149 58h-59l-55 -430q40 -9 118 -11t139 67q60 69 60 164zM596 788q197 0 297 -74t100 -188q1 -116 -71 -193q-136 -147 -385 -140q-84 0 -138 8l-6 -68q-4 -29 31 -35l88 -18v-80h-489l12 80l78 18q35 6 39 35l90 688q4 27 -31 35l-72 18l-6 80
h483l-6 -82l-86 -16q-37 -6 -41 -35l-4 -33h117z" />
    <glyph glyph-name="racute.smallcap" horiz-adv-x="1112" 
d="M760 680q0 94 -54 146t-145 53h-80l-51 -390l131 -18q83 7 141 61t58 148zM633 954q195 0 293 -72t98 -180q0 -207 -268 -284l147 -258q31 -61 96 -72l35 -8l6 -80h-335l-60 141l-119 256l-106 6l-35 -270q-4 -27 29 -35l67 -18l6 -80h-458l6 80l69 18q35 8 39 35l90 688
q4 27 -30 35l-64 18l-6 80h500zM975 1427l-412 -372h-92l244 372h260z" />
    <glyph glyph-name="rcommaaccent.smallcap" horiz-adv-x="1112" 
d="M760 680q0 94 -54 146t-145 53h-80l-51 -390l131 -18q83 7 141 61t58 148zM633 954q195 0 293 -72t98 -180q0 -207 -268 -284l147 -258q31 -61 96 -72l35 -8l6 -80h-335l-60 141l-119 256l-106 6l-35 -270q-4 -27 29 -35l67 -18l6 -80h-458l6 80l69 18q35 8 39 35l90 688
q4 27 -30 35l-64 18l-6 80h500zM395 -209q9 47 53 78t110 24t102 -65q38 -58 18 -145q-20 -86 -106 -154q-87 -68 -212 -102l-32 49q158 45 182 153q16 82 -69 133q-19 12 -32 20t-14 9z" />
    <glyph glyph-name="rcaron.smallcap" horiz-adv-x="1112" 
d="M760 680q0 94 -54 146t-145 53h-80l-51 -390l131 -18q83 7 141 61t58 148zM633 954q195 0 293 -72t98 -180q0 -207 -268 -284l147 -258q31 -61 96 -72l35 -8l6 -80h-335l-60 141l-119 256l-106 6l-35 -270q-4 -27 29 -35l67 -18l6 -80h-458l6 80l69 18q35 8 39 35l90 688
q4 27 -30 35l-64 18l-6 80h500zM952 1427l-231 -372h-244l-131 372h90l176 -245h4l244 245h92z" />
    <glyph glyph-name="sacute.smallcap" horiz-adv-x="946" 
d="M819 285q0 -135 -110 -223q-111 -87 -294 -87t-360 45l33 306h127l49 -234q74 -26 157 -26t133 40t50 102q0 60 -47 98t-132 79t-120 61q-168 96 -168 244q1 123 107 203t288 82q109 0 267 -31l90 23l-43 -320h-117l-51 213q-86 29 -163 29t-120 -34t-43 -91t48 -98
q48 -40 136 -84t123 -66q105 -65 140 -135q20 -43 20 -96zM901 1427l-412 -372h-92l244 372h260z" />
    <glyph glyph-name="scircumflex.smallcap" horiz-adv-x="946" 
d="M819 285q0 -135 -110 -223q-111 -87 -294 -87t-360 45l33 306h127l49 -234q74 -26 157 -26t133 40t50 102q0 60 -47 98t-132 79t-120 61q-168 96 -168 244q1 123 107 203t288 82q109 0 267 -31l90 23l-43 -320h-117l-51 213q-86 29 -163 29t-120 -34t-43 -91t48 -98
q48 -40 136 -84t123 -66q105 -65 140 -135q20 -43 20 -96zM829 1055h-94l-176 245h-4l-242 -245h-94l234 372h241z" />
    <glyph glyph-name="scedilla.smallcap" horiz-adv-x="946" 
d="M442 -334q0 98 -157 98q-74 0 -144 -14l6 49l193 178q-135 4 -285 43l33 306h127l49 -234q74 -26 157 -26t133 40t50 102q0 60 -47 98t-132 79t-120 61q-168 96 -168 244q1 123 107 203t288 82q109 0 267 -31l90 23l-43 -320h-117l-51 213q-86 29 -163 29t-120 -34
t-43 -91t48 -98q48 -40 136 -84t123 -66q105 -65 140 -135q20 -43 20 -96q0 -131 -103 -216t-276 -94l-98 -86q120 -4 190 -50t70 -126q0 -115 -136 -191t-355 -85l-13 55q166 20 255 66t89 108z" />
    <glyph glyph-name="scommaaccent.smallcap" horiz-adv-x="946" 
d="M819 285q0 -135 -110 -223q-111 -87 -294 -87t-360 45l33 306h127l49 -234q74 -26 157 -26t133 40t50 102q0 60 -47 98t-132 79t-120 61q-168 96 -168 244q1 123 107 203t288 82q109 0 267 -31l90 23l-43 -320h-117l-51 213q-86 29 -163 29t-120 -34t-43 -91t48 -98
q48 -40 136 -84t123 -66q105 -65 140 -135q20 -43 20 -96zM315 -131q43 31 109 24t104 -65t18 -145q-20 -86 -107 -154t-212 -102l-32 49q158 45 182 153q16 82 -69 133q-18 12 -32 20t-14 9q10 47 53 78z" />
    <glyph glyph-name="scaron.smallcap" horiz-adv-x="946" 
d="M881 1427l-232 -372h-243l-132 372h91l176 -245h4l243 245h93zM819 285q0 -135 -110 -223q-111 -87 -294 -87t-360 45l33 306h127l49 -234q74 -26 157 -26t133 40t50 102q0 60 -47 98t-132 79t-120 61q-168 96 -168 244q1 123 107 203t288 82q109 0 267 -31l90 23
l-43 -320h-117l-51 213q-86 29 -163 29t-120 -34t-43 -91t48 -98q48 -40 136 -84t123 -66q105 -65 140 -135q20 -43 20 -96z" />
    <glyph glyph-name="tcommaaccent.smallcap" horiz-adv-x="1095" 
d="M457 870q-90 0 -133 -26t-74 -103l-51 -129h-131l71 342h959l-43 -342h-125l-15 125q-10 82 -45 108t-122 25h-27l-98 -737q-4 -27 30 -35l84 -18l6 -80h-493l6 80l86 18q35 8 39 35l98 737h-22zM383 -131q43 31 109 24t102 -65q38 -58 18 -145q-20 -86 -106 -154
t-211 -102l-33 49q158 45 182 153q16 83 -68 133q-18 12 -32 20t-14 9q10 47 53 78z" />
    <glyph glyph-name="tcaron.smallcap" horiz-adv-x="1095" 
d="M457 870q-90 0 -133 -26t-74 -103l-51 -129h-131l71 342h959l-43 -342h-125l-15 125q-10 82 -45 108t-122 25h-27l-98 -737q-4 -27 30 -35l84 -18l6 -80h-493l6 80l86 18q35 8 39 35l98 737h-22zM969 1427l-232 -372h-241l-134 372h91l178 -245h4l242 245h92z" />
    <glyph glyph-name="ugrave.smallcap" horiz-adv-x="1165" 
d="M770 1055h-94l-309 372h260zM550 -33q-184 0 -292 83q-109 83 -108 233q0 18 4 63l65 475q4 27 -29 35l-65 18l-6 80h461l-7 -80l-73 -18q-35 -8 -39 -35l-60 -440q-8 -53 -8 -84q0 -215 234 -215q219 0 254 262l30 221q23 181 19 233t-39 60l-76 16l-6 80h365l-7 -80
l-69 -16q-27 -6 -39 -22q-26 -35 -60 -273l-34 -250q-23 -164 -127 -255t-288 -91z" />
    <glyph glyph-name="uacute.smallcap" horiz-adv-x="1165" 
d="M1110 1427l-412 -372h-92l244 372h260zM550 -33q-184 0 -292 83q-109 83 -108 233q0 18 4 63l65 475q4 27 -29 35l-65 18l-6 80h461l-7 -80l-73 -18q-35 -8 -39 -35l-60 -440q-8 -53 -8 -84q0 -215 234 -215q219 0 254 262l30 221q23 181 19 233t-39 60l-76 16l-6 80h365
l-7 -80l-69 -16q-27 -6 -39 -22q-26 -35 -60 -273l-34 -250q-23 -164 -127 -255t-288 -91z" />
    <glyph glyph-name="ucircumflex.smallcap" horiz-adv-x="1165" 
d="M965 1055h-95l-176 245h-4l-241 -245h-95l234 372h241zM550 -33q-184 0 -292 83q-109 83 -108 233q0 18 4 63l65 475q4 27 -29 35l-65 18l-6 80h461l-7 -80l-73 -18q-35 -8 -39 -35l-60 -440q-8 -53 -8 -84q0 -215 234 -215q219 0 254 262l30 221q23 181 19 233t-39 60
l-76 16l-6 80h365l-7 -80l-69 -16q-27 -6 -39 -22q-26 -35 -60 -273l-34 -250q-23 -164 -127 -255t-288 -91z" />
    <glyph glyph-name="udieresis.smallcap" horiz-adv-x="1165" 
d="M606 1241q0 -59 -36 -100t-97 -41t-98 41t-37 100t37 101t98 42t97 -42t36 -101zM1044 1241q0 -59 -36 -100t-96 -41q-62 0 -98 41t-36 100t36 101t97 42t97 -42t36 -101zM550 -33q-184 0 -292 83q-109 83 -108 233q0 18 4 63l65 475q4 27 -29 35l-65 18l-6 80h461
l-7 -80l-73 -18q-35 -8 -39 -35l-60 -440q-8 -53 -8 -84q0 -215 234 -215q219 0 254 262l30 221q23 181 19 233t-39 60l-76 16l-6 80h365l-7 -80l-69 -16q-27 -6 -39 -22q-26 -35 -60 -273l-34 -250q-23 -164 -127 -255t-288 -91z" />
    <glyph glyph-name="umacron.smallcap" horiz-adv-x="1165" 
d="M1001 1118h-608l25 119h581zM550 -33q-184 0 -292 83q-109 83 -108 233q0 18 4 63l65 475q4 27 -29 35l-65 18l-6 80h461l-7 -80l-73 -18q-35 -8 -39 -35l-60 -440q-8 -53 -8 -84q0 -215 234 -215q219 0 254 262l30 221q23 181 19 233t-39 60l-76 16l-6 80h365l-7 -80
l-69 -16q-27 -6 -39 -22q-26 -35 -60 -273l-34 -250q-23 -164 -127 -255t-288 -91z" />
    <glyph glyph-name="ubreve.smallcap" horiz-adv-x="1165" 
d="M682 1044q-133 0 -190 100t-66 283h90q29 -119 69 -182q39 -63 113 -63t133 64t123 181h88q-102 -383 -360 -383zM550 -33q-184 0 -292 83q-109 83 -108 233q0 18 4 63l65 475q4 27 -29 35l-65 18l-6 80h461l-7 -80l-73 -18q-35 -8 -39 -35l-60 -440q-8 -53 -8 -84
q0 -215 234 -215q219 0 254 262l30 221q23 181 19 233t-39 60l-76 16l-6 80h365l-7 -80l-69 -16q-27 -6 -39 -22q-26 -35 -60 -273l-34 -250q-23 -164 -127 -255t-288 -91z" />
    <glyph glyph-name="uring.smallcap" horiz-adv-x="1165" 
d="M550 -33q-184 0 -292 83q-109 83 -108 233q0 18 4 63l65 475q4 27 -29 35l-65 18l-6 80h461l-7 -80l-73 -18q-35 -8 -39 -35l-60 -440q-8 -53 -8 -84q0 -215 234 -215q219 0 254 262l30 221q23 181 19 233t-39 60l-76 16l-6 80h365l-7 -80l-69 -16q-27 -6 -39 -22
q-26 -35 -60 -273l-34 -250q-23 -164 -127 -255t-288 -91zM842 1255q0 57 -36 99t-95 41q-59 0 -95 -41q-36 -40 -36 -98t36 -98t94 -40q60 0 96 40t36 97zM911 1255q0 -86 -55 -145t-146 -59t-148 59q-56 59 -54 145q2 85 57 145t145 60t146 -60q55 -60 55 -145z" />
    <glyph glyph-name="uhungarumlaut.smallcap" horiz-adv-x="1165" 
d="M901 1427l-397 -372h-86l239 372h244zM1262 1427l-398 -372h-84l238 372h244zM550 -33q-184 0 -292 83q-109 83 -108 233q0 18 4 63l65 475q4 27 -29 35l-65 18l-6 80h461l-7 -80l-73 -18q-35 -8 -39 -35l-60 -440q-8 -53 -8 -84q0 -215 234 -215q219 0 254 262l30 221
q23 181 19 233t-39 60l-76 16l-6 80h365l-7 -80l-69 -16q-27 -6 -39 -22q-26 -35 -60 -273l-34 -250q-23 -164 -127 -255t-288 -91z" />
    <glyph glyph-name="uogonek.smallcap" horiz-adv-x="1165" 
d="M555 -33q-188 0 -296 83t-107 233q0 41 4 63l65 475q4 27 -31 35l-63 18l-8 80h461l-7 -80l-73 -18q-35 -8 -39 -35l-60 -440q-8 -53 -8 -82q-1 -109 61 -163t173 -54q219 0 254 262l30 221q23 181 19 233t-39 60l-76 16l-6 80h365l-7 -80l-69 -16q-27 -6 -39 -22
q-26 -35 -60 -273l-34 -250q-29 -217 -230 -323q-63 -33 -105 -86q-89 -113 -44 -190q20 -36 76 -41t104 32l16 -27q-20 -59 -86 -98t-154 -30q-87 10 -132 66t-27 144q23 119 182 207h-10z" />
    <glyph glyph-name="wcircumflex.smallcap" horiz-adv-x="1587" 
d="M1659 954l-6 -82l-35 -8q-57 -16 -101 -64t-124 -216l-283 -584h-207l-94 578h-25l-270 -578h-209l-160 803q-8 43 -73 59l-45 10l-7 82h500l-6 -82l-51 -8q-49 -8 -57 -36t6 -111l90 -514h24l238 520l-14 80q-4 43 -76 59l-43 10l-6 82h501l-6 -82l-49 -8
q-45 -8 -54 -38t3 -109l80 -514h24l191 426q61 139 62 182t-50 53l-39 8l-6 82h377zM1194 1055h-94l-176 245h-4l-242 -245h-94l233 372h242z" />
    <glyph glyph-name="wgrave.smallcap" horiz-adv-x="1587" 
d="M1001 1055h-94l-309 372h260zM1659 954l-6 -82l-35 -8q-57 -16 -101 -64t-124 -216l-283 -584h-207l-94 578h-25l-270 -578h-209l-160 803q-8 43 -73 59l-45 10l-7 82h500l-6 -82l-51 -8q-49 -8 -57 -36t6 -111l90 -514h24l238 520l-14 80q-4 43 -76 59l-43 10l-6 82h501
l-6 -82l-49 -8q-45 -8 -54 -38t3 -109l80 -514h24l191 426q61 139 62 182t-50 53l-39 8l-6 82h377z" />
    <glyph glyph-name="wacute.smallcap" horiz-adv-x="1587" 
d="M1659 954l-6 -82l-35 -8q-57 -16 -101 -64t-124 -216l-283 -584h-207l-94 578h-25l-270 -578h-209l-160 803q-8 43 -73 59l-45 10l-7 82h500l-6 -82l-51 -8q-49 -8 -57 -36t6 -111l90 -514h24l238 520l-14 80q-4 43 -76 59l-43 10l-6 82h501l-6 -82l-49 -8
q-45 -8 -54 -38t3 -109l80 -514h24l191 426q61 139 62 182t-50 53l-39 8l-6 82h377zM1286 1427l-412 -372h-92l244 372h260z" />
    <glyph glyph-name="wdieresis.smallcap" horiz-adv-x="1587" 
d="M1659 954l-6 -82l-35 -8q-57 -16 -101 -64t-124 -216l-283 -584h-207l-94 578h-25l-270 -578h-209l-160 803q-8 43 -73 59l-45 10l-7 82h500l-6 -82l-51 -8q-49 -8 -57 -36t6 -111l90 -514h24l238 520l-14 80q-4 43 -76 59l-43 10l-6 82h501l-6 -82l-49 -8
q-45 -8 -54 -38t3 -109l80 -514h24l191 426q61 139 62 182t-50 53l-39 8l-6 82h377zM811 1241q0 -59 -36 -100t-97 -41t-98 41t-37 100t37 101t98 42t97 -42t36 -101zM1249 1241q0 -59 -36 -100t-97 -41t-97 41t-36 100t36 101t97 42t97 -42t36 -101z" />
    <glyph glyph-name="yacute.smallcap" horiz-adv-x="1001" 
d="M971 1427l-412 -372h-92l244 372h260zM1079 954l-6 -82l-29 -8q-49 -14 -97 -56t-126 -146l-205 -273l-32 -256q-4 -29 30 -35l86 -18l7 -80h-500l6 80l90 18q35 6 39 35l31 238l-234 448q-14 31 -63 45l-33 8l-6 82h477l-6 -82l-45 -6q-58 -11 -47 -74q6 -34 30 -92
l103 -243h24l166 227q117 158 23 178l-45 10l-6 82h368z" />
    <glyph glyph-name="ycircumflex.smallcap" horiz-adv-x="1001" 
d="M891 1055h-94l-176 245h-5l-241 -245h-94l233 372h242zM1079 954l-6 -82l-29 -8q-49 -14 -97 -56t-126 -146l-205 -273l-32 -256q-4 -29 30 -35l86 -18l7 -80h-500l6 80l90 18q35 6 39 35l31 238l-234 448q-14 31 -63 45l-33 8l-6 82h477l-6 -82l-45 -6q-58 -11 -47 -74
q6 -34 30 -92l103 -243h24l166 227q117 158 23 178l-45 10l-6 82h368z" />
    <glyph glyph-name="ydieresis.smallcap" horiz-adv-x="1001" 
d="M522 1241q0 -59 -36 -100t-97 -41t-98 41t-37 100t37 101t98 42t97 -42t36 -101zM961 1241q0 -59 -36 -100q-35 -41 -97 -41t-98 41t-36 100t36 101t97 42t97 -42t37 -101zM1079 954l-6 -82l-29 -8q-49 -14 -97 -56t-126 -146l-205 -273l-32 -256q-4 -29 30 -35l86 -18
l7 -80h-500l6 80l90 18q35 6 39 35l31 238l-234 448q-14 31 -63 45l-33 8l-6 82h477l-6 -82l-45 -6q-58 -11 -47 -74q6 -34 30 -92l103 -243h24l166 227q117 158 23 178l-45 10l-6 82h368z" />
    <glyph glyph-name="zacute.smallcap" horiz-adv-x="1042" 
d="M530 870q-106 0 -152 -26t-83 -113l-45 -115h-117l33 338h850l-10 -86l-701 -774v-10h144q147 2 208 29t95 104l47 111h133l-76 -328h-838l11 80l688 780l2 10h-189zM991 1427l-411 -372h-93l244 372h260z" />
    <glyph glyph-name="zdotaccent.smallcap" horiz-adv-x="1042" 
d="M745 1251q1 -61 -37 -103t-100 -42t-100 42q-37 42 -37 103t37 105t99 43q62 0 101 -43q37 -44 37 -105zM530 870q-106 0 -152 -26t-83 -113l-45 -115h-117l33 338h850l-10 -86l-701 -774v-10h144q147 2 208 29t95 104l47 111h133l-76 -328h-838l11 80l688 780l2 10h-189
z" />
    <glyph glyph-name="zcaron.smallcap" horiz-adv-x="1042" 
d="M928 1427l-232 -372h-243l-131 372h90l176 -245h4l244 245h92zM530 870q-106 0 -152 -26t-83 -113l-45 -115h-117l33 338h850l-10 -86l-701 -774v-10h144q147 2 208 29t95 104l47 111h133l-76 -328h-838l11 80l688 780l2 10h-189z" />
    <glyph glyph-name="solidus" horiz-adv-x="471" 
d="M-473 -238l1294 1518h123l-1294 -1518h-123z" />
    <glyph glyph-name="plusinferior" horiz-adv-x="675" 
d="M379 57v-221h-68v221h-223l4 68h219v223h68v-223h217l4 -68h-221z" />
    <glyph glyph-name="minusinferior" horiz-adv-x="675" 
d="M614 59h-512l2 68h506z" />
    <glyph glyph-name="zero.lnum" 
d="M748 920q0 307 -166 307q-76 -1 -136 -103q-98 -168 -138 -538q-15 -137 -15 -236q0 -301 164 -301q98 0 169 176t96 364q26 188 26 331zM908 368q-42 -112 -101 -199t-151 -143t-201 -57q-203 -1 -302 147t-99 388t119 504q60 131 169 215q110 84 230 84t200 -44
t125 -120q90 -152 90 -361q0 -208 -79 -414z" />
    <glyph glyph-name="one.lnum" 
d="M823 0h-725l4 94l220 27q47 6 55 47l125 936l-260 37l14 69l502 97l-152 -1139q-4 -41 41 -47l172 -27z" />
    <glyph glyph-name="two.lnum" horiz-adv-x="1017" 
d="M948 981q0 -103 -54 -189q-30 -48 -58 -88t-83 -91q-54 -50 -91 -84q-53 -49 -232 -177t-227 -164v-12h137q264 0 342 14t115 70l55 86h88l-113 -346h-821l2 125q61 53 173 143q331 266 426 395t94 239q-1 111 -67 171q-67 59 -159 60q-152 0 -330 -144l-18 53
q225 264 475 265q146 -1 246 -93t100 -233z" />
    <glyph glyph-name="three.lnum" 
d="M901 401q0 -193 -181 -323t-394 -129q-111 0 -212 45t-102 135q0 49 36 85t83 36q74 0 118 -64t42 -137q66 -8 74 -8q129 0 207 95q78 96 79 208q0 112 -59 170q-58 58 -146 57q-88 0 -167 -30l-25 65q306 153 358 213t62 92t10 58q0 80 -58 125t-132 45
q-150 0 -324 -133l-18 55q94 106 223 176t257 70t224 -68t96 -178q0 -141 -122 -232t-314 -157v-8q66 18 117 18q121 0 195 -74t73 -207z" />
    <glyph glyph-name="four.lnum" 
d="M553 479l80 559h-19l-479 -559h418zM958 367h-198l-53 -367h-218l52 367h-525l-4 92l729 850l138 -25l-107 -805h213z" />
    <glyph glyph-name="five.lnum" 
d="M891 412q0 -195 -158 -322t-354 -127t-294 81q-58 48 -58 110t34 97q35 36 84 36q80 -1 121 -59t43 -142q43 -31 137 -31q94 -1 164 61t70 171q0 301 -506 370l221 623h619l-31 -211h-555l-82 -231q184 -25 346 -109q90 -47 144 -129t55 -188z" />
    <glyph glyph-name="six.lnum" 
d="M299 358q0 -120 47 -212t143 -91q96 0 171 110t75 253t-51 215t-129 72q-129 0 -229 -148q-27 -79 -27 -199zM68 469q0 325 268 571t700 279l21 -72q-575 -113 -742 -602h11q68 84 160 133t178 49q131 0 219 -94t88 -258q-1 -201 -149 -353t-336 -153q-188 1 -304 145
q-114 144 -114 355z" />
    <glyph glyph-name="seven.lnum" 
d="M901 1085h-250q-223 0 -277 -9t-83 -50l-78 -123h-78l96 377h867l-2 -86l-754 -1210h-178l737 1095v6z" />
    <glyph glyph-name="eight.lnum" 
d="M260 301q0 -113 65 -181t170 -69t163 51t60 159q1 107 -103 196q-69 58 -185 133q-170 -113 -170 -289zM762 989q0 102 -52 171t-144 69t-146 -54q-53 -53 -53 -147q-1 -94 69 -165t187 -140q139 90 139 266zM49 288q0 142 89 225t222 118v4q-196 119 -196 294t126 276
t290 101t278 -84q114 -85 115 -231q-2 -227 -283 -307l2 -6q234 -140 233 -324t-137 -283t-309 -99q-174 0 -302 87t-128 229z" />
    </font>
</defs>
</svg>
